LibreCaslonText-Bold.ufo
<glyph name="exclam" format="1">
  <advance width="327"/>
  <unicode hex="0021"/>
  <outline>
    <contour>
      <point x="194" y="230" type="line"/>
      <point x="194" y="307"/>
      <point x="205" y="391"/>
      <point x="225" y="486" type="curve" smooth="yes"/>
      <point x="247" y="592"/>
      <point x="254" y="643"/>
      <point x="254" y="694" type="curve" smooth="yes"/>
      <point x="254" y="740"/>
      <point x="228" y="780"/>
      <point x="164" y="780" type="curve" smooth="yes"/>
      <point x="107" y="780"/>
      <point x="73" y="742"/>
      <point x="73" y="691" type="curve" smooth="yes"/>
      <point x="73" y="646"/>
      <point x="80" y="592"/>
      <point x="101" y="489" type="curve" smooth="yes"/>
      <point x="121" y="392"/>
      <point x="133" y="308"/>
      <point x="133" y="230" type="curve"/>
    </contour>
    <contour>
      <point x="76" y="72" type="curve" smooth="yes"/>
      <point x="76" y="31"/>
      <point x="106" y="-10"/>
      <point x="162" y="-10" type="curve" smooth="yes"/>
      <point x="221" y="-10"/>
      <point x="251" y="31"/>
      <point x="251" y="72" type="curve" smooth="yes"/>
      <point x="251" y="116"/>
      <point x="217" y="155"/>
      <point x="162" y="155" type="curve" smooth="yes"/>
      <point x="108" y="155"/>
      <point x="76" y="116"/>
    </contour>
  </outline>
</glyph>
<glyph name="quotedbl" format="1">
  <advance width="374"/>
  <unicode hex="0022"/>
  <outline>
    <contour>
      <point x="135" y="505" type="line"/>
      <point x="139" y="621"/>
      <point x="173" y="715"/>
      <point x="173" y="764" type="curve" smooth="yes"/>
      <point x="173" y="802"/>
      <point x="152" y="830"/>
      <point x="110" y="830" type="curve" smooth="yes"/>
      <point x="71" y="830"/>
      <point x="47" y="803"/>
      <point x="47" y="760" type="curve" smooth="yes"/>
      <point x="47" y="714"/>
      <point x="82" y="620"/>
      <point x="85" y="505" type="curve"/>
    </contour>
    <contour>
      <point x="289" y="505" type="line"/>
      <point x="293" y="621"/>
      <point x="327" y="715"/>
      <point x="327" y="764" type="curve" smooth="yes"/>
      <point x="327" y="802"/>
      <point x="306" y="830"/>
      <point x="264" y="830" type="curve" smooth="yes"/>
      <point x="225" y="830"/>
      <point x="201" y="803"/>
      <point x="201" y="760" type="curve" smooth="yes"/>
      <point x="201" y="714"/>
      <point x="236" y="620"/>
      <point x="239" y="505" type="curve"/>
    </contour>
  </outline>
</glyph>
<glyph name="ampersand" format="1">
  <advance width="825"/>
  <unicode hex="0026"/>
  <outline>
    <contour>
      <point x="250" y="435" type="line" smooth="yes"/>
      <point x="183" y="517"/>
      <point x="172" y="573"/>
      <point x="172" y="608" type="curve" smooth="yes"/>
      <point x="172" y="717"/>
      <point x="278" y="780"/>
      <point x="374" y="780" type="curve" smooth="yes"/>
      <point x="461" y="780"/>
      <point x="529" y="728"/>
      <point x="529" y="653" type="curve" smooth="yes"/>
      <point x="529" y="552"/>
      <point x="405" y="471"/>
      <point x="336" y="426" type="curve" smooth="yes"/>
      <point x="281" y="390"/>
      <point x="202" y="337"/>
      <point x="202" y="233" type="curve" smooth="yes"/>
      <point x="202" y="149"/>
      <point x="255" y="64"/>
      <point x="353" y="64" type="curve" smooth="yes"/>
      <point x="423" y="64"/>
      <point x="504" y="108"/>
      <point x="559" y="187" type="curve" smooth="yes"/>
      <point x="606" y="255"/>
      <point x="623" y="332"/>
      <point x="623" y="388" type="curve" smooth="yes"/>
      <point x="623" y="427"/>
      <point x="615" y="431"/>
      <point x="538" y="441" type="curve" smooth="yes"/>
      <point x="538" y="483" type="line"/>
      <point x="793" y="483" type="line"/>
      <point x="793" y="441" type="line" smooth="yes"/>
      <point x="714" y="432"/>
      <point x="707" y="418"/>
      <point x="696" y="377" type="curve" smooth="yes"/>
      <point x="682" y="326"/>
      <point x="647" y="236"/>
      <point x="593" y="157" type="curve" smooth="yes"/>
      <point x="496" y="15"/>
      <point x="392" y="-10"/>
      <point x="298" y="-10" type="curve" smooth="yes"/>
      <point x="131" y="-10"/>
      <point x="57" y="68"/>
      <point x="57" y="181" type="curve" smooth="yes"/>
      <point x="57" y="289"/>
      <point x="124" y="337"/>
      <point x="322" y="474" type="curve" smooth="yes"/>
      <point x="402" y="530"/>
      <point x="424" y="569"/>
      <point x="424" y="634" type="curve" smooth="yes"/>
      <point x="424" y="712"/>
      <point x="393" y="736"/>
      <point x="363" y="736" type="curve" smooth="yes"/>
      <point x="333" y="736"/>
      <point x="305" y="712"/>
      <point x="305" y="658" type="curve" smooth="yes"/>
      <point x="305" y="610"/>
      <point x="327" y="570"/>
      <point x="382" y="502" type="curve" smooth="yes"/>
      <point x="737" y="64" type="line"/>
      <point x="833" y="36" type="line"/>
      <point x="833" y="0" type="line"/>
      <point x="604" y="0" type="line"/>
    </contour>
  </outline>
</glyph>
<glyph name="parenleft" format="1">
  <advance width="316"/>
  <unicode hex="0028"/>
  <outline>
    <contour>
      <point x="241" y="-200" type="line"/>
      <point x="153" y="-110"/>
      <point x="37" y="50"/>
      <point x="37" y="305" type="curve" smooth="yes"/>
      <point x="37" y="535"/>
      <point x="161" y="749"/>
      <point x="258" y="830" type="curve"/>
      <point x="284" y="810" type="line"/>
      <point x="243" y="734"/>
      <point x="169" y="515"/>
      <point x="169" y="304" type="curve" smooth="yes"/>
      <point x="169" y="55"/>
      <point x="235" y="-102"/>
      <point x="272" y="-177" type="curve"/>
    </contour>
  </outline>
</glyph>
<glyph name="parenright" format="1">
  <advance width="316"/>
  <unicode hex="0029"/>
  <outline>
    <contour>
      <point x="44" y="-177" type="line"/>
      <point x="81" y="-102"/>
      <point x="147" y="55"/>
      <point x="147" y="304" type="curve" smooth="yes"/>
      <point x="147" y="515"/>
      <point x="73" y="734"/>
      <point x="32" y="810" type="curve"/>
      <point x="58" y="830" type="line"/>
      <point x="155" y="749"/>
      <point x="279" y="535"/>
      <point x="279" y="305" type="curve" smooth="yes"/>
      <point x="279" y="50"/>
      <point x="163" y="-110"/>
      <point x="75" y="-200" type="curve"/>
    </contour>
  </outline>
</glyph>
<glyph name="hyphen" format="1">
  <advance width="445"/>
  <unicode hex="002D"/>
  <outline>
    <contour>
      <point x="382" y="199" type="line"/>
      <point x="382" y="305" type="line"/>
      <point x="63" y="305" type="line"/>
      <point x="63" y="199" type="line"/>
    </contour>
  </outline>
</glyph>
<glyph name="period" format="1">
  <advance width="280"/>
  <unicode hex="002E"/>
  <outline>
    <contour>
      <point x="50" y="76" type="curve" smooth="yes"/>
      <point x="50" y="25"/>
      <point x="86" y="-10"/>
      <point x="139" y="-10" type="curve" smooth="yes"/>
      <point x="192" y="-10"/>
      <point x="230" y="26"/>
      <point x="230" y="76" type="curve" smooth="yes"/>
      <point x="230" y="127"/>
      <point x="191" y="164"/>
      <point x="138" y="164" type="curve" smooth="yes"/>
      <point x="86" y="164"/>
      <point x="50" y="127"/>
    </contour>
  </outline>
</glyph>
<glyph name="slash" format="1">
  <advance width="378"/>
  <unicode hex="002F"/>
  <outline>
    <contour>
      <point x="139" y="-169" type="line"/>
      <point x="340" y="819" type="line"/>
      <point x="240" y="819" type="line"/>
      <point x="40" y="-169" type="line"/>
    </contour>
  </outline>
</glyph>
<glyph name="two" format="1">
  <advance width="597"/>
  <unicode hex="0032"/>
  <outline>
    <contour>
      <point x="419" y="0" type="line" name="hr00"/>
      <point x="440" y="-33" type="line"/>
      <point x="472" y="-33" type="line"/>
      <point x="555" y="225" type="line"/>
      <point x="510" y="233" type="line"/>
      <point x="485" y="188"/>
      <point x="462" y="153"/>
      <point x="440" y="131" type="curve"/>
      <point x="203" y="131" type="line"/>
      <point x="454" y="326"/>
      <point x="537" y="440"/>
      <point x="537" y="563" type="curve" smooth="yes"/>
      <point x="537" y="686"/>
      <point x="436" y="780"/>
      <point x="304" y="780" type="curve" smooth="yes"/>
      <point x="190" y="780"/>
      <point x="93" y="708"/>
      <point x="47" y="589" type="curve"/>
      <point x="88" y="568" type="line"/>
      <point x="123" y="636"/>
      <point x="190" y="684"/>
      <point x="251" y="684" type="curve" smooth="yes"/>
      <point x="321" y="684"/>
      <point x="367" y="628"/>
      <point x="367" y="543" type="curve" smooth="yes"/>
      <point x="367" y="425"/>
      <point x="276" y="293"/>
      <point x="31" y="58" type="curve"/>
      <point x="40" y="0" type="line"/>
    </contour>
  </outline>
</glyph>
<glyph name="three" format="1">
  <advance width="571"/>
  <unicode hex="0033"/>
  <outline>
    <contour>
      <point x="165" y="364" type="line" name="hr00"/>
      <point x="179" y="367"/>
      <point x="203" y="369"/>
      <point x="219" y="369" type="curve" smooth="yes"/>
      <point x="308" y="369"/>
      <point x="364" y="303"/>
      <point x="364" y="196" type="curve" smooth="yes"/>
      <point x="364" y="108"/>
      <point x="326" y="54"/>
      <point x="264" y="54" type="curve" smooth="yes"/>
      <point x="160" y="54"/>
      <point x="198" y="202"/>
      <point x="105" y="202" type="curve" smooth="yes"/>
      <point x="62" y="202"/>
      <point x="34" y="172"/>
      <point x="34" y="128" type="curve" smooth="yes"/>
      <point x="34" y="51"/>
      <point x="124" y="-10"/>
      <point x="239" y="-10" type="curve" smooth="yes"/>
      <point x="399" y="-10"/>
      <point x="526" y="108"/>
      <point x="526" y="255" type="curve" smooth="yes"/>
      <point x="526" y="369"/>
      <point x="451" y="449"/>
      <point x="338" y="459" type="curve"/>
      <point x="338" y="463" type="line"/>
      <point x="414" y="482"/>
      <point x="479" y="545"/>
      <point x="479" y="624" type="curve" smooth="yes"/>
      <point x="479" y="717"/>
      <point x="404" y="780"/>
      <point x="294" y="780" type="curve" smooth="yes"/>
      <point x="179" y="780"/>
      <point x="89" y="710"/>
      <point x="66" y="605" type="curve"/>
      <point x="102" y="591" type="line"/>
      <point x="129" y="648"/>
      <point x="185" y="686"/>
      <point x="240" y="686" type="curve" smooth="yes"/>
      <point x="291" y="686"/>
      <point x="323" y="653"/>
      <point x="323" y="600" type="curve" smooth="yes"/>
      <point x="323" y="524"/>
      <point x="256" y="450"/>
      <point x="149" y="408" type="curve"/>
    </contour>
  </outline>
</glyph>
<glyph name="five" format="1">
  <advance width="558"/>
  <unicode hex="0035"/>
  <outline>
    <contour>
      <point x="196" y="620" type="line" name="hr00"/>
      <point x="444" y="620" type="line"/>
      <point x="488" y="790" type="line"/>
      <point x="452" y="807" type="line"/>
      <point x="437" y="779"/>
      <point x="430" y="767"/>
      <point x="421" y="757" type="curve"/>
      <point x="149" y="757" type="line"/>
      <point x="90" y="328" type="line"/>
      <point x="131" y="328" type="line"/>
      <point x="159" y="347"/>
      <point x="195" y="357"/>
      <point x="231" y="357" type="curve" smooth="yes"/>
      <point x="320" y="357"/>
      <point x="382" y="294"/>
      <point x="382" y="205" type="curve" smooth="yes"/>
      <point x="382" y="117"/>
      <point x="329" y="54"/>
      <point x="254" y="54" type="curve" smooth="yes"/>
      <point x="143" y="54"/>
      <point x="188" y="194"/>
      <point x="98" y="194" type="curve" smooth="yes"/>
      <point x="56" y="194"/>
      <point x="27" y="163"/>
      <point x="27" y="120" type="curve" smooth="yes"/>
      <point x="27" y="45"/>
      <point x="111" y="-10"/>
      <point x="225" y="-10" type="curve" smooth="yes"/>
      <point x="391" y="-10"/>
      <point x="516" y="109"/>
      <point x="516" y="269" type="curve" smooth="yes"/>
      <point x="516" y="408"/>
      <point x="413" y="500"/>
      <point x="258" y="500" type="curve" smooth="yes"/>
      <point x="232" y="500"/>
      <point x="205" y="500"/>
      <point x="179" y="490" type="curve"/>
    </contour>
  </outline>
</glyph>
<glyph name="seven" format="1">
  <advance width="527"/>
  <unicode hex="0037"/>
  <outline>
    <contour>
      <point x="148" y="757" type="line" name="hr00"/>
      <point x="144" y="766"/>
      <point x="142" y="784"/>
      <point x="142" y="795" type="curve"/>
      <point x="105" y="803" type="line"/>
      <point x="17" y="555" type="line"/>
      <point x="55" y="538" type="line"/>
      <point x="75" y="577"/>
      <point x="92" y="600"/>
      <point x="112" y="620" type="curve"/>
      <point x="391" y="620" type="line"/>
      <point x="148" y="164" type="line" smooth="yes"/>
      <point x="122" y="115"/>
      <point x="108" y="78"/>
      <point x="108" y="51" type="curve" smooth="yes"/>
      <point x="108" y="13"/>
      <point x="136" y="-10"/>
      <point x="181" y="-10" type="curve" smooth="yes"/>
      <point x="218" y="-10"/>
      <point x="244" y="13"/>
      <point x="260" y="58" type="curve" smooth="yes"/>
      <point x="379" y="402"/>
      <point x="394" y="440"/>
      <point x="525" y="729" type="curve"/>
      <point x="509" y="757" type="line"/>
    </contour>
  </outline>
</glyph>
<glyph name="eight" format="1">
  <advance width="622"/>
  <unicode hex="0038"/>
  <outline>
    <contour>
      <point x="410" y="442" type="curve" name="hr00"/>
      <point x="495" y="479"/>
      <point x="540" y="536"/>
      <point x="540" y="607" type="curve" smooth="yes"/>
      <point x="540" y="710"/>
      <point x="449" y="780"/>
      <point x="314" y="780" type="curve" smooth="yes"/>
      <point x="171" y="780"/>
      <point x="77" y="700"/>
      <point x="77" y="577" type="curve" smooth="yes"/>
      <point x="77" y="496"/>
      <point x="115" y="432"/>
      <point x="195" y="378" type="curve"/>
      <point x="95" y="333"/>
      <point x="48" y="274"/>
      <point x="48" y="196" type="curve" smooth="yes"/>
      <point x="48" y="77"/>
      <point x="141" y="-10"/>
      <point x="305" y="-10" type="curve" smooth="yes"/>
      <point x="462" y="-10"/>
      <point x="575" y="87"/>
      <point x="575" y="223" type="curve" smooth="yes"/>
      <point x="575" y="312"/>
      <point x="526" y="378"/>
    </contour>
    <contour>
      <point x="350" y="469" type="curve"/>
      <point x="248" y="518"/>
      <point x="206" y="563"/>
      <point x="206" y="623" type="curve" smooth="yes"/>
      <point x="206" y="683"/>
      <point x="245" y="720"/>
      <point x="307" y="720" type="curve" smooth="yes"/>
      <point x="374" y="720"/>
      <point x="415" y="677"/>
      <point x="415" y="607" type="curve" smooth="yes"/>
      <point x="415" y="555"/>
      <point x="393" y="509"/>
    </contour>
    <contour>
      <point x="249" y="349" type="curve"/>
      <point x="382" y="293"/>
      <point x="439" y="238"/>
      <point x="439" y="166" type="curve" smooth="yes"/>
      <point x="439" y="96"/>
      <point x="390" y="50"/>
      <point x="317" y="50" type="curve" smooth="yes"/>
      <point x="235" y="50"/>
      <point x="188" y="107"/>
      <point x="188" y="206" type="curve" smooth="yes"/>
      <point x="188" y="272"/>
      <point x="210" y="323"/>
    </contour>
  </outline>
</glyph>
<glyph name="nine" format="1">
  <advance width="603"/>
  <unicode hex="0039"/>
  <outline>
    <contour>
      <point x="295" y="777" type="curve" name="hr00"/>
      <point x="137" y="777"/>
      <point x="29" y="677"/>
      <point x="29" y="531" type="curve" smooth="yes"/>
      <point x="29" y="401"/>
      <point x="122" y="305"/>
      <point x="250" y="305" type="curve" smooth="yes"/>
      <point x="305" y="305"/>
      <point x="350" y="324"/>
      <point x="374" y="357" type="curve"/>
      <point x="360" y="246"/>
      <point x="248" y="92"/>
      <point x="137" y="30" type="curve"/>
      <point x="160" y="-10" type="line"/>
      <point x="400" y="74"/>
      <point x="557" y="274"/>
      <point x="557" y="495" type="curve" smooth="yes"/>
      <point x="557" y="670"/>
      <point x="458" y="777"/>
    </contour>
    <contour>
      <point x="287" y="717" type="curve"/>
      <point x="349" y="717"/>
      <point x="388" y="645"/>
      <point x="388" y="530" type="curve" smooth="yes"/>
      <point x="388" y="496"/>
      <point x="384" y="461"/>
      <point x="376" y="434" type="curve"/>
      <point x="359" y="400"/>
      <point x="328" y="380"/>
      <point x="294" y="380" type="curve" smooth="yes"/>
      <point x="232" y="380"/>
      <point x="193" y="445"/>
      <point x="193" y="548" type="curve" smooth="yes"/>
      <point x="193" y="652"/>
      <point x="229" y="717"/>
    </contour>
  </outline>
</glyph>
<glyph name="less" format="1">
  <advance width="508"/>
  <unicode hex="003C"/>
  <outline>
    <contour>
      <point x="442" y="116" type="line"/>
      <point x="442" y="201" type="line"/>
      <point x="125" y="337" type="line"/>
      <point x="125" y="341" type="line"/>
      <point x="442" y="475" type="line"/>
      <point x="442" y="556" type="line"/>
      <point x="33" y="361" type="line"/>
      <point x="33" y="310" type="line"/>
    </contour>
  </outline>
</glyph>
<glyph name="question" format="1">
  <advance width="421"/>
  <unicode hex="003F"/>
  <outline>
    <contour>
      <point x="94" y="230" type="line"/>
      <point x="94" y="461" type="line"/>
      <point x="150" y="461" type="line" smooth="yes"/>
      <point x="270" y="461"/>
      <point x="332" y="487"/>
      <point x="332" y="531" type="curve" smooth="yes"/>
      <point x="332" y="562"/>
      <point x="316" y="578"/>
      <point x="204" y="620" type="curve" smooth="yes"/>
      <point x="108" y="656"/>
      <point x="77" y="686"/>
      <point x="77" y="721" type="curve" smooth="yes"/>
      <point x="77" y="761"/>
      <point x="100" y="780"/>
      <point x="145" y="780" type="curve" smooth="yes"/>
      <point x="282" y="780"/>
      <point x="384" y="685"/>
      <point x="384" y="529" type="curve" smooth="yes"/>
      <point x="384" y="403"/>
      <point x="314" y="329"/>
      <point x="193" y="325" type="curve" smooth="yes"/>
      <point x="163" y="324" type="line"/>
      <point x="163" y="230" type="line"/>
    </contour>
    <contour>
      <point x="41" y="72" type="curve" smooth="yes"/>
      <point x="41" y="31"/>
      <point x="71" y="-10"/>
      <point x="127" y="-10" type="curve" smooth="yes"/>
      <point x="186" y="-10"/>
      <point x="216" y="31"/>
      <point x="216" y="72" type="curve" smooth="yes"/>
      <point x="216" y="116"/>
      <point x="182" y="155"/>
      <point x="127" y="155" type="curve" smooth="yes"/>
      <point x="73" y="155"/>
      <point x="41" y="116"/>
    </contour>
  </outline>
</glyph>
<glyph name="C" format="1">
  <advance width="813"/>
  <unicode hex="0043"/>
  <outline>
    <contour>
      <point x="45" y="380" type="curve" smooth="yes"/>
      <point x="45" y="148"/>
      <point x="204" y="-10"/>
      <point x="436" y="-10" type="curve" smooth="yes"/>
      <point x="524" y="-10"/>
      <point x="597" y="13"/>
      <point x="675" y="66" type="curve"/>
      <point x="716" y="0" type="line"/>
      <point x="753" y="0" type="line"/>
      <point x="753" y="277" type="line"/>
      <point x="708" y="277" type="line"/>
      <point x="699" y="228"/>
      <point x="681" y="186"/>
      <point x="658" y="152" type="curve" smooth="yes"/>
      <point x="613" y="87"/>
      <point x="545" y="50"/>
      <point x="463" y="50" type="curve" smooth="yes"/>
      <point x="314" y="50"/>
      <point x="234" y="169"/>
      <point x="234" y="390" type="curve" smooth="yes"/>
      <point x="234" y="609"/>
      <point x="313" y="721"/>
      <point x="467" y="721" type="curve" smooth="yes"/>
      <point x="551" y="721"/>
      <point x="614" y="688"/>
      <point x="661" y="616" type="curve" smooth="yes"/>
      <point x="678" y="591"/>
      <point x="692" y="560"/>
      <point x="705" y="525" type="curve"/>
      <point x="753" y="525" type="line"/>
      <point x="753" y="770" type="line"/>
      <point x="723" y="770" type="line"/>
      <point x="679" y="719" type="line"/>
      <point x="675" y="719" type="line"/>
      <point x="609" y="758"/>
      <point x="523" y="780"/>
      <point x="439" y="780" type="curve" smooth="yes"/>
      <point x="208" y="780"/>
      <point x="45" y="614"/>
    </contour>
  </outline>
</glyph>
<glyph name="E" format="1">
  <advance width="731"/>
  <unicode hex="0045"/>
  <outline>
    <contour>
      <point x="283" y="380" type="line"/>
      <point x="425" y="380" type="line"/>
      <point x="446" y="343"/>
      <point x="460" y="304"/>
      <point x="468" y="267" type="curve"/>
      <point x="510" y="267" type="line"/>
      <point x="510" y="547" type="line"/>
      <point x="468" y="547" type="line"/>
      <point x="460" y="510"/>
      <point x="447" y="471"/>
      <point x="425" y="434" type="curve"/>
      <point x="283" y="434" type="line"/>
    </contour>
    <contour>
      <point x="554" y="713" type="line"/>
      <point x="588" y="661"/>
      <point x="613" y="602"/>
      <point x="631" y="550" type="curve"/>
      <point x="673" y="550" type="line"/>
      <point x="654" y="770" type="line"/>
      <point x="42" y="770" type="line"/>
      <point x="42" y="733" type="line"/>
      <point x="127" y="714" type="line"/>
      <point x="127" y="56" type="line"/>
      <point x="42" y="37" type="line"/>
      <point x="42" y="0" type="line"/>
      <point x="649" y="0" type="line"/>
      <point x="691" y="234" type="line"/>
      <point x="639" y="234" type="line"/>
      <point x="615" y="175"/>
      <point x="591" y="116"/>
      <point x="548" y="57" type="curve"/>
      <point x="299" y="57" type="line"/>
      <point x="299" y="713" type="line"/>
    </contour>
  </outline>
</glyph>
<glyph name="L" format="1">
  <advance width="699"/>
  <unicode hex="004C"/>
  <outline>
    <contour>
      <point x="393" y="733" type="line"/>
      <point x="393" y="770" type="line"/>
      <point x="42" y="770" type="line"/>
      <point x="42" y="733" type="line"/>
      <point x="127" y="714" type="line"/>
      <point x="127" y="56" type="line"/>
      <point x="42" y="37" type="line"/>
      <point x="42" y="0" type="line"/>
      <point x="649" y="0" type="line"/>
      <point x="691" y="234" type="line"/>
      <point x="639" y="234" type="line"/>
      <point x="615" y="175"/>
      <point x="591" y="116"/>
      <point x="548" y="57" type="curve"/>
      <point x="299" y="57" type="line"/>
      <point x="299" y="713" type="line"/>
    </contour>
  </outline>
</glyph>
<glyph name="N" format="1">
  <advance width="878"/>
  <unicode hex="004E"/>
  <outline>
    <contour>
      <point x="758" y="714" type="line"/>
      <point x="847" y="733" type="line"/>
      <point x="847" y="770" type="line"/>
      <point x="601" y="770" type="line"/>
      <point x="601" y="733" type="line"/>
      <point x="689" y="714" type="line"/>
      <point x="689" y="295" type="line"/>
      <point x="311" y="770" type="line"/>
      <point x="40" y="770" type="line"/>
      <point x="40" y="733" type="line"/>
      <point x="128" y="714" type="line"/>
      <point x="128" y="56" type="line"/>
      <point x="39" y="37" type="line"/>
      <point x="39" y="0" type="line"/>
      <point x="285" y="0" type="line"/>
      <point x="285" y="37" type="line"/>
      <point x="197" y="56" type="line"/>
      <point x="197" y="610" type="line"/>
      <point x="689" y="-10" type="line"/>
      <point x="758" y="-10" type="line"/>
    </contour>
  </outline>
</glyph>
<glyph name="O" format="1">
  <advance width="869"/>
  <unicode hex="004F"/>
  <outline>
    <contour>
      <point x="434" y="780" type="curve" smooth="yes"/>
      <point x="184" y="780"/>
      <point x="45" y="602"/>
      <point x="45" y="385" type="curve" smooth="yes"/>
      <point x="45" y="168"/>
      <point x="184" y="-10"/>
      <point x="434" y="-10" type="curve" smooth="yes"/>
      <point x="685" y="-10"/>
      <point x="824" y="168"/>
      <point x="824" y="385" type="curve" smooth="yes"/>
      <point x="824" y="602"/>
      <point x="685" y="780"/>
    </contour>
    <contour>
      <point x="242" y="385" type="curve" smooth="yes"/>
      <point x="242" y="523"/>
      <point x="273" y="720"/>
      <point x="434" y="720" type="curve" smooth="yes"/>
      <point x="598" y="720"/>
      <point x="627" y="523"/>
      <point x="627" y="385" type="curve" smooth="yes"/>
      <point x="627" y="246"/>
      <point x="596" y="48"/>
      <point x="434" y="48" type="curve" smooth="yes"/>
      <point x="273" y="48"/>
      <point x="242" y="246"/>
    </contour>
  </outline>
</glyph>
<glyph name="S" format="1">
  <advance width="647"/>
  <unicode hex="0053"/>
  <outline>
    <contour>
      <point x="326" y="780" type="curve" smooth="yes"/>
      <point x="180" y="780"/>
      <point x="70" y="691"/>
      <point x="70" y="569" type="curve" smooth="yes"/>
      <point x="70" y="298"/>
      <point x="461" y="311"/>
      <point x="461" y="163" type="curve" smooth="yes"/>
      <point x="461" y="92"/>
      <point x="407" y="49"/>
      <point x="322" y="49" type="curve" smooth="yes"/>
      <point x="204" y="49"/>
      <point x="138" y="113"/>
      <point x="95" y="263" type="curve"/>
      <point x="53" y="256" type="line"/>
      <point x="73" y="0" type="line"/>
      <point x="104" y="0" type="line"/>
      <point x="139" y="41" type="line"/>
      <point x="206" y="6"/>
      <point x="262" y="-9"/>
      <point x="324" y="-9" type="curve" smooth="yes"/>
      <point x="478" y="-9"/>
      <point x="596" y="89"/>
      <point x="596" y="218" type="curve" smooth="yes"/>
      <point x="596" y="494"/>
      <point x="222" y="475"/>
      <point x="222" y="626" type="curve" smooth="yes"/>
      <point x="222" y="685"/>
      <point x="263" y="721"/>
      <point x="332" y="721" type="curve" smooth="yes"/>
      <point x="429" y="721"/>
      <point x="492" y="663"/>
      <point x="525" y="550" type="curve"/>
      <point x="569" y="550" type="line"/>
      <point x="559" y="771" type="line"/>
      <point x="526" y="771" type="line"/>
      <point x="502" y="718" type="line"/>
      <point x="452" y="760"/>
      <point x="395" y="780"/>
    </contour>
  </outline>
</glyph>
<glyph name="U" format="1">
  <advance width="821"/>
  <unicode hex="0055"/>
  <outline>
    <contour>
      <point x="285" y="714" type="line"/>
      <point x="373" y="733" type="line"/>
      <point x="373" y="770" type="line"/>
      <point x="26" y="770" type="line"/>
      <point x="26" y="733" type="line"/>
      <point x="111" y="714" type="line"/>
      <point x="111" y="267" type="line" smooth="yes"/>
      <point x="111" y="184"/>
      <point x="123" y="136"/>
      <point x="154" y="97" type="curve" smooth="yes"/>
      <point x="207" y="28"/>
      <point x="302" y="-10"/>
      <point x="423" y="-10" type="curve" smooth="yes"/>
      <point x="539" y="-10"/>
      <point x="618" y="25"/>
      <point x="664" y="96" type="curve" smooth="yes"/>
      <point x="694" y="143"/>
      <point x="710" y="207"/>
      <point x="710" y="283" type="curve" smooth="yes"/>
      <point x="710" y="714" type="line"/>
      <point x="799" y="733" type="line"/>
      <point x="799" y="770" type="line"/>
      <point x="553" y="770" type="line"/>
      <point x="553" y="733" type="line"/>
      <point x="641" y="714" type="line"/>
      <point x="641" y="340" type="line" smooth="yes"/>
      <point x="641" y="224"/>
      <point x="628" y="158"/>
      <point x="597" y="115" type="curve" smooth="yes"/>
      <point x="567" y="74"/>
      <point x="520" y="52"/>
      <point x="459" y="52" type="curve" smooth="yes"/>
      <point x="348" y="52"/>
      <point x="285" y="131"/>
      <point x="285" y="267" type="curve" smooth="yes"/>
    </contour>
  </outline>
</glyph>
<glyph name="V" format="1">
  <advance width="781"/>
  <unicode hex="0056"/>
  <outline>
    <contour>
      <point x="418" y="-10" type="line"/>
      <point x="665" y="622" type="line" smooth="yes"/>
      <point x="697" y="704"/>
      <point x="715" y="719"/>
      <point x="805" y="733" type="curve"/>
      <point x="805" y="770" type="line"/>
      <point x="496" y="770" type="line"/>
      <point x="496" y="733" type="line"/>
      <point x="578" y="722"/>
      <point x="607" y="705"/>
      <point x="607" y="669" type="curve" smooth="yes"/>
      <point x="607" y="657"/>
      <point x="604" y="642"/>
      <point x="597" y="624" type="curve" smooth="yes"/>
      <point x="455" y="254" type="line"/>
      <point x="449" y="254" type="line"/>
      <point x="300" y="666" type="line" smooth="yes"/>
      <point x="296" y="677"/>
      <point x="294" y="686"/>
      <point x="294" y="694" type="curve" smooth="yes"/>
      <point x="294" y="719"/>
      <point x="318" y="728"/>
      <point x="392" y="733" type="curve"/>
      <point x="392" y="770" type="line"/>
      <point x="-20" y="770" type="line"/>
      <point x="-20" y="733" type="line"/>
      <point x="51" y="728"/>
      <point x="69" y="717"/>
      <point x="88" y="672" type="curve" smooth="yes"/>
      <point x="370" y="-10" type="line"/>
    </contour>
  </outline>
</glyph>
<glyph name="W" format="1">
  <advance width="1212"/>
  <unicode hex="0057"/>
  <outline>
    <contour>
      <point x="407" y="-10" type="line"/>
      <point x="605" y="497" type="line"/>
      <point x="804" y="-10" type="line"/>
      <point x="852" y="-10" type="line"/>
      <point x="1099" y="622" type="line" smooth="yes"/>
      <point x="1130" y="703"/>
      <point x="1152" y="720"/>
      <point x="1239" y="733" type="curve"/>
      <point x="1239" y="770" type="line"/>
      <point x="930" y="770" type="line"/>
      <point x="930" y="733" type="line"/>
      <point x="1013" y="723"/>
      <point x="1042" y="705"/>
      <point x="1042" y="671" type="curve" smooth="yes"/>
      <point x="1042" y="658"/>
      <point x="1037" y="640"/>
      <point x="1031" y="624" type="curve" smooth="yes"/>
      <point x="889" y="254" type="line"/>
      <point x="883" y="254" type="line"/>
      <point x="749" y="666" type="line" smooth="yes"/>
      <point x="745" y="677"/>
      <point x="743" y="687"/>
      <point x="743" y="695" type="curve" smooth="yes"/>
      <point x="743" y="721"/>
      <point x="768" y="729"/>
      <point x="841" y="733" type="curve"/>
      <point x="841" y="770" type="line"/>
      <point x="429" y="770" type="line"/>
      <point x="429" y="733" type="line"/>
      <point x="500" y="728"/>
      <point x="519" y="717"/>
      <point x="537" y="672" type="curve" smooth="yes"/>
      <point x="571" y="585" type="line"/>
      <point x="444" y="254" type="line"/>
      <point x="438" y="254" type="line"/>
      <point x="304" y="666" type="line" smooth="yes"/>
      <point x="300" y="677"/>
      <point x="298" y="687"/>
      <point x="298" y="695" type="curve" smooth="yes"/>
      <point x="298" y="719"/>
      <point x="311" y="728"/>
      <point x="396" y="733" type="curve"/>
      <point x="396" y="770" type="line"/>
      <point x="-16" y="770" type="line"/>
      <point x="-16" y="733" type="line"/>
      <point x="55" y="728"/>
      <point x="74" y="717"/>
      <point x="92" y="672" type="curve" smooth="yes"/>
      <point x="359" y="-10" type="line"/>
    </contour>
  </outline>
</glyph>
<glyph name="X" format="1">
  <advance width="840"/>
  <unicode hex="0058"/>
  <outline>
    <contour>
      <point x="-7" y="0" type="line"/>
      <point x="287" y="0" type="line"/>
      <point x="287" y="37" type="line"/>
      <point x="229" y="43"/>
      <point x="203" y="53"/>
      <point x="203" y="70" type="curve" smooth="yes"/>
      <point x="203" y="79"/>
      <point x="208" y="93"/>
      <point x="220" y="109" type="curve" smooth="yes"/>
      <point x="374" y="317" type="line"/>
      <point x="526" y="91" type="line" smooth="yes"/>
      <point x="538" y="73"/>
      <point x="542" y="63"/>
      <point x="542" y="57" type="curve" smooth="yes"/>
      <point x="542" y="46"/>
      <point x="523" y="42"/>
      <point x="444" y="37" type="curve"/>
      <point x="444" y="0" type="line"/>
      <point x="859" y="0" type="line"/>
      <point x="859" y="37" type="line"/>
      <point x="797" y="42"/>
      <point x="771" y="50"/>
      <point x="751" y="80" type="curve" smooth="yes"/>
      <point x="508" y="443" type="line"/>
      <point x="674" y="664" type="line" smooth="yes"/>
      <point x="705" y="705"/>
      <point x="725" y="718"/>
      <point x="811" y="733" type="curve"/>
      <point x="811" y="770" type="line"/>
      <point x="530" y="770" type="line"/>
      <point x="530" y="733" type="line"/>
      <point x="589" y="727"/>
      <point x="614" y="715"/>
      <point x="614" y="697" type="curve" smooth="yes"/>
      <point x="614" y="686"/>
      <point x="608" y="675"/>
      <point x="598" y="661" type="curve" smooth="yes"/>
      <point x="474" y="494" type="line"/>
      <point x="351" y="679" type="line" smooth="yes"/>
      <point x="341" y="695"/>
      <point x="338" y="703"/>
      <point x="338" y="712" type="curve" smooth="yes"/>
      <point x="338" y="725"/>
      <point x="355" y="730"/>
      <point x="427" y="733" type="curve"/>
      <point x="427" y="770" type="line"/>
      <point x="10" y="770" type="line"/>
      <point x="10" y="733" type="line"/>
      <point x="92" y="723"/>
      <point x="107" y="716"/>
      <point x="125" y="690" type="curve" smooth="yes"/>
      <point x="339" y="370" type="line"/>
      <point x="144" y="108" type="line" smooth="yes"/>
      <point x="113" y="66"/>
      <point x="79" y="48"/>
      <point x="-7" y="37" type="curve"/>
    </contour>
  </outline>
</glyph>
<glyph name="Y" format="1">
  <advance width="745"/>
  <unicode hex="0059"/>
  <outline>
    <contour>
      <point x="203" y="0" type="line"/>
      <point x="544" y="0" type="line"/>
      <point x="544" y="37" type="line"/>
      <point x="460" y="58" type="line"/>
      <point x="460" y="334" type="line"/>
      <point x="615" y="622" type="line" smooth="yes"/>
      <point x="667" y="718"/>
      <point x="677" y="726"/>
      <point x="760" y="733" type="curve"/>
      <point x="760" y="770" type="line"/>
      <point x="458" y="770" type="line"/>
      <point x="458" y="733" type="line"/>
      <point x="540" y="731"/>
      <point x="569" y="716"/>
      <point x="569" y="684" type="curve" smooth="yes"/>
      <point x="569" y="670"/>
      <point x="563" y="649"/>
      <point x="550" y="624" type="curve" smooth="yes"/>
      <point x="435" y="405" type="line"/>
      <point x="431" y="405" type="line"/>
      <point x="303" y="656" type="line" smooth="yes"/>
      <point x="297" y="667"/>
      <point x="294" y="676"/>
      <point x="294" y="685" type="curve" smooth="yes"/>
      <point x="294" y="709"/>
      <point x="314" y="727"/>
      <point x="395" y="733" type="curve"/>
      <point x="395" y="770" type="line"/>
      <point x="-18" y="770" type="line"/>
      <point x="-18" y="733" type="line"/>
      <point x="52" y="728"/>
      <point x="69" y="722"/>
      <point x="97" y="672" type="curve" smooth="yes"/>
      <point x="288" y="335" type="line"/>
      <point x="288" y="58" type="line"/>
      <point x="203" y="37" type="line"/>
    </contour>
  </outline>
</glyph>
<glyph name="bracketright" format="1">
  <advance width="337"/>
  <unicode hex="005D"/>
  <outline>
    <contour>
      <point x="20" y="-187" type="line"/>
      <point x="20" y="-138" type="line"/>
      <point x="128" y="-138" type="line"/>
      <point x="128" y="770" type="line"/>
      <point x="20" y="770" type="line"/>
      <point x="20" y="820" type="line"/>
      <point x="245" y="820" type="line"/>
      <point x="245" y="-187" type="line"/>
    </contour>
  </outline>
</glyph>
<glyph name="underscore" format="1">
  <advance width="676"/>
  <unicode hex="005F"/>
  <outline>
    <contour>
      <point x="613" y="-93" type="line" name="hr00"/>
      <point x="613" y="-30" type="line"/>
      <point x="63" y="-30" type="line"/>
      <point x="63" y="-93" type="line"/>
    </contour>
  </outline>
</glyph>
<glyph name="b" format="1">
  <advance width="658"/>
  <unicode hex="0062"/>
  <outline>
    <contour>
      <point x="350" y="-10" type="curve" smooth="yes"/>
      <point x="503" y="-10"/>
      <point x="621" y="118"/>
      <point x="621" y="287" type="curve" smooth="yes"/>
      <point x="621" y="437"/>
      <point x="531" y="540"/>
      <point x="400" y="540" type="curve" smooth="yes"/>
      <point x="336" y="540"/>
      <point x="279" y="513"/>
      <point x="234" y="469" type="curve"/>
      <point x="234" y="830" type="line"/>
      <point x="212" y="830" type="line"/>
      <point x="-5" y="781" type="line"/>
      <point x="-5" y="758" type="line"/>
      <point x="79" y="731" type="line"/>
      <point x="79" y="0" type="line"/>
      <point x="108" y="0" type="line"/>
      <point x="194" y="36" type="line"/>
      <point x="200" y="36" type="line"/>
      <point x="243" y="6"/>
      <point x="296" y="-10"/>
    </contour>
    <contour>
      <point x="330" y="44" type="curve" smooth="yes"/>
      <point x="272" y="44"/>
      <point x="234" y="94"/>
      <point x="234" y="170" type="curve" smooth="yes"/>
      <point x="234" y="404" type="line"/>
      <point x="258" y="440"/>
      <point x="291" y="462"/>
      <point x="331" y="462" type="curve" smooth="yes"/>
      <point x="408" y="462"/>
      <point x="452" y="386"/>
      <point x="452" y="259" type="curve" smooth="yes"/>
      <point x="452" y="130"/>
      <point x="404" y="44"/>
    </contour>
  </outline>
</glyph>
<glyph name="d" format="1">
  <advance width="674"/>
  <unicode hex="0064"/>
  <outline>
    <contour>
      <point x="265" y="-10" type="curve" smooth="yes"/>
      <point x="330" y="-10"/>
      <point x="388" y="13"/>
      <point x="429" y="53" type="curve"/>
      <point x="434" y="51" type="line"/>
      <point x="434" y="-10" type="line"/>
      <point x="452" y="-10" type="line"/>
      <point x="660" y="52" type="line"/>
      <point x="660" y="73" type="line"/>
      <point x="581" y="98" type="line"/>
      <point x="581" y="830" type="line"/>
      <point x="559" y="830" type="line"/>
      <point x="341" y="781" type="line"/>
      <point x="341" y="758" type="line"/>
      <point x="426" y="730" type="line"/>
      <point x="426" y="515" type="line"/>
      <point x="388" y="532"/>
      <point x="348" y="540"/>
      <point x="310" y="540" type="curve" smooth="yes"/>
      <point x="149" y="540"/>
      <point x="37" y="424"/>
      <point x="37" y="256" type="curve" smooth="yes"/>
      <point x="37" y="103"/>
      <point x="137" y="-10"/>
    </contour>
    <contour>
      <point x="329" y="62" type="curve" smooth="yes"/>
      <point x="252" y="62"/>
      <point x="208" y="144"/>
      <point x="208" y="273" type="curve" smooth="yes"/>
      <point x="208" y="400"/>
      <point x="256" y="486"/>
      <point x="330" y="486" type="curve" smooth="yes"/>
      <point x="388" y="486"/>
      <point x="426" y="436"/>
      <point x="426" y="362" type="curve" smooth="yes"/>
      <point x="426" y="114" type="line"/>
      <point x="402" y="82"/>
      <point x="369" y="62"/>
    </contour>
  </outline>
</glyph>
<glyph name="f" format="1">
  <advance width="422"/>
  <unicode hex="0066"/>
  <outline>
    <contour>
      <point x="271" y="585" type="line" smooth="yes"/>
      <point x="271" y="653"/>
      <point x="272" y="702"/>
      <point x="283" y="733" type="curve" smooth="yes"/>
      <point x="294" y="765"/>
      <point x="320" y="779"/>
      <point x="349" y="779" type="curve" smooth="yes"/>
      <point x="380" y="779"/>
      <point x="394" y="765"/>
      <point x="404" y="727" type="curve" smooth="yes"/>
      <point x="414" y="688"/>
      <point x="439" y="666"/>
      <point x="474" y="666" type="curve" smooth="yes"/>
      <point x="515" y="666"/>
      <point x="543" y="693"/>
      <point x="543" y="732" type="curve" smooth="yes"/>
      <point x="543" y="791"/>
      <point x="473" y="830"/>
      <point x="368" y="830" type="curve" smooth="yes"/>
      <point x="258" y="830"/>
      <point x="165" y="780"/>
      <point x="133" y="703" type="curve" smooth="yes"/>
      <point x="119" y="671"/>
      <point x="116" y="636"/>
      <point x="116" y="516" type="curve" smooth="yes"/>
      <point x="116" y="55" type="line"/>
      <point x="31" y="35" type="line"/>
      <point x="31" y="0" type="line"/>
      <point x="394" y="0" type="line"/>
      <point x="394" y="35" type="line"/>
      <point x="271" y="55" type="line"/>
    </contour>
    <contour>
      <point x="14" y="483" type="line"/>
      <point x="392" y="483" type="line"/>
      <point x="406" y="530" type="line"/>
      <point x="28" y="530" type="line"/>
    </contour>
  </outline>
</glyph>
<glyph name="h" format="1">
  <advance width="681"/>
  <unicode hex="0068"/>
  <outline>
    <contour>
      <point x="249" y="55" type="line"/>
      <point x="249" y="830" type="line"/>
      <point x="227" y="830" type="line"/>
      <point x="18" y="781" type="line"/>
      <point x="18" y="758" type="line"/>
      <point x="94" y="730" type="line"/>
      <point x="94" y="55" type="line"/>
      <point x="19" y="35" type="line"/>
      <point x="19" y="0" type="line"/>
      <point x="319" y="0" type="line"/>
      <point x="319" y="35" type="line"/>
    </contour>
    <contour>
      <point x="237" y="406" type="line"/>
      <point x="264" y="439"/>
      <point x="294" y="454"/>
      <point x="334" y="454" type="curve" smooth="yes"/>
      <point x="380" y="454"/>
      <point x="407" y="434"/>
      <point x="423" y="399" type="curve" smooth="yes"/>
      <point x="432" y="379"/>
      <point x="433" y="350"/>
      <point x="433" y="279" type="curve" smooth="yes"/>
      <point x="433" y="55" type="line"/>
      <point x="363" y="35" type="line"/>
      <point x="363" y="0" type="line"/>
      <point x="663" y="0" type="line"/>
      <point x="663" y="35" type="line"/>
      <point x="588" y="55" type="line"/>
      <point x="588" y="318" type="line" smooth="yes"/>
      <point x="588" y="410"/>
      <point x="585" y="435"/>
      <point x="573" y="460" type="curve" smooth="yes"/>
      <point x="547" y="513"/>
      <point x="498" y="540"/>
      <point x="431" y="540" type="curve" smooth="yes"/>
      <point x="362" y="540"/>
      <point x="283" y="511"/>
      <point x="237" y="469" type="curve"/>
    </contour>
  </outline>
</glyph>
<glyph name="j" format="1">
  <advance width="330"/>
  <unicode hex="006A"/>
  <outline>
    <contour>
      <point x="96" y="-48" type="line"/>
      <point x="96" y="-156"/>
      <point x="72" y="-208"/>
      <point x="24" y="-208" type="curve" smooth="yes"/>
      <point x="-4" y="-208"/>
      <point x="-20" y="-192"/>
      <point x="-43" y="-144" type="curve" smooth="yes"/>
      <point x="-61" y="-108"/>
      <point x="-78" y="-96"/>
      <point x="-109" y="-96" type="curve" smooth="yes"/>
      <point x="-150" y="-96"/>
      <point x="-176" y="-120"/>
      <point x="-176" y="-158" type="curve" smooth="yes"/>
      <point x="-176" y="-219"/>
      <point x="-105" y="-260"/>
      <point x="1" y="-260" type="curve" smooth="yes"/>
      <point x="99" y="-260"/>
      <point x="163" y="-225"/>
      <point x="209" y="-146" type="curve" smooth="yes"/>
      <point x="241" y="-91"/>
      <point x="251" y="-40"/>
      <point x="251" y="69" type="curve" smooth="yes"/>
      <point x="251" y="540" type="line"/>
      <point x="230" y="540" type="line"/>
      <point x="11" y="492" type="line"/>
      <point x="11" y="468" type="line"/>
      <point x="96" y="441" type="line"/>
    </contour>
    <contour>
      <point x="86" y="697" type="curve" smooth="yes"/>
      <point x="86" y="656"/>
      <point x="116" y="615"/>
      <point x="172" y="615" type="curve" smooth="yes"/>
      <point x="231" y="615"/>
      <point x="261" y="656"/>
      <point x="261" y="697" type="curve" smooth="yes"/>
      <point x="261" y="741"/>
      <point x="227" y="780"/>
      <point x="172" y="780" type="curve" smooth="yes"/>
      <point x="118" y="780"/>
      <point x="86" y="741"/>
    </contour>
  </outline>
</glyph>
<glyph name="k" format="1">
  <advance width="668"/>
  <unicode hex="006B"/>
  <outline>
    <contour>
      <point x="305" y="250" type="line"/>
      <point x="450" y="0" type="line"/>
      <point x="682" y="0" type="line"/>
      <point x="682" y="35" type="line"/>
      <point x="600" y="55" type="line"/>
      <point x="396" y="374" type="line"/>
    </contour>
    <contour>
      <point x="255" y="55" type="line"/>
      <point x="255" y="830" type="line"/>
      <point x="233" y="830" type="line"/>
      <point x="15" y="781" type="line"/>
      <point x="15" y="758" type="line"/>
      <point x="100" y="731" type="line"/>
      <point x="100" y="55" type="line"/>
      <point x="15" y="35" type="line"/>
      <point x="15" y="0" type="line"/>
      <point x="342" y="0" type="line"/>
      <point x="342" y="35" type="line"/>
    </contour>
    <contour>
      <point x="357" y="495" type="line"/>
      <point x="425" y="488"/>
      <point x="443" y="483"/>
      <point x="443" y="471" type="curve" smooth="yes"/>
      <point x="443" y="463"/>
      <point x="434" y="452"/>
      <point x="418" y="435" type="curve" smooth="yes"/>
      <point x="203" y="209" type="line"/>
      <point x="225" y="161" type="line"/>
      <point x="496" y="438" type="line" smooth="yes"/>
      <point x="529" y="471"/>
      <point x="543" y="482"/>
      <point x="632" y="495" type="curve"/>
      <point x="632" y="530" type="line"/>
      <point x="357" y="530" type="line"/>
    </contour>
  </outline>
</glyph>
<glyph name="n" format="1">
  <advance width="684"/>
  <unicode hex="006E"/>
  <outline>
    <contour>
      <point x="257" y="55" type="line"/>
      <point x="257" y="450" type="line"/>
      <point x="252" y="455" type="line"/>
      <point x="252" y="540" type="line"/>
      <point x="230" y="540" type="line"/>
      <point x="26" y="491" type="line"/>
      <point x="26" y="468" type="line"/>
      <point x="102" y="440" type="line"/>
      <point x="102" y="55" type="line"/>
      <point x="27" y="35" type="line"/>
      <point x="27" y="0" type="line"/>
      <point x="327" y="0" type="line"/>
      <point x="327" y="35" type="line"/>
    </contour>
    <contour>
      <point x="245" y="396" type="line"/>
      <point x="270" y="434"/>
      <point x="298" y="450"/>
      <point x="338" y="450" type="curve" smooth="yes"/>
      <point x="380" y="450"/>
      <point x="412" y="432"/>
      <point x="426" y="399" type="curve" smooth="yes"/>
      <point x="434" y="381"/>
      <point x="436" y="357"/>
      <point x="436" y="279" type="curve" smooth="yes"/>
      <point x="436" y="55" type="line"/>
      <point x="366" y="35" type="line"/>
      <point x="366" y="0" type="line"/>
      <point x="666" y="0" type="line"/>
      <point x="666" y="35" type="line"/>
      <point x="591" y="55" type="line"/>
      <point x="591" y="318" type="line" smooth="yes"/>
      <point x="591" y="407"/>
      <point x="588" y="434"/>
      <point x="576" y="460" type="curve" smooth="yes"/>
      <point x="551" y="511"/>
      <point x="501" y="540"/>
      <point x="436" y="540" type="curve" smooth="yes"/>
      <point x="366" y="540"/>
      <point x="290" y="508"/>
      <point x="245" y="459" type="curve"/>
    </contour>
  </outline>
</glyph>
<glyph name="o" format="1">
  <advance width="642"/>
  <unicode hex="006F"/>
  <outline>
    <contour>
      <point x="321" y="540" type="curve" smooth="yes"/>
      <point x="138" y="540"/>
      <point x="36" y="416"/>
      <point x="36" y="265" type="curve" smooth="yes"/>
      <point x="36" y="114"/>
      <point x="138" y="-10"/>
      <point x="321" y="-10" type="curve" smooth="yes"/>
      <point x="504" y="-10"/>
      <point x="606" y="114"/>
      <point x="606" y="265" type="curve" smooth="yes"/>
      <point x="606" y="416"/>
      <point x="504" y="540"/>
    </contour>
    <contour>
      <point x="204" y="265" type="curve" smooth="yes"/>
      <point x="204" y="357"/>
      <point x="222" y="488"/>
      <point x="321" y="488" type="curve" smooth="yes"/>
      <point x="420" y="488"/>
      <point x="438" y="357"/>
      <point x="438" y="265" type="curve" smooth="yes"/>
      <point x="438" y="172"/>
      <point x="418" y="41"/>
      <point x="321" y="41" type="curve" smooth="yes"/>
      <point x="222" y="41"/>
      <point x="204" y="172"/>
    </contour>
  </outline>
</glyph>
<glyph name="q" format="1">
  <advance width="663"/>
  <unicode hex="0071"/>
  <outline>
    <contour>
      <point x="295" y="-226" type="line"/>
      <point x="295" y="-250" type="line"/>
      <point x="671" y="-250" type="line"/>
      <point x="671" y="-226" type="line"/>
      <point x="584" y="-200" type="line"/>
      <point x="584" y="528" type="line"/>
      <point x="556" y="528" type="line"/>
      <point x="474" y="494" type="line"/>
      <point x="468" y="494" type="line"/>
      <point x="424" y="524"/>
      <point x="368" y="540"/>
      <point x="314" y="540" type="curve" smooth="yes"/>
      <point x="149" y="540"/>
      <point x="38" y="426"/>
      <point x="38" y="243" type="curve" smooth="yes"/>
      <point x="38" y="93"/>
      <point x="130" y="-10"/>
      <point x="264" y="-10" type="curve" smooth="yes"/>
      <point x="328" y="-10"/>
      <point x="385" y="13"/>
      <point x="430" y="58" type="curve"/>
      <point x="430" y="-200" type="line"/>
    </contour>
    <contour>
      <point x="334" y="486" type="curve" smooth="yes"/>
      <point x="390" y="486"/>
      <point x="430" y="436"/>
      <point x="430" y="360" type="curve" smooth="yes"/>
      <point x="430" y="114" type="line"/>
      <point x="405" y="82"/>
      <point x="370" y="62"/>
      <point x="328" y="62" type="curve" smooth="yes"/>
      <point x="253" y="62"/>
      <point x="211" y="140"/>
      <point x="211" y="271" type="curve" smooth="yes"/>
      <point x="211" y="414"/>
      <point x="259" y="486"/>
    </contour>
  </outline>
</glyph>
<glyph name="r" format="1">
  <advance width="494"/>
  <unicode hex="0072"/>
  <outline>
    <contour>
      <point x="257" y="370" type="line"/>
      <point x="259" y="381"/>
      <point x="257" y="383"/>
      <point x="281" y="414" type="curve" smooth="yes"/>
      <point x="294" y="431"/>
      <point x="311" y="439"/>
      <point x="328" y="439" type="curve" smooth="yes"/>
      <point x="344" y="439"/>
      <point x="358" y="432"/>
      <point x="378" y="415" type="curve" smooth="yes"/>
      <point x="393" y="402"/>
      <point x="409" y="396"/>
      <point x="427" y="396" type="curve" smooth="yes"/>
      <point x="462" y="396"/>
      <point x="489" y="427"/>
      <point x="489" y="467" type="curve" smooth="yes"/>
      <point x="489" y="509"/>
      <point x="452" y="541"/>
      <point x="402" y="541" type="curve" smooth="yes"/>
      <point x="353" y="541"/>
      <point x="300" y="507"/>
      <point x="247" y="444" type="curve"/>
    </contour>
    <contour>
      <point x="257" y="55" type="line"/>
      <point x="257" y="444" type="line"/>
      <point x="252" y="449" type="line"/>
      <point x="252" y="540" type="line"/>
      <point x="231" y="540" type="line"/>
      <point x="26" y="492" type="line"/>
      <point x="26" y="468" type="line"/>
      <point x="102" y="440" type="line"/>
      <point x="102" y="55" type="line"/>
      <point x="27" y="35" type="line"/>
      <point x="27" y="0" type="line"/>
      <point x="388" y="0" type="line"/>
      <point x="388" y="35" type="line"/>
    </contour>
  </outline>
</glyph>
<glyph name="s" format="1">
  <advance width="469"/>
  <unicode hex="0073"/>
  <outline>
    <contour>
      <point x="271" y="540" type="curve" smooth="yes"/>
      <point x="126" y="540"/>
      <point x="51" y="487"/>
      <point x="51" y="386" type="curve" smooth="yes"/>
      <point x="51" y="204"/>
      <point x="294" y="221"/>
      <point x="294" y="112" type="curve" smooth="yes"/>
      <point x="294" y="69"/>
      <point x="260" y="40"/>
      <point x="209" y="40" type="curve" smooth="yes"/>
      <point x="140" y="40"/>
      <point x="99" y="87"/>
      <point x="93" y="174" type="curve"/>
      <point x="50" y="174" type="line"/>
      <point x="56" y="11" type="line"/>
      <point x="98" y="-2"/>
      <point x="161" y="-10"/>
      <point x="212" y="-10" type="curve" smooth="yes"/>
      <point x="349" y="-10"/>
      <point x="429" y="53"/>
      <point x="429" y="161" type="curve" smooth="yes"/>
      <point x="429" y="349"/>
      <point x="188" y="328"/>
      <point x="188" y="430" type="curve" smooth="yes"/>
      <point x="188" y="466"/>
      <point x="218" y="490"/>
      <point x="264" y="490" type="curve" smooth="yes"/>
      <point x="321" y="490"/>
      <point x="355" y="454"/>
      <point x="364" y="384" type="curve"/>
      <point x="403" y="384" type="line"/>
      <point x="403" y="523" type="line"/>
      <point x="374" y="533"/>
      <point x="322" y="540"/>
    </contour>
  </outline>
</glyph>
<glyph name="t" format="1">
  <advance width="406"/>
  <unicode hex="0074"/>
  <outline>
    <contour>
      <point x="237" y="-10" type="curve" smooth="yes"/>
      <point x="304" y="-10"/>
      <point x="362" y="13"/>
      <point x="397" y="57" type="curve"/>
      <point x="374" y="90" type="line"/>
      <point x="356" y="69"/>
      <point x="335" y="62"/>
      <point x="312" y="62" type="curve" smooth="yes"/>
      <point x="288" y="62"/>
      <point x="270" y="72"/>
      <point x="259" y="90" type="curve" smooth="yes"/>
      <point x="251" y="102"/>
      <point x="249" y="117"/>
      <point x="249" y="166" type="curve" smooth="yes"/>
      <point x="249" y="480" type="line"/>
      <point x="389" y="480" type="line"/>
      <point x="404" y="530" type="line"/>
      <point x="249" y="530" type="line"/>
      <point x="249" y="659" type="line"/>
      <point x="218" y="664" type="line"/>
      <point x="17" y="511" type="line"/>
      <point x="23" y="480" type="line"/>
      <point x="94" y="480" type="line"/>
      <point x="94" y="132" type="line" smooth="yes"/>
      <point x="94" y="78"/>
      <point x="102" y="40"/>
      <point x="132" y="18" type="curve" smooth="yes"/>
      <point x="157" y="0"/>
      <point x="197" y="-10"/>
    </contour>
  </outline>
</glyph>
<glyph name="x" format="1">
  <advance width="656"/>
  <unicode hex="0078"/>
  <outline>
    <contour>
      <point x="297" y="441" type="line"/>
      <point x="286" y="455"/>
      <point x="280" y="465"/>
      <point x="280" y="473" type="curve" smooth="yes"/>
      <point x="280" y="487"/>
      <point x="300" y="492"/>
      <point x="341" y="495" type="curve"/>
      <point x="341" y="530" type="line"/>
      <point x="10" y="530" type="line"/>
      <point x="10" y="495" type="line"/>
      <point x="63" y="487"/>
      <point x="77" y="478"/>
      <point x="97" y="452" type="curve" smooth="yes"/>
      <point x="383" y="89" type="line" smooth="yes"/>
      <point x="399" y="68"/>
      <point x="402" y="62"/>
      <point x="402" y="55" type="curve" smooth="yes"/>
      <point x="402" y="43"/>
      <point x="388" y="39"/>
      <point x="333" y="35" type="curve"/>
      <point x="333" y="0" type="line"/>
      <point x="662" y="0" type="line"/>
      <point x="662" y="35" type="line"/>
      <point x="616" y="40"/>
      <point x="602" y="53"/>
      <point x="582" y="78" type="curve" smooth="yes"/>
    </contour>
    <contour>
      <point x="301" y="277" type="line"/>
      <point x="144" y="106" type="line" smooth="yes"/>
      <point x="106" y="65"/>
      <point x="74" y="45"/>
      <point x="2" y="35" type="curve"/>
      <point x="2" y="0" type="line"/>
      <point x="263" y="0" type="line"/>
      <point x="263" y="35" type="line"/>
      <point x="212" y="41"/>
      <point x="189" y="51"/>
      <point x="189" y="68" type="curve" smooth="yes"/>
      <point x="189" y="78"/>
      <point x="195" y="92"/>
      <point x="209" y="107" type="curve" smooth="yes"/>
      <point x="356" y="259" type="line"/>
    </contour>
    <contour>
      <point x="361" y="275" type="line"/>
      <point x="511" y="427" type="line" smooth="yes"/>
      <point x="551" y="467"/>
      <point x="568" y="482"/>
      <point x="638" y="495" type="curve"/>
      <point x="638" y="530" type="line"/>
      <point x="394" y="530" type="line"/>
      <point x="394" y="495" type="line"/>
      <point x="440" y="489"/>
      <point x="460" y="478"/>
      <point x="460" y="460" type="curve" smooth="yes"/>
      <point x="460" y="449"/>
      <point x="453" y="437"/>
      <point x="440" y="423" type="curve" smooth="yes"/>
      <point x="307" y="288" type="line"/>
    </contour>
  </outline>
</glyph>
<glyph name="z" format="1">
  <advance width="571"/>
  <unicode hex="007A"/>
  <outline>
    <contour>
      <point x="72" y="530" type="line"/>
      <point x="53" y="331" type="line"/>
      <point x="92" y="331" type="line"/>
      <point x="100" y="360"/>
      <point x="117" y="399"/>
      <point x="157" y="483" type="curve"/>
      <point x="330" y="483" type="line"/>
      <point x="31" y="33" type="line"/>
      <point x="31" y="0" type="line"/>
      <point x="516" y="0" type="line"/>
      <point x="528" y="194" type="line"/>
      <point x="489" y="194" type="line"/>
      <point x="479" y="158"/>
      <point x="454" y="101"/>
      <point x="425" y="47" type="curve"/>
      <point x="231" y="47" type="line"/>
      <point x="528" y="498" type="line"/>
      <point x="528" y="530" type="line"/>
    </contour>
  </outline>
</glyph>
<glyph name="bar" format="1">
  <advance width="284"/>
  <unicode hex="007C"/>
  <outline>
    <contour>
      <point x="192" y="-159" type="line"/>
      <point x="192" y="819" type="line"/>
      <point x="92" y="819" type="line"/>
      <point x="92" y="-159" type="line"/>
    </contour>
  </outline>
</glyph>
<glyph name="braceright" format="1">
  <advance width="340"/>
  <unicode hex="007D"/>
  <outline>
    <contour>
      <point x="33" y="-136" type="line"/>
      <point x="44" y="-140"/>
      <point x="56" y="-142"/>
      <point x="69" y="-142" type="curve" smooth="yes"/>
      <point x="115" y="-142"/>
      <point x="135" y="-119"/>
      <point x="135" y="-65" type="curve" smooth="yes"/>
      <point x="135" y="-5"/>
      <point x="110" y="125"/>
      <point x="110" y="202" type="curve" smooth="yes"/>
      <point x="110" y="273"/>
      <point x="131" y="308"/>
      <point x="182" y="328" type="curve"/>
      <point x="182" y="332" type="line"/>
      <point x="133" y="351"/>
      <point x="110" y="393"/>
      <point x="110" y="464" type="curve" smooth="yes"/>
      <point x="110" y="538"/>
      <point x="135" y="644"/>
      <point x="135" y="699" type="curve" smooth="yes"/>
      <point x="135" y="751"/>
      <point x="112" y="779"/>
      <point x="69" y="779" type="curve" smooth="yes"/>
      <point x="59" y="779"/>
      <point x="52" y="778"/>
      <point x="33" y="774" type="curve"/>
      <point x="22" y="815" type="line"/>
      <point x="48" y="823"/>
      <point x="80" y="828"/>
      <point x="110" y="828" type="curve" smooth="yes"/>
      <point x="199" y="828"/>
      <point x="248" y="783"/>
      <point x="248" y="701" type="curve" smooth="yes"/>
      <point x="248" y="641"/>
      <point x="222" y="539"/>
      <point x="222" y="463" type="curve" smooth="yes"/>
      <point x="222" y="384"/>
      <point x="249" y="352"/>
      <point x="318" y="352" type="curve"/>
      <point x="318" y="311" type="line"/>
      <point x="247" y="311"/>
      <point x="222" y="281"/>
      <point x="222" y="194" type="curve" smooth="yes"/>
      <point x="222" y="106"/>
      <point x="248" y="2"/>
      <point x="248" y="-70" type="curve" smooth="yes"/>
      <point x="248" y="-158"/>
      <point x="209" y="-194"/>
      <point x="117" y="-194" type="curve" smooth="yes"/>
      <point x="85" y="-194"/>
      <point x="52" y="-189"/>
      <point x="22" y="-180" type="curve"/>
    </contour>
  </outline>
</glyph>
<glyph name="cent" format="1">
  <advance width="537"/>
  <unicode hex="00A2"/>
  <outline>
    <contour>
      <point x="309" y="540" type="curve" smooth="yes"/>
      <point x="153" y="540"/>
      <point x="43" y="423"/>
      <point x="43" y="258" type="curve" smooth="yes"/>
      <point x="43" y="100"/>
      <point x="144" y="-10"/>
      <point x="287" y="-10" type="curve" smooth="yes"/>
      <point x="384" y="-10"/>
      <point x="459" y="40"/>
      <point x="493" y="128" type="curve" smooth="yes"/>
      <point x="498" y="141" type="line"/>
      <point x="479" y="151" type="line"/>
      <point x="468" y="136" type="line" smooth="yes"/>
      <point x="432" y="87"/>
      <point x="377" y="63"/>
      <point x="317" y="63" type="curve" smooth="yes"/>
      <point x="208" y="63"/>
      <point x="145" y="142"/>
      <point x="145" y="278" type="curve" smooth="yes"/>
      <point x="145" y="418"/>
      <point x="217" y="508"/>
      <point x="293" y="508" type="curve" smooth="yes"/>
      <point x="352" y="508"/>
      <point x="385" y="487"/>
      <point x="394" y="428" type="curve" smooth="yes"/>
      <point x="401" y="385"/>
      <point x="418" y="365"/>
      <point x="453" y="365" type="curve" smooth="yes"/>
      <point x="482" y="365"/>
      <point x="499" y="388"/>
      <point x="499" y="422" type="curve" smooth="yes"/>
      <point x="499" y="486"/>
      <point x="417" y="540"/>
    </contour>
    <contour>
      <point x="315" y="670" type="line"/>
      <point x="273" y="670" type="line"/>
      <point x="273" y="-130" type="line"/>
      <point x="315" y="-130" type="line"/>
    </contour>
  </outline>
</glyph>
<glyph name="currency" format="1">
  <advance width="622"/>
  <unicode hex="00A4"/>
  <outline>
    <contour>
      <point x="122" y="124" type="line"/>
      <point x="68" y="178" type="line"/>
      <point x="135" y="244" type="line"/>
      <point x="109" y="276"/>
      <point x="96" y="319"/>
      <point x="96" y="368" type="curve" smooth="yes"/>
      <point x="96" y="415"/>
      <point x="109" y="456"/>
      <point x="135" y="491" type="curve"/>
      <point x="68" y="556" type="line"/>
      <point x="122" y="610" type="line"/>
      <point x="188" y="543" type="line"/>
      <point x="221" y="568"/>
      <point x="264" y="582"/>
      <point x="311" y="582" type="curve" smooth="yes"/>
      <point x="356" y="582"/>
      <point x="398" y="569"/>
      <point x="435" y="544" type="curve"/>
      <point x="500" y="610" type="line"/>
      <point x="554" y="556" type="line"/>
      <point x="487" y="490" type="line"/>
      <point x="513" y="456"/>
      <point x="526" y="415"/>
      <point x="526" y="368" type="curve" smooth="yes"/>
      <point x="526" y="322"/>
      <point x="513" y="280"/>
      <point x="488" y="244" type="curve"/>
      <point x="554" y="178" type="line"/>
      <point x="500" y="124" type="line"/>
      <point x="434" y="191" type="line"/>
      <point x="400" y="165"/>
      <point x="359" y="152"/>
      <point x="311" y="152" type="curve" smooth="yes"/>
      <point x="264" y="152"/>
      <point x="223" y="165"/>
      <point x="188" y="191" type="curve"/>
    </contour>
    <contour>
      <point x="311" y="221" type="curve" smooth="yes"/>
      <point x="387" y="221"/>
      <point x="451" y="287"/>
      <point x="451" y="367" type="curve" smooth="yes"/>
      <point x="451" y="447"/>
      <point x="387" y="513"/>
      <point x="311" y="513" type="curve" smooth="yes"/>
      <point x="235" y="513"/>
      <point x="171" y="447"/>
      <point x="171" y="368" type="curve" smooth="yes"/>
      <point x="171" y="288"/>
      <point x="235" y="221"/>
    </contour>
  </outline>
</glyph>
<glyph name="yen" format="1">
  <advance width="693"/>
  <unicode hex="00A5"/>
  <outline>
    <contour>
      <point x="315" y="243" type="line"/>
      <point x="386" y="243" type="line"/>
      <point x="568" y="636" type="line" smooth="yes"/>
      <point x="604" y="715"/>
      <point x="609" y="722"/>
      <point x="663" y="733" type="curve"/>
      <point x="663" y="770" type="line"/>
      <point x="441" y="770" type="line"/>
      <point x="441" y="733" type="line"/>
      <point x="503" y="728"/>
      <point x="522" y="715"/>
      <point x="522" y="692" type="curve" smooth="yes"/>
      <point x="522" y="686"/>
      <point x="521" y="679"/>
      <point x="517" y="671" type="curve" smooth="yes"/>
      <point x="401" y="431" type="line"/>
      <point x="397" y="431" type="line"/>
      <point x="285" y="670" type="line" smooth="yes"/>
      <point x="281" y="678"/>
      <point x="279" y="685"/>
      <point x="279" y="691" type="curve" smooth="yes"/>
      <point x="279" y="709"/>
      <point x="294" y="723"/>
      <point x="357" y="733" type="curve"/>
      <point x="357" y="770" type="line"/>
      <point x="31" y="770" type="line"/>
      <point x="31" y="733" type="line"/>
      <point x="69" y="729"/>
      <point x="78" y="719"/>
      <point x="94" y="686" type="curve" smooth="yes"/>
    </contour>
    <contour>
      <point x="172" y="0" type="line"/>
      <point x="523" y="0" type="line"/>
      <point x="523" y="37" type="line"/>
      <point x="434" y="58" type="line"/>
      <point x="434" y="344" type="line"/>
      <point x="262" y="344" type="line"/>
      <point x="262" y="58" type="line"/>
      <point x="172" y="37" type="line"/>
    </contour>
    <contour>
      <point x="130" y="210" type="line"/>
      <point x="561" y="210" type="line"/>
      <point x="561" y="270" type="line"/>
      <point x="130" y="270" type="line"/>
    </contour>
    <contour>
      <point x="130" y="320" type="line"/>
      <point x="561" y="320" type="line"/>
      <point x="561" y="381" type="line"/>
      <point x="130" y="381" type="line"/>
    </contour>
  </outline>
</glyph>
<glyph name="brokenbar" format="1">
  <advance width="284"/>
  <unicode hex="00A6"/>
  <outline>
    <contour>
      <point x="190" y="431" type="line"/>
      <point x="190" y="819" type="line"/>
      <point x="94" y="819" type="line"/>
      <point x="94" y="431" type="line"/>
    </contour>
    <contour>
      <point x="190" y="-171" type="line"/>
      <point x="190" y="217" type="line"/>
      <point x="94" y="217" type="line"/>
      <point x="94" y="-171" type="line"/>
    </contour>
  </outline>
</glyph>
<glyph name="section" format="1">
  <advance width="529"/>
  <unicode hex="00A7"/>
  <outline>
    <contour>
      <point x="263" y="829" type="curve" smooth="yes"/>
      <point x="133" y="829"/>
      <point x="59" y="769"/>
      <point x="59" y="665" type="curve" smooth="yes"/>
      <point x="59" y="573"/>
      <point x="117" y="521"/>
      <point x="180" y="479" type="curve"/>
      <point x="101" y="455"/>
      <point x="58" y="401"/>
      <point x="58" y="324" type="curve" smooth="yes"/>
      <point x="58" y="128"/>
      <point x="337" y="120"/>
      <point x="337" y="-24" type="curve" smooth="yes"/>
      <point x="337" y="-73"/>
      <point x="305" y="-107"/>
      <point x="265" y="-107" type="curve" smooth="yes"/>
      <point x="227" y="-107"/>
      <point x="207" y="-94"/>
      <point x="190" y="-42" type="curve" smooth="yes"/>
      <point x="173" y="9"/>
      <point x="155" y="27"/>
      <point x="124" y="27" type="curve" smooth="yes"/>
      <point x="85" y="27"/>
      <point x="57" y="-1"/>
      <point x="57" y="-40" type="curve" smooth="yes"/>
      <point x="57" y="-108"/>
      <point x="142" y="-157"/>
      <point x="259" y="-157" type="curve" smooth="yes"/>
      <point x="393" y="-157"/>
      <point x="471" y="-92"/>
      <point x="471" y="19" type="curve" smooth="yes"/>
      <point x="471" y="108"/>
      <point x="420" y="160"/>
      <point x="362" y="200" type="curve"/>
      <point x="433" y="228"/>
      <point x="472" y="283"/>
      <point x="472" y="360" type="curve" smooth="yes"/>
      <point x="472" y="563"/>
      <point x="195" y="564"/>
      <point x="195" y="706" type="curve" smooth="yes"/>
      <point x="195" y="751"/>
      <point x="223" y="780"/>
      <point x="267" y="780" type="curve" smooth="yes"/>
      <point x="301" y="780"/>
      <point x="315" y="766"/>
      <point x="333" y="715" type="curve" smooth="yes"/>
      <point x="349" y="666"/>
      <point x="368" y="646"/>
      <point x="400" y="646" type="curve" smooth="yes"/>
      <point x="438" y="646"/>
      <point x="466" y="674"/>
      <point x="466" y="713" type="curve" smooth="yes"/>
      <point x="466" y="780"/>
      <point x="381" y="829"/>
    </contour>
    <contour>
      <point x="338" y="317" type="curve" smooth="yes"/>
      <point x="338" y="283"/>
      <point x="322" y="257"/>
      <point x="295" y="243" type="curve"/>
      <point x="240" y="277"/>
      <point x="194" y="310"/>
      <point x="194" y="366" type="curve" smooth="yes"/>
      <point x="194" y="401"/>
      <point x="212" y="424"/>
      <point x="250" y="435" type="curve"/>
      <point x="299" y="402"/>
      <point x="338" y="368"/>
    </contour>
  </outline>
</glyph>
<glyph name="logicalnot" format="1">
  <advance width="548"/>
  <unicode hex="00AC"/>
  <outline>
    <contour>
      <point x="480" y="245" type="line" name="hr00"/>
      <point x="480" y="308" type="line"/>
      <point x="70" y="308" type="line"/>
      <point x="70" y="245" type="line"/>
    </contour>
    <contour>
      <point x="409" y="137" type="line"/>
      <point x="480" y="137" type="line"/>
      <point x="480" y="282" type="line"/>
      <point x="409" y="282" type="line"/>
    </contour>
  </outline>
</glyph>
<glyph name="registered" format="1">
  <advance width="672"/>
  <unicode hex="00AE"/>
  <outline>
    <contour>
      <point x="58" y="504" type="curve" smooth="yes"/>
      <point x="58" y="351"/>
      <point x="183" y="227"/>
      <point x="336" y="227" type="curve" smooth="yes"/>
      <point x="489" y="227"/>
      <point x="614" y="351"/>
      <point x="614" y="504" type="curve" smooth="yes"/>
      <point x="614" y="657"/>
      <point x="489" y="780"/>
      <point x="336" y="780" type="curve" smooth="yes"/>
      <point x="183" y="780"/>
      <point x="58" y="657"/>
    </contour>
    <contour>
      <point x="106" y="504" type="curve" smooth="yes"/>
      <point x="106" y="633"/>
      <point x="207" y="739"/>
      <point x="336" y="739" type="curve" smooth="yes"/>
      <point x="465" y="739"/>
      <point x="566" y="633"/>
      <point x="566" y="504" type="curve" smooth="yes"/>
      <point x="566" y="375"/>
      <point x="465" y="269"/>
      <point x="336" y="269" type="curve" smooth="yes"/>
      <point x="207" y="269"/>
      <point x="106" y="375"/>
    </contour>
    <contour>
      <point x="232" y="643" type="line"/>
      <point x="252" y="636" type="line"/>
      <point x="252" y="401" type="line"/>
      <point x="232" y="394" type="line"/>
      <point x="232" y="377" type="line"/>
      <point x="336" y="377" type="line"/>
      <point x="336" y="394" type="line"/>
      <point x="309" y="401" type="line"/>
      <point x="309" y="503" type="line"/>
      <point x="333" y="503" type="line"/>
      <point x="380" y="377" type="line"/>
      <point x="466" y="377" type="line"/>
      <point x="466" y="394" type="line"/>
      <point x="439" y="401" type="line"/>
      <point x="392" y="511" type="line"/>
      <point x="423" y="523"/>
      <point x="441" y="545"/>
      <point x="441" y="577" type="curve" smooth="yes"/>
      <point x="441" y="627"/>
      <point x="397" y="655"/>
      <point x="338" y="655" type="curve" smooth="yes"/>
      <point x="232" y="655" type="line"/>
    </contour>
    <contour>
      <point x="309" y="630" type="line"/>
      <point x="356" y="630"/>
      <point x="381" y="614"/>
      <point x="381" y="581" type="curve" smooth="yes"/>
      <point x="381" y="540"/>
      <point x="341" y="528"/>
      <point x="309" y="528" type="curve"/>
    </contour>
  </outline>
</glyph>
<glyph name="plusminus" format="1">
  <advance width="556"/>
  <unicode hex="00B1"/>
  <outline>
    <contour>
      <point x="483" y="414" type="line"/>
      <point x="483" y="479" type="line"/>
      <point x="73" y="479" type="line"/>
      <point x="73" y="414" type="line"/>
    </contour>
    <contour>
      <point x="245" y="241" type="line"/>
      <point x="312" y="241" type="line"/>
      <point x="312" y="651" type="line"/>
      <point x="245" y="651" type="line"/>
    </contour>
    <contour>
      <point x="483" y="98" type="line"/>
      <point x="483" y="163" type="line"/>
      <point x="73" y="163" type="line"/>
      <point x="73" y="98" type="line"/>
    </contour>
  </outline>
</glyph>
<glyph name="twosuperior" format="1">
  <advance width="464"/>
  <unicode hex="00B2"/>
  <outline>
    <contour>
      <point x="320" y="419" type="line"/>
      <point x="339" y="396" type="line"/>
      <point x="367" y="396" type="line"/>
      <point x="433" y="569" type="line"/>
      <point x="392" y="575" type="line"/>
      <point x="372" y="545"/>
      <point x="358" y="524"/>
      <point x="340" y="510" type="curve"/>
      <point x="170" y="510" type="line"/>
      <point x="365" y="636"/>
      <point x="425" y="707"/>
      <point x="425" y="786" type="curve" smooth="yes"/>
      <point x="425" y="867"/>
      <point x="342" y="928"/>
      <point x="234" y="928" type="curve" smooth="yes"/>
      <point x="142" y="928"/>
      <point x="66" y="881"/>
      <point x="28" y="802" type="curve"/>
      <point x="66" y="787" type="line"/>
      <point x="92" y="831"/>
      <point x="144" y="863"/>
      <point x="190" y="863" type="curve" smooth="yes"/>
      <point x="243" y="863"/>
      <point x="277" y="828"/>
      <point x="277" y="773" type="curve" smooth="yes"/>
      <point x="277" y="697"/>
      <point x="208" y="612"/>
      <point x="23" y="462" type="curve"/>
      <point x="30" y="419" type="line"/>
    </contour>
  </outline>
</glyph>
<glyph name="mu" format="1">
  <advance width="675"/>
  <unicode hex="00B5"/>
  <outline>
    <contour>
      <point x="416" y="-10" type="line"/>
      <point x="438" y="-10" type="line"/>
      <point x="641" y="39" type="line"/>
      <point x="641" y="62" type="line"/>
      <point x="565" y="90" type="line"/>
      <point x="565" y="530" type="line"/>
      <point x="410" y="530" type="line"/>
      <point x="410" y="110" type="line"/>
      <point x="389" y="91"/>
      <point x="362" y="81"/>
      <point x="331" y="81" type="curve" smooth="yes"/>
      <point x="294" y="81"/>
      <point x="270" y="95"/>
      <point x="258" y="123" type="curve" smooth="yes"/>
      <point x="249" y="142"/>
      <point x="246" y="169"/>
      <point x="246" y="234" type="curve" smooth="yes"/>
      <point x="246" y="530" type="line"/>
      <point x="91" y="530" type="line"/>
      <point x="91" y="127" type="line" smooth="yes"/>
      <point x="91" y="36"/>
      <point x="76" y="-87"/>
      <point x="76" y="-143" type="curve" smooth="yes"/>
      <point x="76" y="-219"/>
      <point x="103" y="-260"/>
      <point x="153" y="-260" type="curve" smooth="yes"/>
      <point x="200" y="-260"/>
      <point x="233" y="-224"/>
      <point x="233" y="-172" type="curve" smooth="yes"/>
      <point x="233" y="-95"/>
      <point x="192" y="-51"/>
      <point x="192" y="70" type="curve"/>
      <point x="195" y="72" type="line"/>
      <point x="212" y="17"/>
      <point x="246" y="-10"/>
      <point x="299" y="-10" type="curve" smooth="yes"/>
      <point x="346" y="-10"/>
      <point x="384" y="12"/>
      <point x="412" y="56" type="curve"/>
      <point x="416" y="55" type="line"/>
    </contour>
  </outline>
</glyph>
<glyph name="guillemotright" format="1">
  <advance width="489"/>
  <unicode hex="00BB"/>
  <outline>
    <contour>
      <point x="261" y="68" type="line"/>
      <point x="317" y="246" type="line"/>
      <point x="263" y="423" type="line"/>
      <point x="293" y="436" type="line"/>
      <point x="440" y="255" type="line"/>
      <point x="440" y="236" type="line"/>
      <point x="291" y="53" type="line"/>
    </contour>
    <contour>
      <point x="68" y="68" type="line"/>
      <point x="124" y="246" type="line"/>
      <point x="70" y="423" type="line"/>
      <point x="100" y="436" type="line"/>
      <point x="247" y="255" type="line"/>
      <point x="247" y="236" type="line"/>
      <point x="98" y="53" type="line"/>
    </contour>
  </outline>
</glyph>
<glyph name="questiondown" format="1">
  <advance width="446"/>
  <unicode hex="00BF"/>
  <outline>
    <contour>
      <point x="323" y="290" type="line"/>
      <point x="323" y="59" type="line"/>
      <point x="267" y="59" type="line" smooth="yes"/>
      <point x="147" y="59"/>
      <point x="85" y="33"/>
      <point x="85" y="-11" type="curve" smooth="yes"/>
      <point x="85" y="-42"/>
      <point x="101" y="-58"/>
      <point x="213" y="-100" type="curve" smooth="yes"/>
      <point x="309" y="-136"/>
      <point x="340" y="-166"/>
      <point x="340" y="-201" type="curve" smooth="yes"/>
      <point x="340" y="-241"/>
      <point x="317" y="-260"/>
      <point x="272" y="-260" type="curve" smooth="yes"/>
      <point x="135" y="-260"/>
      <point x="33" y="-165"/>
      <point x="33" y="-9" type="curve" smooth="yes"/>
      <point x="33" y="117"/>
      <point x="103" y="191"/>
      <point x="224" y="195" type="curve" smooth="yes"/>
      <point x="254" y="196" type="line"/>
      <point x="254" y="290" type="line"/>
    </contour>
    <contour>
      <point x="376" y="448" type="curve"/>
      <point x="376" y="489"/>
      <point x="346" y="530"/>
      <point x="290" y="530" type="curve" smooth="yes"/>
      <point x="231" y="530"/>
      <point x="201" y="489"/>
      <point x="201" y="448" type="curve" smooth="yes"/>
      <point x="201" y="404"/>
      <point x="235" y="365"/>
      <point x="290" y="365" type="curve" smooth="yes"/>
      <point x="344" y="365"/>
      <point x="376" y="404"/>
    </contour>
  </outline>
</glyph>
<glyph name="multiply" format="1">
  <advance width="484"/>
  <unicode hex="00D7"/>
  <outline>
    <contour>
      <point x="377" y="156" type="line"/>
      <point x="426" y="205" type="line"/>
      <point x="108" y="523" type="line"/>
      <point x="59" y="474" type="line"/>
    </contour>
    <contour>
      <point x="58" y="205" type="line"/>
      <point x="108" y="154" type="line"/>
      <point x="427" y="473" type="line"/>
      <point x="376" y="523" type="line"/>
    </contour>
  </outline>
</glyph>
<glyph name="Thorn" format="1">
  <advance width="696"/>
  <unicode hex="00DE"/>
  <outline>
    <contour>
      <point x="424" y="733" type="line"/>
      <point x="424" y="770" type="line"/>
      <point x="42" y="770" type="line"/>
      <point x="42" y="733" type="line"/>
      <point x="127" y="711" type="line"/>
      <point x="127" y="59" type="line"/>
      <point x="42" y="37" type="line"/>
      <point x="42" y="0" type="line"/>
      <point x="424" y="0" type="line"/>
      <point x="424" y="37" type="line"/>
      <point x="299" y="59" type="line"/>
      <point x="299" y="163" type="line"/>
      <point x="359" y="163" type="line" smooth="yes"/>
      <point x="556" y="163"/>
      <point x="669" y="244"/>
      <point x="669" y="385" type="curve" smooth="yes"/>
      <point x="669" y="525"/>
      <point x="555" y="613"/>
      <point x="375" y="613" type="curve" smooth="yes"/>
      <point x="299" y="613" type="line"/>
      <point x="299" y="711" type="line"/>
    </contour>
    <contour>
      <point x="299" y="559" type="line"/>
      <point x="324" y="559" type="line" smooth="yes"/>
      <point x="385" y="559"/>
      <point x="423" y="548"/>
      <point x="448" y="523" type="curve" smooth="yes"/>
      <point x="473" y="498"/>
      <point x="486" y="455"/>
      <point x="486" y="394" type="curve" smooth="yes"/>
      <point x="486" y="329"/>
      <point x="472" y="287"/>
      <point x="441" y="258" type="curve" smooth="yes"/>
      <point x="411" y="230"/>
      <point x="368" y="217"/>
      <point x="306" y="217" type="curve" smooth="yes"/>
      <point x="299" y="217" type="line"/>
    </contour>
  </outline>
</glyph>
<glyph name="germandbls" format="1">
  <advance width="756"/>
  <unicode hex="00DF"/>
  <outline>
    <contour>
      <point x="390" y="830" type="curve" smooth="yes"/>
      <point x="270" y="830"/>
      <point x="169" y="780"/>
      <point x="134" y="703" type="curve" smooth="yes"/>
      <point x="118" y="669"/>
      <point x="113" y="622"/>
      <point x="113" y="516" type="curve" smooth="yes"/>
      <point x="113" y="55" type="line"/>
      <point x="28" y="35" type="line"/>
      <point x="28" y="0" type="line"/>
      <point x="341" y="0" type="line"/>
      <point x="341" y="35" type="line"/>
      <point x="268" y="55" type="line"/>
      <point x="268" y="585" type="line" smooth="yes"/>
      <point x="268" y="733"/>
      <point x="292" y="779"/>
      <point x="369" y="779" type="curve" smooth="yes"/>
      <point x="435" y="779"/>
      <point x="468" y="746"/>
      <point x="468" y="681" type="curve" smooth="yes"/>
      <point x="468" y="569"/>
      <point x="372" y="484"/>
      <point x="372" y="377" type="curve" smooth="yes"/>
      <point x="372" y="219"/>
      <point x="595" y="225"/>
      <point x="595" y="120" type="curve" smooth="yes"/>
      <point x="595" y="73"/>
      <point x="564" y="40"/>
      <point x="520" y="40" type="curve" smooth="yes"/>
      <point x="463" y="40"/>
      <point x="429" y="88"/>
      <point x="424" y="174" type="curve"/>
      <point x="381" y="174" type="line"/>
      <point x="387" y="11" type="line"/>
      <point x="422" y="-2"/>
      <point x="476" y="-10"/>
      <point x="524" y="-10" type="curve" smooth="yes"/>
      <point x="656" y="-10"/>
      <point x="730" y="57"/>
      <point x="730" y="174" type="curve" smooth="yes"/>
      <point x="730" y="369"/>
      <point x="489" y="350"/>
      <point x="489" y="443" type="curve" smooth="yes"/>
      <point x="489" y="509"/>
      <point x="605" y="570"/>
      <point x="605" y="680" type="curve" smooth="yes"/>
      <point x="605" y="772"/>
      <point x="522" y="830"/>
    </contour>
    <contour>
      <point x="23" y="463" type="line"/>
      <point x="234" y="463" type="line"/>
      <point x="248" y="510" type="line"/>
      <point x="37" y="510" type="line"/>
    </contour>
  </outline>
</glyph>
<glyph name="ae" format="1">
  <advance width="898"/>
  <unicode hex="00E6"/>
  <outline>
    <contour>
      <point x="174" y="-10" type="curve" smooth="yes"/>
      <point x="246" y="-10"/>
      <point x="305" y="20"/>
      <point x="377" y="92" type="curve"/>
      <point x="381" y="92" type="line"/>
      <point x="429" y="26"/>
      <point x="508" y="-10"/>
      <point x="603" y="-10" type="curve" smooth="yes"/>
      <point x="717" y="-10"/>
      <point x="809" y="43"/>
      <point x="846" y="131" type="curve" smooth="yes"/>
      <point x="851" y="143" type="line"/>
      <point x="823" y="167" type="line"/>
      <point x="816" y="159" type="line" smooth="yes"/>
      <point x="780" y="118"/>
      <point x="718" y="93"/>
      <point x="653" y="93" type="curve" smooth="yes"/>
      <point x="549" y="93"/>
      <point x="497" y="158"/>
      <point x="496" y="290" type="curve"/>
      <point x="860" y="290" type="line"/>
      <point x="868" y="296" type="line"/>
      <point x="863" y="457"/>
      <point x="781" y="540"/>
      <point x="630" y="540" type="curve" smooth="yes"/>
      <point x="564" y="540"/>
      <point x="506" y="525"/>
      <point x="458" y="495" type="curve"/>
      <point x="429" y="527"/>
      <point x="391" y="540"/>
      <point x="327" y="540" type="curve" smooth="yes"/>
      <point x="252" y="540"/>
      <point x="186" y="522"/>
      <point x="137" y="490" type="curve" smooth="yes"/>
      <point x="88" y="457"/>
      <point x="58" y="411"/>
      <point x="58" y="370" type="curve" smooth="yes"/>
      <point x="58" y="331"/>
      <point x="85" y="303"/>
      <point x="124" y="303" type="curve" smooth="yes"/>
      <point x="163" y="303"/>
      <point x="193" y="332"/>
      <point x="193" y="370" type="curve" smooth="yes"/>
      <point x="193" y="384"/>
      <point x="189" y="399"/>
      <point x="189" y="414" type="curve" smooth="yes"/>
      <point x="189" y="456"/>
      <point x="220" y="482"/>
      <point x="270" y="482" type="curve" smooth="yes"/>
      <point x="318" y="482"/>
      <point x="331" y="458"/>
      <point x="331" y="367" type="curve" smooth="yes"/>
      <point x="331" y="294" type="line"/>
      <point x="128" y="266"/>
      <point x="38" y="208"/>
      <point x="38" y="107" type="curve" smooth="yes"/>
      <point x="38" y="33"/>
      <point x="87" y="-10"/>
    </contour>
    <contour>
      <point x="618" y="489" type="curve" smooth="yes"/>
      <point x="675" y="489"/>
      <point x="706" y="452"/>
      <point x="706" y="385" type="curve" smooth="yes"/>
      <point x="706" y="370"/>
      <point x="704" y="355"/>
      <point x="702" y="345" type="curve"/>
      <point x="498" y="337" type="line"/>
      <point x="506" y="435"/>
      <point x="549" y="489"/>
    </contour>
    <contour>
      <point x="265" y="84" type="curve" smooth="yes"/>
      <point x="228" y="84"/>
      <point x="205" y="107"/>
      <point x="205" y="146" type="curve" smooth="yes"/>
      <point x="205" y="198"/>
      <point x="244" y="230"/>
      <point x="330" y="247" type="curve"/>
      <point x="331" y="206"/>
      <point x="340" y="165"/>
      <point x="357" y="130" type="curve"/>
      <point x="325" y="99"/>
      <point x="295" y="84"/>
    </contour>
  </outline>
</glyph>
<glyph name="divide" format="1">
  <advance width="502"/>
  <unicode hex="00F7"/>
  <outline>
    <contour>
      <point x="163" y="520" type="curve" smooth="yes"/>
      <point x="163" y="479"/>
      <point x="192" y="438"/>
      <point x="248" y="438" type="curve" smooth="yes"/>
      <point x="307" y="438"/>
      <point x="337" y="479"/>
      <point x="337" y="520" type="curve" smooth="yes"/>
      <point x="337" y="564"/>
      <point x="303" y="603"/>
      <point x="248" y="603" type="curve" smooth="yes"/>
      <point x="194" y="603"/>
      <point x="163" y="564"/>
    </contour>
    <contour>
      <point x="163" y="164" type="curve" smooth="yes"/>
      <point x="163" y="123"/>
      <point x="192" y="82"/>
      <point x="248" y="82" type="curve" smooth="yes"/>
      <point x="307" y="82"/>
      <point x="337" y="123"/>
      <point x="337" y="164" type="curve" smooth="yes"/>
      <point x="337" y="208"/>
      <point x="303" y="247"/>
      <point x="248" y="247" type="curve" smooth="yes"/>
      <point x="194" y="247"/>
      <point x="163" y="208"/>
    </contour>
    <component base="minus" xOffset="-22"/>
  </outline>
</glyph>
<glyph name="thorn" format="1">
  <advance width="659"/>
  <unicode hex="00FE"/>
  <outline>
    <contour>
      <point x="331" y="44" type="curve" smooth="yes"/>
      <point x="404" y="44"/>
      <point x="452" y="130"/>
      <point x="452" y="260" type="curve" smooth="yes"/>
      <point x="452" y="387"/>
      <point x="407" y="462"/>
      <point x="331" y="462" type="curve" smooth="yes"/>
      <point x="293" y="462"/>
      <point x="259" y="442"/>
      <point x="234" y="404" type="curve"/>
      <point x="234" y="154" type="line" smooth="yes"/>
      <point x="234" y="92"/>
      <point x="277" y="44"/>
    </contour>
    <contour>
      <point x="329" y="-10" type="curve" smooth="yes"/>
      <point x="294" y="-10"/>
      <point x="265" y="-5"/>
      <point x="234" y="5" type="curve"/>
      <point x="234" y="-200" type="line"/>
      <point x="368" y="-226" type="line"/>
      <point x="368" y="-250" type="line"/>
      <point x="-8" y="-250" type="line"/>
      <point x="-8" y="-226" type="line"/>
      <point x="79" y="-200" type="line"/>
      <point x="79" y="731" type="line"/>
      <point x="-5" y="758" type="line"/>
      <point x="-5" y="781" type="line"/>
      <point x="212" y="830" type="line"/>
      <point x="234" y="830" type="line"/>
      <point x="234" y="469" type="line"/>
      <point x="282" y="516"/>
      <point x="339" y="540"/>
      <point x="402" y="540" type="curve" smooth="yes"/>
      <point x="533" y="540"/>
      <point x="621" y="436"/>
      <point x="621" y="282" type="curve" smooth="yes"/>
      <point x="621" y="105"/>
      <point x="506" y="-10"/>
    </contour>
  </outline>
</glyph>
<glyph name="hbar" format="1">
  <advance width="681"/>
  <unicode hex="0127"/>
  <outline>
    <contour>
      <point x="382" y="599" type="line"/>
      <point x="382" y="684" type="line"/>
      <point x="35" y="684" type="line"/>
      <point x="35" y="599" type="line"/>
    </contour>
    <component base="h"/>
  </outline>
</glyph>
<glyph name="lslash" format="1">
  <advance width="360"/>
  <unicode hex="0142"/>
  <outline>
    <contour>
      <point x="29" y="286" type="line"/>
      <point x="341" y="452" type="line"/>
      <point x="341" y="547" type="line"/>
      <point x="29" y="381" type="line"/>
    </contour>
    <component base="l" xOffset="2"/>
  </outline>
</glyph>
<glyph name="Eng" format="1">
  <advance width="877"/>
  <unicode hex="014A"/>
  <outline>
    <contour>
      <point x="586" y="155" type="line"/>
      <point x="586" y="-43" type="line" smooth="yes"/>
      <point x="586" y="-151"/>
      <point x="554" y="-203"/>
      <point x="514" y="-203" type="curve" smooth="yes"/>
      <point x="490" y="-203"/>
      <point x="473" y="-184"/>
      <point x="458" y="-139" type="curve" smooth="yes"/>
      <point x="445" y="-103"/>
      <point x="426" y="-77"/>
      <point x="385" y="-77" type="curve" smooth="yes"/>
      <point x="345" y="-77"/>
      <point x="313" y="-103"/>
      <point x="313" y="-153" type="curve" smooth="yes"/>
      <point x="313" y="-218"/>
      <point x="374" y="-260"/>
      <point x="482" y="-260" type="curve" smooth="yes"/>
      <point x="576" y="-260"/>
      <point x="671" y="-215"/>
      <point x="724" y="-131" type="curve"/>
      <point x="753" y="-78"/>
      <point x="758" y="-41"/>
      <point x="758" y="155" type="curve"/>
    </contour>
    <contour>
      <point x="128" y="56" type="line"/>
      <point x="39" y="37" type="line"/>
      <point x="39" y="0" type="line"/>
      <point x="285" y="0" type="line"/>
      <point x="285" y="37" type="line"/>
      <point x="197" y="56" type="line"/>
      <point x="197" y="770" type="line"/>
      <point x="40" y="770" type="line"/>
      <point x="40" y="733" type="line"/>
      <point x="128" y="714" type="line"/>
    </contour>
    <contour>
      <point x="758" y="714" type="line"/>
      <point x="847" y="733" type="line"/>
      <point x="847" y="770" type="line"/>
      <point x="601" y="770" type="line"/>
      <point x="601" y="733" type="line"/>
      <point x="689" y="714" type="line"/>
      <point x="689" y="140" type="line"/>
      <point x="758" y="140" type="line"/>
    </contour>
    <contour>
      <point x="689" y="-10" type="line"/>
      <point x="717" y="260" type="line"/>
      <point x="311" y="770" type="line"/>
      <point x="146" y="770" type="line"/>
      <point x="141" y="681" type="line"/>
    </contour>
  </outline>
</glyph>
<glyph name="Tbar" format="1">
  <advance width="780"/>
  <unicode hex="0166"/>
  <outline>
    <contour>
      <point x="637" y="367" type="line"/>
      <point x="637" y="452" type="line"/>
      <point x="147" y="452" type="line"/>
      <point x="147" y="367" type="line"/>
    </contour>
    <component base="T" xOffset="1"/>
  </outline>
</glyph>
<glyph name="Schwa" format="1">
  <advance width="792"/>
  <unicode hex="018F"/>
  <outline>
    <contour>
      <point x="33" y="315" type="line"/>
      <point x="36" y="106"/>
      <point x="148" y="-10"/>
      <point x="349" y="-10" type="curve" smooth="yes"/>
      <point x="587" y="-10"/>
      <point x="746" y="153"/>
      <point x="746" y="396" type="curve" smooth="yes"/>
      <point x="746" y="626"/>
      <point x="604" y="781"/>
      <point x="395" y="781" type="curve" smooth="yes"/>
      <point x="247" y="781"/>
      <point x="112" y="704"/>
      <point x="68" y="593" type="curve" smooth="yes"/>
      <point x="60" y="573" type="line"/>
      <point x="90" y="553" type="line"/>
      <point x="108" y="575" type="line" smooth="yes"/>
      <point x="158" y="636"/>
      <point x="248" y="676"/>
      <point x="337" y="676" type="curve" smooth="yes"/>
      <point x="480" y="676"/>
      <point x="551" y="571"/>
      <point x="551" y="360" type="curve" smooth="yes"/>
      <point x="551" y="157"/>
      <point x="485" y="50"/>
      <point x="359" y="50" type="curve" smooth="yes"/>
      <point x="270" y="50"/>
      <point x="221" y="105"/>
      <point x="221" y="205" type="curve" smooth="yes"/>
      <point x="221" y="222"/>
      <point x="223" y="243"/>
      <point x="225" y="259" type="curve"/>
      <point x="625" y="273" type="line"/>
      <point x="625" y="324" type="line"/>
      <point x="44" y="324" type="line"/>
    </contour>
  </outline>
</glyph>
<glyph name="circumflex" format="1">
  <advance width="326"/>
  <unicode hex="02C6"/>
  <outline>
    <contour>
      <point x="164" y="859" type="curve" smooth="yes"/>
      <point x="132" y="859"/>
      <point x="111" y="845"/>
      <point x="94" y="811" type="curve" smooth="yes"/>
      <point x="10" y="642" type="line"/>
      <point x="41" y="630" type="line"/>
      <point x="163" y="746" type="line"/>
      <point x="285" y="630" type="line"/>
      <point x="316" y="642" type="line"/>
      <point x="230" y="811" type="line" smooth="yes"/>
      <point x="212" y="846"/>
      <point x="195" y="859"/>
    </contour>
    <contour>
      <point x="163" y="651" type="move" name="_top"/>
    </contour>
  </outline>
</glyph>
<glyph name="caron" format="1">
  <advance width="326"/>
  <unicode hex="02C7"/>
  <outline>
    <contour>
      <point x="164" y="630" type="curve" smooth="yes"/>
      <point x="195" y="630"/>
      <point x="212" y="643"/>
      <point x="230" y="678" type="curve" smooth="yes"/>
      <point x="316" y="847" type="line"/>
      <point x="285" y="859" type="line"/>
      <point x="163" y="743" type="line"/>
      <point x="41" y="859" type="line"/>
      <point x="10" y="847" type="line"/>
      <point x="94" y="678" type="line" smooth="yes"/>
      <point x="111" y="644"/>
      <point x="132" y="630"/>
    </contour>
    <contour>
      <point x="163" y="651" type="move" name="_top"/>
    </contour>
  </outline>
</glyph>
<glyph name="breve" format="1">
  <advance width="324"/>
  <unicode hex="02D8"/>
  <outline>
    <contour>
      <point x="60" y="790" type="line"/>
      <point x="76" y="758"/>
      <point x="117" y="745"/>
      <point x="161" y="745" type="curve" smooth="yes"/>
      <point x="203" y="745"/>
      <point x="243" y="758"/>
      <point x="265" y="790" type="curve"/>
      <point x="314" y="790" type="line"/>
      <point x="280" y="657"/>
      <point x="203" y="641"/>
      <point x="157" y="641" type="curve" smooth="yes"/>
      <point x="95" y="641"/>
      <point x="22" y="679"/>
      <point x="10" y="790" type="curve"/>
    </contour>
    <contour>
      <point x="161" y="651" type="move" name="_top"/>
    </contour>
  </outline>
</glyph>
<glyph name="ogonek" format="1">
  <advance width="252"/>
  <unicode hex="02DB"/>
  <outline>
    <contour>
      <point x="227" y="-160" type="line"/>
      <point x="205" y="-175"/>
      <point x="190" y="-181"/>
      <point x="171" y="-181" type="curve" smooth="yes"/>
      <point x="139" y="-181"/>
      <point x="123" y="-162"/>
      <point x="123" y="-124" type="curve" smooth="yes"/>
      <point x="123" y="-85"/>
      <point x="147" y="-41"/>
      <point x="197" y="11" type="curve"/>
      <point x="139" y="11" type="line"/>
      <point x="59" y="-45"/>
      <point x="10" y="-113"/>
      <point x="10" y="-168" type="curve" smooth="yes"/>
      <point x="10" y="-222"/>
      <point x="50" y="-256"/>
      <point x="112" y="-256" type="curve" smooth="yes"/>
      <point x="163" y="-256"/>
      <point x="204" y="-239"/>
      <point x="242" y="-202" type="curve"/>
    </contour>
    <contour>
      <point x="157" y="0" type="move" name="_bottom"/>
    </contour>
  </outline>
</glyph>
<glyph name="tilde" format="1">
  <advance width="347"/>
  <unicode hex="02DC"/>
  <outline>
    <contour>
      <point x="10" y="663" type="line"/>
      <point x="10" y="757"/>
      <point x="55" y="808"/>
      <point x="117" y="808" type="curve" smooth="yes"/>
      <point x="169" y="808"/>
      <point x="192" y="772"/>
      <point x="238" y="772" type="curve" smooth="yes"/>
      <point x="270" y="772"/>
      <point x="292" y="786"/>
      <point x="298" y="810" type="curve"/>
      <point x="337" y="810" type="line"/>
      <point x="337" y="718"/>
      <point x="303" y="662"/>
      <point x="235" y="662" type="curve" smooth="yes"/>
      <point x="179" y="662"/>
      <point x="160" y="701"/>
      <point x="110" y="701" type="curve" smooth="yes"/>
      <point x="75" y="701"/>
      <point x="53" y="686"/>
      <point x="49" y="663" type="curve"/>
    </contour>
    <contour>
      <point x="178" y="651" type="move" name="_top"/>
    </contour>
  </outline>
</glyph>
<glyph name="hungarumlaut" format="1">
  <advance width="355"/>
  <unicode hex="02DD"/>
  <outline>
    <contour>
      <point x="184" y="642" type="line"/>
      <point x="225" y="793" type="line" smooth="yes"/>
      <point x="237" y="836"/>
      <point x="261" y="859"/>
      <point x="300" y="859" type="curve" smooth="yes"/>
      <point x="327" y="859"/>
      <point x="345" y="841"/>
      <point x="345" y="814" type="curve" smooth="yes"/>
      <point x="345" y="794"/>
      <point x="335" y="768"/>
      <point x="312" y="742" type="curve" smooth="yes"/>
      <point x="215" y="631" type="line"/>
    </contour>
    <contour>
      <point x="10" y="642" type="line"/>
      <point x="51" y="793" type="line" smooth="yes"/>
      <point x="63" y="836"/>
      <point x="87" y="859"/>
      <point x="126" y="859" type="curve" smooth="yes"/>
      <point x="153" y="859"/>
      <point x="171" y="841"/>
      <point x="171" y="814" type="curve" smooth="yes"/>
      <point x="171" y="794"/>
      <point x="161" y="768"/>
      <point x="138" y="742" type="curve" smooth="yes"/>
      <point x="41" y="631" type="line"/>
    </contour>
    <contour>
      <point x="150" y="651" type="move" name="_top"/>
    </contour>
  </outline>
</glyph>
<glyph name="uni03BC" format="1">
  <advance width="646"/>
  <unicode hex="03BC"/>
  <outline>
    <contour>
      <point x="405" y="-10" type="line"/>
      <point x="427" y="-10" type="line"/>
      <point x="630" y="39" type="line"/>
      <point x="630" y="62" type="line"/>
      <point x="554" y="90" type="line"/>
      <point x="554" y="530" type="line"/>
      <point x="399" y="530" type="line"/>
      <point x="399" y="110" type="line"/>
      <point x="378" y="91"/>
      <point x="351" y="81"/>
      <point x="320" y="81" type="curve" smooth="yes"/>
      <point x="283" y="81"/>
      <point x="259" y="95"/>
      <point x="247" y="123" type="curve" smooth="yes"/>
      <point x="238" y="142"/>
      <point x="235" y="169"/>
      <point x="235" y="234" type="curve" smooth="yes"/>
      <point x="235" y="530" type="line"/>
      <point x="80" y="530" type="line"/>
      <point x="80" y="127" type="line" smooth="yes"/>
      <point x="80" y="36"/>
      <point x="65" y="-87"/>
      <point x="65" y="-143" type="curve" smooth="yes"/>
      <point x="65" y="-219"/>
      <point x="92" y="-260"/>
      <point x="142" y="-260" type="curve" smooth="yes"/>
      <point x="189" y="-260"/>
      <point x="222" y="-224"/>
      <point x="222" y="-172" type="curve" smooth="yes"/>
      <point x="222" y="-95"/>
      <point x="181" y="-51"/>
      <point x="181" y="70" type="curve"/>
      <point x="184" y="72" type="line"/>
      <point x="201" y="17"/>
      <point x="235" y="-10"/>
      <point x="288" y="-10" type="curve" smooth="yes"/>
      <point x="335" y="-10"/>
      <point x="373" y="12"/>
      <point x="401" y="56" type="curve"/>
      <point x="405" y="55" type="line"/>
    </contour>
  </outline>
</glyph>
<glyph name="quotesinglbase" format="1">
  <advance width="277"/>
  <unicode hex="201A"/>
  <outline>
    <contour>
      <point x="93" y="-159" type="line"/>
      <point x="176" y="-115"/>
      <point x="225" y="-39"/>
      <point x="225" y="47" type="curve" smooth="yes"/>
      <point x="225" y="120"/>
      <point x="191" y="165"/>
      <point x="136" y="165" type="curve" smooth="yes"/>
      <point x="87" y="165"/>
      <point x="51" y="132"/>
      <point x="51" y="87" type="curve" smooth="yes"/>
      <point x="51" y="15"/>
      <point x="145" y="22"/>
      <point x="145" y="-25" type="curve" smooth="yes"/>
      <point x="145" y="-52"/>
      <point x="113" y="-94"/>
      <point x="69" y="-126" type="curve"/>
    </contour>
  </outline>
</glyph>
<glyph name="quotedblright" format="1">
  <advance width="480"/>
  <unicode hex="201D"/>
  <outline>
    <contour>
      <point x="309" y="506" type="line"/>
      <point x="392" y="550"/>
      <point x="441" y="626"/>
      <point x="441" y="712" type="curve" smooth="yes"/>
      <point x="441" y="785"/>
      <point x="407" y="830"/>
      <point x="352" y="830" type="curve" smooth="yes"/>
      <point x="303" y="830"/>
      <point x="267" y="797"/>
      <point x="267" y="752" type="curve" smooth="yes"/>
      <point x="267" y="680"/>
      <point x="361" y="687"/>
      <point x="361" y="640" type="curve" smooth="yes"/>
      <point x="361" y="613"/>
      <point x="329" y="571"/>
      <point x="285" y="539" type="curve"/>
    </contour>
    <contour>
      <point x="87" y="506" type="line"/>
      <point x="170" y="550"/>
      <point x="219" y="626"/>
      <point x="219" y="712" type="curve" smooth="yes"/>
      <point x="219" y="785"/>
      <point x="185" y="830"/>
      <point x="130" y="830" type="curve" smooth="yes"/>
      <point x="81" y="830"/>
      <point x="45" y="797"/>
      <point x="45" y="752" type="curve" smooth="yes"/>
      <point x="45" y="680"/>
      <point x="139" y="687"/>
      <point x="139" y="640" type="curve" smooth="yes"/>
      <point x="139" y="613"/>
      <point x="107" y="571"/>
      <point x="63" y="539" type="curve"/>
    </contour>
  </outline>
</glyph>
<glyph name="quotedblbase" format="1">
  <advance width="499"/>
  <unicode hex="201E"/>
  <outline>
    <contour>
      <point x="315" y="-159" type="line"/>
      <point x="398" y="-115"/>
      <point x="447" y="-39"/>
      <point x="447" y="47" type="curve" smooth="yes"/>
      <point x="447" y="120"/>
      <point x="413" y="165"/>
      <point x="358" y="165" type="curve" smooth="yes"/>
      <point x="309" y="165"/>
      <point x="273" y="132"/>
      <point x="273" y="87" type="curve" smooth="yes"/>
      <point x="273" y="15"/>
      <point x="367" y="22"/>
      <point x="367" y="-25" type="curve" smooth="yes"/>
      <point x="367" y="-52"/>
      <point x="335" y="-94"/>
      <point x="291" y="-126" type="curve"/>
    </contour>
    <contour>
      <point x="93" y="-159" type="line"/>
      <point x="176" y="-115"/>
      <point x="225" y="-39"/>
      <point x="225" y="47" type="curve" smooth="yes"/>
      <point x="225" y="120"/>
      <point x="191" y="165"/>
      <point x="136" y="165" type="curve" smooth="yes"/>
      <point x="87" y="165"/>
      <point x="51" y="132"/>
      <point x="51" y="87" type="curve" smooth="yes"/>
      <point x="51" y="15"/>
      <point x="145" y="22"/>
      <point x="145" y="-25" type="curve" smooth="yes"/>
      <point x="145" y="-52"/>
      <point x="113" y="-94"/>
      <point x="69" y="-126" type="curve"/>
    </contour>
  </outline>
</glyph>
<glyph name="ellipsis" format="1">
  <advance width="880"/>
  <unicode hex="2026"/>
  <outline>
    <contour>
      <point x="50" y="76" type="curve" smooth="yes"/>
      <point x="50" y="25"/>
      <point x="86" y="-10"/>
      <point x="139" y="-10" type="curve" smooth="yes"/>
      <point x="192" y="-10"/>
      <point x="230" y="26"/>
      <point x="230" y="76" type="curve" smooth="yes"/>
      <point x="230" y="127"/>
      <point x="191" y="164"/>
      <point x="138" y="164" type="curve" smooth="yes"/>
      <point x="86" y="164"/>
      <point x="50" y="127"/>
    </contour>
    <contour>
      <point x="350" y="76" type="curve" smooth="yes"/>
      <point x="350" y="25"/>
      <point x="386" y="-10"/>
      <point x="439" y="-10" type="curve" smooth="yes"/>
      <point x="492" y="-10"/>
      <point x="530" y="26"/>
      <point x="530" y="76" type="curve" smooth="yes"/>
      <point x="530" y="127"/>
      <point x="491" y="164"/>
      <point x="438" y="164" type="curve" smooth="yes"/>
      <point x="386" y="164"/>
      <point x="350" y="127"/>
    </contour>
    <contour>
      <point x="650" y="76" type="curve" smooth="yes"/>
      <point x="650" y="25"/>
      <point x="686" y="-10"/>
      <point x="739" y="-10" type="curve" smooth="yes"/>
      <point x="792" y="-10"/>
      <point x="830" y="26"/>
      <point x="830" y="76" type="curve" smooth="yes"/>
      <point x="830" y="127"/>
      <point x="791" y="164"/>
      <point x="738" y="164" type="curve" smooth="yes"/>
      <point x="686" y="164"/>
      <point x="650" y="127"/>
    </contour>
  </outline>
</glyph>
<glyph name="guilsinglleft" format="1">
  <advance width="296"/>
  <unicode hex="2039"/>
  <outline>
    <contour>
      <point x="198" y="53" type="line"/>
      <point x="49" y="236" type="line"/>
      <point x="49" y="255" type="line"/>
      <point x="196" y="436" type="line"/>
      <point x="226" y="423" type="line"/>
      <point x="172" y="246" type="line"/>
      <point x="228" y="68" type="line"/>
    </contour>
  </outline>
</glyph>
<glyph name="fraction" format="1">
  <advance width="280"/>
  <unicode hex="2044"/>
  <outline>
    <contour>
      <point x="-40" y="0" type="line"/>
      <point x="425" y="770" type="line"/>
      <point x="320" y="770" type="line"/>
      <point x="-144" y="0" type="line"/>
    </contour>
  </outline>
</glyph>
<glyph name="foursuperior" format="1">
  <advance width="460"/>
  <unicode hex="2074"/>
  <outline>
    <contour>
      <point x="224" y="461" type="line"/>
      <point x="131" y="445" type="line"/>
      <point x="131" y="419" type="line"/>
      <point x="430" y="419" type="line"/>
      <point x="430" y="445" type="line"/>
      <point x="361" y="461" type="line"/>
      <point x="361" y="542" type="line"/>
      <point x="433" y="542" type="line"/>
      <point x="433" y="608" type="line"/>
      <point x="361" y="608" type="line"/>
      <point x="361" y="922" type="line"/>
      <point x="283" y="928" type="line"/>
      <point x="1" y="585" type="line"/>
      <point x="18" y="542" type="line"/>
      <point x="224" y="542" type="line"/>
    </contour>
    <contour>
      <point x="224" y="608" type="line"/>
      <point x="89" y="608" type="line"/>
      <point x="88" y="612" type="line"/>
      <point x="220" y="773" type="line"/>
      <point x="224" y="773" type="line"/>
    </contour>
  </outline>
</glyph>
<glyph name="fivesuperior" format="1">
  <advance width="428"/>
  <unicode hex="2075"/>
  <outline>
    <contour>
      <point x="152" y="817" type="line"/>
      <point x="342" y="817" type="line"/>
      <point x="379" y="935" type="line"/>
      <point x="346" y="947" type="line"/>
      <point x="321" y="913" type="line"/>
      <point x="112" y="913" type="line"/>
      <point x="64" y="626" type="line"/>
      <point x="103" y="626" type="line"/>
      <point x="124" y="638"/>
      <point x="146" y="644"/>
      <point x="179" y="644" type="curve" smooth="yes"/>
      <point x="243" y="644"/>
      <point x="287" y="605"/>
      <point x="287" y="550" type="curve" smooth="yes"/>
      <point x="287" y="495"/>
      <point x="251" y="457"/>
      <point x="196" y="457" type="curve" smooth="yes"/>
      <point x="110" y="457"/>
      <point x="146" y="548"/>
      <point x="75" y="548" type="curve" smooth="yes"/>
      <point x="40" y="548"/>
      <point x="14" y="527"/>
      <point x="14" y="498" type="curve" smooth="yes"/>
      <point x="14" y="449"/>
      <point x="81" y="412"/>
      <point x="173" y="412" type="curve" smooth="yes"/>
      <point x="305" y="412"/>
      <point x="403" y="490"/>
      <point x="403" y="595" type="curve" smooth="yes"/>
      <point x="403" y="685"/>
      <point x="323" y="747"/>
      <point x="200" y="747" type="curve" smooth="yes"/>
      <point x="182" y="747"/>
      <point x="159" y="744"/>
      <point x="141" y="738" type="curve"/>
    </contour>
  </outline>
</glyph>
<glyph name="sevensuperior" format="1">
  <advance width="419"/>
  <unicode hex="2077"/>
  <outline>
    <contour>
      <point x="117" y="913" type="line"/>
      <point x="112" y="939" type="line"/>
      <point x="79" y="945" type="line"/>
      <point x="7" y="775" type="line"/>
      <point x="41" y="763" type="line"/>
      <point x="83" y="817" type="line"/>
      <point x="296" y="817" type="line"/>
      <point x="108" y="527" type="line" smooth="yes"/>
      <point x="88" y="496"/>
      <point x="77" y="471"/>
      <point x="77" y="454" type="curve" smooth="yes"/>
      <point x="77" y="428"/>
      <point x="102" y="412"/>
      <point x="141" y="412" type="curve" smooth="yes"/>
      <point x="172" y="412"/>
      <point x="194" y="428"/>
      <point x="207" y="458" type="curve" smooth="yes"/>
      <point x="300" y="682"/>
      <point x="313" y="708"/>
      <point x="415" y="893" type="curve"/>
      <point x="401" y="913" type="line"/>
    </contour>
  </outline>
</glyph>
<glyph name="eightsuperior" format="1">
  <advance width="487"/>
  <unicode hex="2078"/>
  <outline>
    <contour>
      <point x="327" y="708" type="curve"/>
      <point x="393" y="731"/>
      <point x="428" y="768"/>
      <point x="428" y="815" type="curve" smooth="yes"/>
      <point x="428" y="883"/>
      <point x="355" y="928"/>
      <point x="246" y="928" type="curve" smooth="yes"/>
      <point x="130" y="928"/>
      <point x="56" y="876"/>
      <point x="56" y="794" type="curve" smooth="yes"/>
      <point x="56" y="740"/>
      <point x="85" y="698"/>
      <point x="144" y="663" type="curve"/>
      <point x="68" y="635"/>
      <point x="32" y="597"/>
      <point x="32" y="547" type="curve" smooth="yes"/>
      <point x="32" y="469"/>
      <point x="103" y="412"/>
      <point x="239" y="412" type="curve" smooth="yes"/>
      <point x="366" y="412"/>
      <point x="455" y="476"/>
      <point x="455" y="566" type="curve" smooth="yes"/>
      <point x="455" y="624"/>
      <point x="417" y="667"/>
    </contour>
    <contour>
      <point x="276" y="726" type="curve"/>
      <point x="198" y="759"/>
      <point x="167" y="787"/>
      <point x="167" y="826" type="curve" smooth="yes"/>
      <point x="167" y="864"/>
      <point x="195" y="887"/>
      <point x="240" y="887" type="curve" smooth="yes"/>
      <point x="290" y="887"/>
      <point x="320" y="860"/>
      <point x="320" y="815" type="curve" smooth="yes"/>
      <point x="320" y="782"/>
      <point x="305" y="752"/>
    </contour>
    <contour>
      <point x="189" y="643" type="curve"/>
      <point x="292" y="607"/>
      <point x="336" y="572"/>
      <point x="336" y="527" type="curve" smooth="yes"/>
      <point x="336" y="483"/>
      <point x="300" y="454"/>
      <point x="247" y="454" type="curve" smooth="yes"/>
      <point x="186" y="454"/>
      <point x="153" y="490"/>
      <point x="153" y="555" type="curve" smooth="yes"/>
      <point x="153" y="596"/>
      <point x="166" y="628"/>
    </contour>
  </outline>
</glyph>
<glyph name="ninesuperior" format="1">
  <advance width="469"/>
  <unicode hex="2079"/>
  <outline>
    <contour>
      <point x="229" y="926" type="curve"/>
      <point x="103" y="926"/>
      <point x="18" y="861"/>
      <point x="18" y="766" type="curve" smooth="yes"/>
      <point x="18" y="682"/>
      <point x="92" y="618"/>
      <point x="191" y="618" type="curve" smooth="yes"/>
      <point x="232" y="618"/>
      <point x="263" y="631"/>
      <point x="280" y="652" type="curve"/>
      <point x="270" y="581"/>
      <point x="185" y="481"/>
      <point x="101" y="441" type="curve"/>
      <point x="123" y="412" type="line"/>
      <point x="313" y="467"/>
      <point x="437" y="598"/>
      <point x="437" y="742" type="curve" smooth="yes"/>
      <point x="437" y="856"/>
      <point x="358" y="926"/>
    </contour>
    <contour>
      <point x="222" y="885" type="curve"/>
      <point x="264" y="885"/>
      <point x="291" y="839"/>
      <point x="291" y="766" type="curve" smooth="yes"/>
      <point x="291" y="744"/>
      <point x="288" y="722"/>
      <point x="282" y="705" type="curve"/>
      <point x="270" y="683"/>
      <point x="250" y="670"/>
      <point x="227" y="670" type="curve" smooth="yes"/>
      <point x="185" y="670"/>
      <point x="159" y="711"/>
      <point x="159" y="777" type="curve" smooth="yes"/>
      <point x="159" y="844"/>
      <point x="183" y="885"/>
    </contour>
  </outline>
</glyph>
<glyph name="oneinferior" format="1">
  <advance width="397"/>
  <unicode hex="2081"/>
  <outline>
    <contour>
      <point x="234" y="354" type="line"/>
      <point x="176" y="310"/>
      <point x="124" y="285"/>
      <point x="48" y="276" type="curve"/>
      <point x="48" y="245" type="line"/>
      <point x="142" y="245" type="line"/>
      <point x="142" y="-112" type="line"/>
      <point x="49" y="-130" type="line"/>
      <point x="49" y="-155" type="line"/>
      <point x="374" y="-155" type="line"/>
      <point x="374" y="-130" type="line"/>
      <point x="277" y="-112" type="line"/>
      <point x="277" y="349" type="line"/>
    </contour>
  </outline>
</glyph>
<glyph name="fourinferior" format="1">
  <advance width="461"/>
  <unicode hex="2084"/>
  <outline>
    <contour>
      <point x="225" y="-113" type="line"/>
      <point x="132" y="-129" type="line"/>
      <point x="132" y="-155" type="line"/>
      <point x="431" y="-155" type="line"/>
      <point x="431" y="-129" type="line"/>
      <point x="362" y="-113" type="line"/>
      <point x="362" y="-32" type="line"/>
      <point x="434" y="-32" type="line"/>
      <point x="434" y="34" type="line"/>
      <point x="362" y="34" type="line"/>
      <point x="362" y="348" type="line"/>
      <point x="284" y="354" type="line"/>
      <point x="2" y="11" type="line"/>
      <point x="19" y="-32" type="line"/>
      <point x="225" y="-32" type="line"/>
    </contour>
    <contour>
      <point x="225" y="34" type="line"/>
      <point x="90" y="34" type="line"/>
      <point x="89" y="38" type="line"/>
      <point x="221" y="199" type="line"/>
      <point x="225" y="199" type="line"/>
    </contour>
  </outline>
</glyph>
<glyph name="seveninferior" format="1">
  <advance width="419"/>
  <unicode hex="2087"/>
  <outline>
    <contour>
      <point x="117" y="340" type="line"/>
      <point x="112" y="366" type="line"/>
      <point x="79" y="372" type="line"/>
      <point x="7" y="202" type="line"/>
      <point x="41" y="190" type="line"/>
      <point x="83" y="244" type="line"/>
      <point x="296" y="244" type="line"/>
      <point x="108" y="-46" type="line" smooth="yes"/>
      <point x="88" y="-77"/>
      <point x="77" y="-102"/>
      <point x="77" y="-119" type="curve" smooth="yes"/>
      <point x="77" y="-145"/>
      <point x="102" y="-161"/>
      <point x="141" y="-161" type="curve" smooth="yes"/>
      <point x="172" y="-161"/>
      <point x="194" y="-145"/>
      <point x="207" y="-115" type="curve" smooth="yes"/>
      <point x="300" y="109"/>
      <point x="313" y="135"/>
      <point x="415" y="320" type="curve"/>
      <point x="401" y="340" type="line"/>
    </contour>
  </outline>
</glyph>
<glyph name="nineinferior" format="1">
  <advance width="469"/>
  <unicode hex="2089"/>
  <outline>
    <contour>
      <point x="229" y="352" type="curve"/>
      <point x="103" y="352"/>
      <point x="18" y="287"/>
      <point x="18" y="192" type="curve" smooth="yes"/>
      <point x="18" y="108"/>
      <point x="92" y="44"/>
      <point x="191" y="44" type="curve" smooth="yes"/>
      <point x="232" y="44"/>
      <point x="263" y="57"/>
      <point x="280" y="78" type="curve"/>
      <point x="270" y="7"/>
      <point x="185" y="-93"/>
      <point x="101" y="-133" type="curve"/>
      <point x="123" y="-162" type="line"/>
      <point x="313" y="-107"/>
      <point x="437" y="24"/>
      <point x="437" y="168" type="curve" smooth="yes"/>
      <point x="437" y="282"/>
      <point x="358" y="352"/>
    </contour>
    <contour>
      <point x="222" y="311" type="curve"/>
      <point x="264" y="311"/>
      <point x="291" y="265"/>
      <point x="291" y="192" type="curve" smooth="yes"/>
      <point x="291" y="170"/>
      <point x="288" y="148"/>
      <point x="282" y="131" type="curve"/>
      <point x="270" y="109"/>
      <point x="250" y="96"/>
      <point x="227" y="96" type="curve" smooth="yes"/>
      <point x="185" y="96"/>
      <point x="159" y="137"/>
      <point x="159" y="203" type="curve" smooth="yes"/>
      <point x="159" y="270"/>
      <point x="183" y="311"/>
    </contour>
  </outline>
</glyph>
<glyph name="Euro" format="1">
  <advance width="643"/>
  <unicode hex="20AC"/>
  <outline>
    <contour>
      <point x="391" y="-10" type="curve" smooth="yes" name="hr00"/>
      <point x="499" y="-10"/>
      <point x="588" y="58"/>
      <point x="588" y="145" type="curve" smooth="yes"/>
      <point x="588" y="186"/>
      <point x="568" y="207"/>
      <point x="533" y="207" type="curve" smooth="yes"/>
      <point x="481" y="207"/>
      <point x="469" y="162"/>
      <point x="463" y="139" type="curve" smooth="yes"/>
      <point x="452" y="97"/>
      <point x="436" y="49"/>
      <point x="386" y="49" type="curve" smooth="yes"/>
      <point x="324" y="49"/>
      <point x="295" y="124"/>
      <point x="295" y="374" type="curve" smooth="yes"/>
      <point x="295" y="649"/>
      <point x="330" y="720"/>
      <point x="397" y="720" type="curve" smooth="yes"/>
      <point x="440" y="720"/>
      <point x="456" y="691"/>
      <point x="468" y="640" type="curve" smooth="yes"/>
      <point x="475" y="609"/>
      <point x="490" y="572"/>
      <point x="534" y="572" type="curve" smooth="yes"/>
      <point x="567" y="572"/>
      <point x="588" y="594"/>
      <point x="588" y="633" type="curve" smooth="yes"/>
      <point x="588" y="714"/>
      <point x="500" y="780"/>
      <point x="395" y="780" type="curve" smooth="yes"/>
      <point x="227" y="780"/>
      <point x="112" y="612"/>
      <point x="112" y="381" type="curve" smooth="yes"/>
      <point x="112" y="153"/>
      <point x="224" y="-10"/>
    </contour>
    <contour>
      <point x="485" y="411" type="line"/>
      <point x="495" y="475" type="line"/>
      <point x="64" y="475" type="line"/>
      <point x="54" y="411" type="line"/>
    </contour>
    <contour>
      <point x="465" y="290" type="line"/>
      <point x="475" y="354" type="line"/>
      <point x="44" y="354" type="line"/>
      <point x="34" y="290" type="line"/>
    </contour>
  </outline>
</glyph>
<glyph name="servicemark" format="1">
  <advance width="825"/>
  <unicode hex="2120"/>
  <outline>
    <contour>
      <point x="347" y="489" type="line"/>
      <point x="311" y="481" type="line"/>
      <point x="311" y="462" type="line"/>
      <point x="418" y="462" type="line"/>
      <point x="418" y="481" type="line"/>
      <point x="383" y="489" type="line"/>
      <point x="383" y="716" type="line"/>
      <point x="387" y="716" type="line"/>
      <point x="476" y="458" type="line"/>
      <point x="547" y="458" type="line"/>
      <point x="642" y="699" type="line"/>
      <point x="642" y="489" type="line"/>
      <point x="606" y="481" type="line"/>
      <point x="606" y="462" type="line"/>
      <point x="760" y="462" type="line"/>
      <point x="760" y="481" type="line"/>
      <point x="724" y="489" type="line"/>
      <point x="724" y="743" type="line"/>
      <point x="760" y="751" type="line"/>
      <point x="760" y="770" type="line"/>
      <point x="626" y="770" type="line"/>
      <point x="536" y="533" type="line"/>
      <point x="532" y="533" type="line"/>
      <point x="455" y="770" type="line"/>
      <point x="311" y="770" type="line"/>
      <point x="311" y="751" type="line"/>
      <point x="347" y="743" type="line"/>
    </contour>
    <contour>
      <point x="175" y="780" type="curve" smooth="yes"/>
      <point x="114" y="780"/>
      <point x="69" y="743"/>
      <point x="69" y="693" type="curve" smooth="yes"/>
      <point x="69" y="597"/>
      <point x="216" y="591"/>
      <point x="216" y="531" type="curve" smooth="yes"/>
      <point x="216" y="510"/>
      <point x="197" y="497"/>
      <point x="167" y="497" type="curve" smooth="yes"/>
      <point x="126" y="497"/>
      <point x="103" y="520"/>
      <point x="88" y="573" type="curve"/>
      <point x="68" y="571" type="line"/>
      <point x="75" y="468" type="line"/>
      <point x="88" y="468" type="line"/>
      <point x="104" y="485" type="line"/>
      <point x="127" y="470"/>
      <point x="146" y="465"/>
      <point x="171" y="465" type="curve" smooth="yes"/>
      <point x="241" y="465"/>
      <point x="293" y="505"/>
      <point x="293" y="559" type="curve" smooth="yes"/>
      <point x="293" y="652"/>
      <point x="151" y="652"/>
      <point x="151" y="719" type="curve" smooth="yes"/>
      <point x="151" y="738"/>
      <point x="162" y="748"/>
      <point x="183" y="748" type="curve" smooth="yes"/>
      <point x="214" y="748"/>
      <point x="237" y="726"/>
      <point x="248" y="688" type="curve"/>
      <point x="268" y="688" type="line"/>
      <point x="265" y="776" type="line"/>
      <point x="252" y="776" type="line"/>
      <point x="239" y="755" type="line"/>
      <point x="220" y="773"/>
      <point x="201" y="780"/>
    </contour>
  </outline>
</glyph>
<glyph name="minus" format="1">
  <advance width="546"/>
  <unicode hex="2212"/>
  <outline>
    <contour>
      <point x="478" y="307" type="line"/>
      <point x="478" y="372" type="line"/>
      <point x="68" y="372" type="line"/>
      <point x="68" y="307" type="line"/>
    </contour>
  </outline>
</glyph>
<glyph name="uni2219" format="1">
  <advance width="297"/>
  <unicode hex="2219"/>
  <outline>
    <contour>
      <point x="59" y="287" type="curve" smooth="yes"/>
      <point x="59" y="236"/>
      <point x="95" y="201"/>
      <point x="148" y="201" type="curve" smooth="yes"/>
      <point x="201" y="201"/>
      <point x="239" y="237"/>
      <point x="239" y="287" type="curve" smooth="yes"/>
      <point x="239" y="338"/>
      <point x="200" y="375"/>
      <point x="147" y="375" type="curve" smooth="yes"/>
      <point x="95" y="375"/>
      <point x="59" y="338"/>
    </contour>
  </outline>
</glyph>
<glyph name="f_f" format="1">
  <advance width="802"/>
  <unicode hex="FB00"/>
  <outline>
    <contour>
      <point x="14" y="483" type="line"/>
      <point x="116" y="483" type="line"/>
      <point x="116" y="55" type="line"/>
      <point x="31" y="35" type="line"/>
      <point x="31" y="0" type="line"/>
      <point x="374" y="0" type="line"/>
      <point x="374" y="35" type="line"/>
      <point x="271" y="55" type="line"/>
      <point x="271" y="483" type="line"/>
      <point x="496" y="483" type="line"/>
      <point x="496" y="55" type="line"/>
      <point x="411" y="35" type="line"/>
      <point x="411" y="0" type="line"/>
      <point x="774" y="0" type="line"/>
      <point x="774" y="35" type="line"/>
      <point x="651" y="55" type="line"/>
      <point x="651" y="483" type="line"/>
      <point x="772" y="483" type="line"/>
      <point x="786" y="530" type="line"/>
      <point x="651" y="530" type="line"/>
      <point x="651" y="585" type="line" smooth="yes"/>
      <point x="651" y="653"/>
      <point x="652" y="702"/>
      <point x="663" y="733" type="curve" smooth="yes"/>
      <point x="674" y="765"/>
      <point x="700" y="779"/>
      <point x="729" y="779" type="curve" smooth="yes"/>
      <point x="760" y="779"/>
      <point x="774" y="765"/>
      <point x="784" y="727" type="curve" smooth="yes"/>
      <point x="794" y="688"/>
      <point x="819" y="666"/>
      <point x="854" y="666" type="curve" smooth="yes"/>
      <point x="895" y="666"/>
      <point x="923" y="693"/>
      <point x="923" y="732" type="curve" smooth="yes"/>
      <point x="923" y="791"/>
      <point x="853" y="830"/>
      <point x="748" y="830" type="curve" smooth="yes"/>
      <point x="667" y="830"/>
      <point x="596" y="803"/>
      <point x="551" y="758" type="curve"/>
      <point x="515" y="772"/>
      <point x="469" y="780"/>
      <point x="416" y="780" type="curve" smooth="yes"/>
      <point x="278" y="780"/>
      <point x="172" y="725"/>
      <point x="133" y="633" type="curve" smooth="yes"/>
      <point x="123" y="610"/>
      <point x="118" y="586"/>
      <point x="116" y="530" type="curve"/>
      <point x="28" y="530" type="line"/>
    </contour>
    <contour>
      <point x="271" y="530" type="line"/>
      <point x="271" y="609"/>
      <point x="273" y="637"/>
      <point x="283" y="661" type="curve" smooth="yes"/>
      <point x="300" y="704"/>
      <point x="342" y="727"/>
      <point x="387" y="727" type="curve" smooth="yes"/>
      <point x="440" y="727"/>
      <point x="494" y="693"/>
      <point x="498" y="625" type="curve"/>
      <point x="496" y="601"/>
      <point x="496" y="570"/>
      <point x="496" y="530" type="curve"/>
    </contour>
  </outline>
</glyph>
<glyph name="f_i" format="1">
  <advance width="747"/>
  <unicode hex="FB01"/>
  <outline>
    <contour>
      <point x="14" y="483" type="line"/>
      <point x="116" y="483" type="line"/>
      <point x="116" y="55" type="line"/>
      <point x="31" y="35" type="line"/>
      <point x="31" y="0" type="line"/>
      <point x="374" y="0" type="line"/>
      <point x="374" y="35" type="line"/>
      <point x="271" y="55" type="line"/>
      <point x="271" y="483" type="line"/>
      <point x="411" y="483" type="line"/>
      <point x="496" y="441" type="line"/>
      <point x="496" y="55" type="line"/>
      <point x="411" y="35" type="line"/>
      <point x="411" y="0" type="line"/>
      <point x="731" y="0" type="line"/>
      <point x="731" y="35" type="line"/>
      <point x="651" y="55" type="line"/>
      <point x="651" y="550" type="line"/>
      <point x="630" y="550" type="line"/>
      <point x="411" y="530" type="line"/>
      <point x="271" y="530" type="line"/>
      <point x="271" y="564" type="line" smooth="yes"/>
      <point x="271" y="658"/>
      <point x="273" y="687"/>
      <point x="283" y="710" type="curve" smooth="yes"/>
      <point x="301" y="754"/>
      <point x="343" y="776"/>
      <point x="398" y="776" type="curve" smooth="yes"/>
      <point x="445" y="776"/>
      <point x="472" y="753"/>
      <point x="489" y="706" type="curve" smooth="yes"/>
      <point x="507" y="657"/>
      <point x="539" y="632"/>
      <point x="580" y="632" type="curve" smooth="yes"/>
      <point x="626" y="632"/>
      <point x="658" y="662"/>
      <point x="658" y="706" type="curve" smooth="yes"/>
      <point x="658" y="780"/>
      <point x="566" y="829"/>
      <point x="428" y="829" type="curve" smooth="yes"/>
      <point x="282" y="829"/>
      <point x="172" y="774"/>
      <point x="133" y="682" type="curve" smooth="yes"/>
      <point x="120" y="653"/>
      <point x="116" y="622"/>
      <point x="116" y="530" type="curve"/>
      <point x="28" y="530" type="line"/>
    </contour>
  </outline>
</glyph>
<glyph name="f_f_l" format="1">
  <advance width="1130"/>
  <unicode hex="FB04"/>
  <outline>
    <contour>
      <point x="31" y="0" type="line"/>
      <point x="374" y="0" type="line"/>
      <point x="374" y="35" type="line"/>
      <point x="271" y="55" type="line"/>
      <point x="271" y="483" type="line"/>
      <point x="496" y="483" type="line"/>
      <point x="496" y="55" type="line"/>
      <point x="411" y="35" type="line"/>
      <point x="411" y="0" type="line"/>
      <point x="754" y="0" type="line"/>
      <point x="754" y="35" type="line"/>
      <point x="651" y="55" type="line"/>
      <point x="651" y="483" type="line"/>
      <point x="876" y="483" type="line"/>
      <point x="876" y="55" type="line"/>
      <point x="791" y="35" type="line"/>
      <point x="791" y="0" type="line"/>
      <point x="1111" y="0" type="line"/>
      <point x="1111" y="35" type="line"/>
      <point x="1031" y="55" type="line"/>
      <point x="1031" y="727" type="line" smooth="yes"/>
      <point x="1031" y="788"/>
      <point x="942" y="829"/>
      <point x="812" y="829" type="curve" smooth="yes"/>
      <point x="706" y="829"/>
      <point x="620" y="802"/>
      <point x="564" y="753" type="curve"/>
      <point x="527" y="770"/>
      <point x="472" y="780"/>
      <point x="408" y="780" type="curve" smooth="yes"/>
      <point x="277" y="780"/>
      <point x="170" y="722"/>
      <point x="133" y="633" type="curve" smooth="yes"/>
      <point x="123" y="610"/>
      <point x="118" y="585"/>
      <point x="116" y="530" type="curve"/>
      <point x="28" y="530" type="line"/>
      <point x="14" y="483" type="line"/>
      <point x="116" y="483" type="line"/>
      <point x="116" y="55" type="line"/>
      <point x="31" y="35" type="line"/>
    </contour>
    <contour>
      <point x="651" y="564" type="line" smooth="yes"/>
      <point x="651" y="658"/>
      <point x="653" y="687"/>
      <point x="663" y="710" type="curve" smooth="yes"/>
      <point x="680" y="751"/>
      <point x="723" y="776"/>
      <point x="778" y="776" type="curve" smooth="yes"/>
      <point x="840" y="776"/>
      <point x="876" y="743"/>
      <point x="876" y="676" type="curve" smooth="yes"/>
      <point x="876" y="530" type="line"/>
      <point x="651" y="530" type="line"/>
    </contour>
    <contour>
      <point x="271" y="530" type="line"/>
      <point x="271" y="590"/>
      <point x="273" y="633"/>
      <point x="283" y="661" type="curve" smooth="yes"/>
      <point x="301" y="708"/>
      <point x="344" y="727"/>
      <point x="389" y="727" type="curve" smooth="yes"/>
      <point x="459" y="727"/>
      <point x="487" y="679"/>
      <point x="498" y="607" type="curve"/>
      <point x="497" y="588"/>
      <point x="496" y="562"/>
      <point x="496" y="530" type="curve"/>
    </contour>
  </outline>
</glyph>
<glyph name="s_t" format="1">
  <advance width="876"/>
  <unicode hex="FB06"/>
  <outline>
    <contour>
      <point x="222" y="-12" type="curve" smooth="yes"/>
      <point x="351" y="-12"/>
      <point x="429" y="54"/>
      <point x="429" y="161" type="curve" smooth="yes"/>
      <point x="429" y="350"/>
      <point x="188" y="326"/>
      <point x="188" y="432" type="curve" smooth="yes"/>
      <point x="188" y="467"/>
      <point x="213" y="490"/>
      <point x="252" y="490" type="curve" smooth="yes"/>
      <point x="281" y="490"/>
      <point x="289" y="480"/>
      <point x="297" y="437" type="curve" smooth="yes"/>
      <point x="304" y="395"/>
      <point x="328" y="372"/>
      <point x="363" y="372" type="curve" smooth="yes"/>
      <point x="403" y="372"/>
      <point x="430" y="398"/>
      <point x="430" y="435" type="curve" smooth="yes"/>
      <point x="430" y="463"/>
      <point x="415" y="487"/>
      <point x="388" y="506" type="curve"/>
      <point x="362" y="530"/>
      <point x="349" y="575"/>
      <point x="349" y="628" type="curve" smooth="yes"/>
      <point x="349" y="723"/>
      <point x="395" y="776"/>
      <point x="478" y="776" type="curve" smooth="yes"/>
      <point x="552" y="776"/>
      <point x="593" y="734"/>
      <point x="593" y="658" type="curve" smooth="yes"/>
      <point x="593" y="587"/>
      <point x="558" y="539"/>
      <point x="487" y="510" type="curve"/>
      <point x="493" y="480" type="line"/>
      <point x="564" y="480" type="line"/>
      <point x="564" y="132" type="line" smooth="yes"/>
      <point x="564" y="14"/>
      <point x="617" y="-10"/>
      <point x="708" y="-10" type="curve" smooth="yes"/>
      <point x="776" y="-10"/>
      <point x="833" y="14"/>
      <point x="867" y="57" type="curve"/>
      <point x="844" y="90" type="line"/>
      <point x="828" y="71"/>
      <point x="808" y="62"/>
      <point x="783" y="62" type="curve" smooth="yes"/>
      <point x="744" y="62"/>
      <point x="719" y="67"/>
      <point x="719" y="166" type="curve" smooth="yes"/>
      <point x="719" y="480" type="line"/>
      <point x="859" y="480" type="line"/>
      <point x="874" y="530" type="line"/>
      <point x="719" y="530" type="line"/>
      <point x="727" y="560"/>
      <point x="730" y="588"/>
      <point x="730" y="615" type="curve" smooth="yes"/>
      <point x="730" y="744"/>
      <point x="640" y="829"/>
      <point x="492" y="829" type="curve" smooth="yes"/>
      <point x="350" y="829"/>
      <point x="244" y="752"/>
      <point x="244" y="648" type="curve" smooth="yes"/>
      <point x="244" y="606"/>
      <point x="264" y="564"/>
      <point x="299" y="542" type="curve"/>
      <point x="299" y="538" type="line"/>
      <point x="282" y="541"/>
      <point x="264" y="542"/>
      <point x="246" y="542" type="curve" smooth="yes"/>
      <point x="122" y="542"/>
      <point x="51" y="485"/>
      <point x="51" y="386" type="curve" smooth="yes"/>
      <point x="51" y="203"/>
      <point x="294" y="223"/>
      <point x="294" y="110" type="curve" smooth="yes"/>
      <point x="294" y="70"/>
      <point x="265" y="40"/>
      <point x="225" y="40" type="curve" smooth="yes"/>
      <point x="195" y="40"/>
      <point x="180" y="56"/>
      <point x="174" y="93" type="curve" smooth="yes"/>
      <point x="166" y="137"/>
      <point x="145" y="158"/>
      <point x="108" y="158" type="curve" smooth="yes"/>
      <point x="68" y="158"/>
      <point x="41" y="132"/>
      <point x="41" y="95" type="curve" smooth="yes"/>
      <point x="41" y="33"/>
      <point x="117" y="-12"/>
    </contour>
  </outline>
</glyph>
<glyph name="bar.tnum" format="1">
  <advance width="300"/>
  <outline>
    <contour>
      <point x="200" y="-159" type="line"/>
      <point x="200" y="819" type="line"/>
      <point x="100" y="819" type="line"/>
      <point x="100" y="-159" type="line"/>
    </contour>
  </outline>
</glyph>
<glyph name="caron.cap" format="1">
  <advance width="366"/>
  <outline>
    <contour>
      <point x="184" y="821" type="curve" smooth="yes"/>
      <point x="206" y="821"/>
      <point x="225" y="832"/>
      <point x="252" y="854" type="curve" smooth="yes"/>
      <point x="356" y="938" type="line"/>
      <point x="340" y="960" type="line"/>
      <point x="183" y="919" type="line"/>
      <point x="26" y="960" type="line"/>
      <point x="10" y="938" type="line"/>
      <point x="112" y="854" type="line" smooth="yes"/>
      <point x="139" y="832"/>
      <point x="158" y="821"/>
    </contour>
    <contour>
      <point x="184" y="820" type="move" name="_topcap"/>
    </contour>
  </outline>
</glyph>
<glyph name="circumflex.cap" format="1">
  <advance width="366"/>
  <outline>
    <contour>
      <point x="184" y="960" type="curve" smooth="yes"/>
      <point x="158" y="960"/>
      <point x="139" y="949"/>
      <point x="112" y="927" type="curve" smooth="yes"/>
      <point x="10" y="843" type="line"/>
      <point x="26" y="821" type="line"/>
      <point x="183" y="862" type="line"/>
      <point x="340" y="821" type="line"/>
      <point x="356" y="843" type="line"/>
      <point x="252" y="927" type="line" smooth="yes"/>
      <point x="225" y="949"/>
      <point x="206" y="960"/>
    </contour>
    <contour>
      <point x="183" y="830" type="move" name="_topcap"/>
    </contour>
  </outline>
</glyph>
<glyph name="colon.tnum" format="1">
  <advance width="300"/>
  <outline>
    <contour>
      <point x="63" y="388" type="curve" smooth="yes"/>
      <point x="63" y="347"/>
      <point x="92" y="306"/>
      <point x="148" y="306" type="curve" smooth="yes"/>
      <point x="207" y="306"/>
      <point x="237" y="347"/>
      <point x="237" y="388" type="curve" smooth="yes"/>
      <point x="237" y="432"/>
      <point x="203" y="471"/>
      <point x="148" y="471" type="curve" smooth="yes"/>
      <point x="94" y="471"/>
      <point x="63" y="432"/>
    </contour>
    <contour>
      <point x="63" y="72" type="curve" smooth="yes"/>
      <point x="63" y="31"/>
      <point x="92" y="-10"/>
      <point x="148" y="-10" type="curve" smooth="yes"/>
      <point x="207" y="-10"/>
      <point x="237" y="31"/>
      <point x="237" y="72" type="curve" smooth="yes"/>
      <point x="237" y="116"/>
      <point x="203" y="155"/>
      <point x="148" y="155" type="curve" smooth="yes"/>
      <point x="94" y="155"/>
      <point x="63" y="116"/>
    </contour>
  </outline>
</glyph>
<glyph name="divide.tnum" format="1">
  <advance width="600"/>
  <outline>
    <contour>
      <point x="205" y="520" type="curve" smooth="yes"/>
      <point x="205" y="479"/>
      <point x="234" y="438"/>
      <point x="290" y="438" type="curve" smooth="yes"/>
      <point x="349" y="438"/>
      <point x="379" y="479"/>
      <point x="379" y="520" type="curve" smooth="yes"/>
      <point x="379" y="564"/>
      <point x="345" y="603"/>
      <point x="290" y="603" type="curve" smooth="yes"/>
      <point x="236" y="603"/>
      <point x="205" y="564"/>
    </contour>
    <contour>
      <point x="205" y="164" type="curve" smooth="yes"/>
      <point x="205" y="123"/>
      <point x="234" y="82"/>
      <point x="290" y="82" type="curve" smooth="yes"/>
      <point x="349" y="82"/>
      <point x="379" y="123"/>
      <point x="379" y="164" type="curve" smooth="yes"/>
      <point x="379" y="208"/>
      <point x="345" y="247"/>
      <point x="290" y="247" type="curve" smooth="yes"/>
      <point x="236" y="247"/>
      <point x="205" y="208"/>
    </contour>
    <component base="minus.tnum" xOffset="-7"/>
  </outline>
</glyph>
<glyph name="dollar.tnum" format="1">
  <advance width="600"/>
  <outline>
    <contour>
      <point x="321" y="780" type="curve" smooth="yes" name="hr00"/>
      <point x="168" y="780"/>
      <point x="57" y="690"/>
      <point x="57" y="568" type="curve" smooth="yes"/>
      <point x="57" y="318"/>
      <point x="410" y="349"/>
      <point x="410" y="149" type="curve" smooth="yes"/>
      <point x="410" y="88"/>
      <point x="363" y="49"/>
      <point x="292" y="49" type="curve" smooth="yes"/>
      <point x="237" y="49"/>
      <point x="205" y="75"/>
      <point x="193" y="129" type="curve" smooth="yes"/>
      <point x="181" y="178"/>
      <point x="158" y="202"/>
      <point x="122" y="202" type="curve" smooth="yes"/>
      <point x="83" y="202"/>
      <point x="58" y="177"/>
      <point x="58" y="138" type="curve" smooth="yes"/>
      <point x="58" y="57"/>
      <point x="153" y="-9"/>
      <point x="272" y="-9" type="curve" smooth="yes"/>
      <point x="427" y="-9"/>
      <point x="542" y="88"/>
      <point x="542" y="218" type="curve" smooth="yes"/>
      <point x="542" y="480"/>
      <point x="202" y="433"/>
      <point x="202" y="633" type="curve" smooth="yes"/>
      <point x="202" y="686"/>
      <point x="244" y="721"/>
      <point x="306" y="721" type="curve" smooth="yes"/>
      <point x="353" y="721"/>
      <point x="383" y="694"/>
      <point x="396" y="641" type="curve" smooth="yes"/>
      <point x="408" y="594"/>
      <point x="430" y="573"/>
      <point x="467" y="573" type="curve" smooth="yes"/>
      <point x="503" y="573"/>
      <point x="526" y="596"/>
      <point x="526" y="632" type="curve" smooth="yes"/>
      <point x="526" y="714"/>
      <point x="436" y="780"/>
    </contour>
    <contour>
      <point x="334" y="888" type="line"/>
      <point x="274" y="888" type="line"/>
      <point x="274" y="-102" type="line"/>
      <point x="334" y="-102" type="line"/>
    </contour>
  </outline>
</glyph>
<glyph name="dotaccent.cap" format="1">
  <advance width="164"/>
  <outline>
    <contour>
      <point x="10" y="898" type="curve" smooth="yes"/>
      <point x="10" y="863"/>
      <point x="35" y="830"/>
      <point x="81" y="830" type="curve" smooth="yes"/>
      <point x="129" y="830"/>
      <point x="154" y="863"/>
      <point x="154" y="898" type="curve" smooth="yes"/>
      <point x="154" y="933"/>
      <point x="126" y="966"/>
      <point x="81" y="966" type="curve" smooth="yes"/>
      <point x="36" y="966"/>
      <point x="10" y="933"/>
    </contour>
    <contour>
      <point x="81" y="830" type="move" name="_topcap"/>
    </contour>
  </outline>
</glyph>
<glyph name="eight.numerator" format="1">
  <advance width="487"/>
  <outline>
    <contour>
      <point x="327" y="563" type="curve"/>
      <point x="393" y="586"/>
      <point x="428" y="623"/>
      <point x="428" y="670" type="curve" smooth="yes"/>
      <point x="428" y="738"/>
      <point x="355" y="783"/>
      <point x="246" y="783" type="curve" smooth="yes"/>
      <point x="130" y="783"/>
      <point x="56" y="731"/>
      <point x="56" y="649" type="curve" smooth="yes"/>
      <point x="56" y="595"/>
      <point x="85" y="553"/>
      <point x="144" y="518" type="curve"/>
      <point x="68" y="490"/>
      <point x="32" y="452"/>
      <point x="32" y="402" type="curve" smooth="yes"/>
      <point x="32" y="324"/>
      <point x="103" y="267"/>
      <point x="239" y="267" type="curve" smooth="yes"/>
      <point x="366" y="267"/>
      <point x="455" y="331"/>
      <point x="455" y="421" type="curve" smooth="yes"/>
      <point x="455" y="479"/>
      <point x="417" y="522"/>
    </contour>
    <contour>
      <point x="276" y="581" type="curve"/>
      <point x="198" y="614"/>
      <point x="167" y="642"/>
      <point x="167" y="681" type="curve" smooth="yes"/>
      <point x="167" y="719"/>
      <point x="195" y="742"/>
      <point x="240" y="742" type="curve" smooth="yes"/>
      <point x="290" y="742"/>
      <point x="320" y="715"/>
      <point x="320" y="670" type="curve" smooth="yes"/>
      <point x="320" y="637"/>
      <point x="305" y="607"/>
    </contour>
    <contour>
      <point x="189" y="498" type="curve"/>
      <point x="292" y="462"/>
      <point x="336" y="427"/>
      <point x="336" y="382" type="curve" smooth="yes"/>
      <point x="336" y="338"/>
      <point x="300" y="309"/>
      <point x="247" y="309" type="curve" smooth="yes"/>
      <point x="186" y="309"/>
      <point x="153" y="345"/>
      <point x="153" y="410" type="curve" smooth="yes"/>
      <point x="153" y="451"/>
      <point x="166" y="483"/>
    </contour>
  </outline>
</glyph>
<glyph name="eight.oldstyle" format="1">
  <advance width="589"/>
  <outline>
    <contour>
      <point x="417" y="428" type="curve"/>
      <point x="483" y="462"/>
      <point x="527" y="528"/>
      <point x="527" y="595" type="curve" smooth="yes"/>
      <point x="527" y="690"/>
      <point x="433" y="758"/>
      <point x="301" y="758" type="curve" smooth="yes"/>
      <point x="160" y="758"/>
      <point x="64" y="680"/>
      <point x="64" y="565" type="curve" smooth="yes"/>
      <point x="64" y="492"/>
      <point x="102" y="434"/>
      <point x="190" y="370" type="curve"/>
      <point x="96" y="327"/>
      <point x="45" y="262"/>
      <point x="45" y="184" type="curve" smooth="yes"/>
      <point x="45" y="73"/>
      <point x="150" y="-10"/>
      <point x="289" y="-10" type="curve" smooth="yes"/>
      <point x="437" y="-10"/>
      <point x="542" y="83"/>
      <point x="542" y="214" type="curve" smooth="yes"/>
      <point x="542" y="300"/>
      <point x="496" y="379"/>
    </contour>
    <contour>
      <point x="337" y="461" type="curve"/>
      <point x="251" y="506"/>
      <point x="213" y="552"/>
      <point x="213" y="609" type="curve" smooth="yes"/>
      <point x="213" y="663"/>
      <point x="246" y="698"/>
      <point x="297" y="698" type="curve" smooth="yes"/>
      <point x="351" y="698"/>
      <point x="384" y="657"/>
      <point x="384" y="589" type="curve" smooth="yes"/>
      <point x="384" y="538"/>
      <point x="367" y="491"/>
    </contour>
    <contour>
      <point x="268" y="338" type="curve"/>
      <point x="356" y="285"/>
      <point x="396" y="229"/>
      <point x="396" y="159" type="curve" smooth="yes"/>
      <point x="396" y="92"/>
      <point x="360" y="50"/>
      <point x="302" y="50" type="curve" smooth="yes"/>
      <point x="238" y="50"/>
      <point x="200" y="101"/>
      <point x="200" y="187" type="curve" smooth="yes"/>
      <point x="200" y="256"/>
      <point x="224" y="310"/>
    </contour>
  </outline>
</glyph>
<glyph name="eight.tnum" format="1">
  <advance width="600"/>
  <outline>
    <contour>
      <point x="396" y="442" type="curve" name="hr00"/>
      <point x="481" y="479"/>
      <point x="526" y="536"/>
      <point x="526" y="607" type="curve" smooth="yes"/>
      <point x="526" y="710"/>
      <point x="435" y="780"/>
      <point x="300" y="780" type="curve" smooth="yes"/>
      <point x="157" y="780"/>
      <point x="63" y="700"/>
      <point x="63" y="577" type="curve" smooth="yes"/>
      <point x="63" y="496"/>
      <point x="101" y="432"/>
      <point x="181" y="378" type="curve"/>
      <point x="81" y="333"/>
      <point x="34" y="274"/>
      <point x="34" y="196" type="curve" smooth="yes"/>
      <point x="34" y="77"/>
      <point x="127" y="-10"/>
      <point x="291" y="-10" type="curve" smooth="yes"/>
      <point x="448" y="-10"/>
      <point x="561" y="87"/>
      <point x="561" y="223" type="curve" smooth="yes"/>
      <point x="561" y="312"/>
      <point x="512" y="378"/>
    </contour>
    <contour>
      <point x="336" y="469" type="curve"/>
      <point x="234" y="518"/>
      <point x="192" y="563"/>
      <point x="192" y="623" type="curve" smooth="yes"/>
      <point x="192" y="683"/>
      <point x="231" y="720"/>
      <point x="293" y="720" type="curve" smooth="yes"/>
      <point x="360" y="720"/>
      <point x="401" y="677"/>
      <point x="401" y="607" type="curve" smooth="yes"/>
      <point x="401" y="555"/>
      <point x="379" y="509"/>
    </contour>
    <contour>
      <point x="235" y="349" type="curve"/>
      <point x="368" y="293"/>
      <point x="425" y="238"/>
      <point x="425" y="166" type="curve" smooth="yes"/>
      <point x="425" y="96"/>
      <point x="376" y="50"/>
      <point x="303" y="50" type="curve" smooth="yes"/>
      <point x="221" y="50"/>
      <point x="174" y="107"/>
      <point x="174" y="206" type="curve" smooth="yes"/>
      <point x="174" y="272"/>
      <point x="196" y="323"/>
    </contour>
  </outline>
</glyph>
<glyph name="f_f_b" format="1">
  <advance width="1455"/>
  <outline>
    <contour>
      <point x="1147" y="-10" type="curve" smooth="yes"/>
      <point x="1300" y="-10"/>
      <point x="1418" y="118"/>
      <point x="1418" y="287" type="curve" smooth="yes"/>
      <point x="1418" y="437"/>
      <point x="1328" y="540"/>
      <point x="1197" y="540" type="curve" smooth="yes"/>
      <point x="1133" y="540"/>
      <point x="1076" y="513"/>
      <point x="1031" y="469" type="curve"/>
      <point x="1031" y="727" type="line" smooth="yes"/>
      <point x="1031" y="788"/>
      <point x="942" y="829"/>
      <point x="812" y="829" type="curve" smooth="yes"/>
      <point x="706" y="829"/>
      <point x="620" y="802"/>
      <point x="564" y="753" type="curve"/>
      <point x="527" y="770"/>
      <point x="472" y="780"/>
      <point x="408" y="780" type="curve" smooth="yes"/>
      <point x="277" y="780"/>
      <point x="170" y="722"/>
      <point x="133" y="633" type="curve" smooth="yes"/>
      <point x="123" y="610"/>
      <point x="118" y="585"/>
      <point x="116" y="530" type="curve"/>
      <point x="28" y="530" type="line"/>
      <point x="14" y="483" type="line"/>
      <point x="116" y="483" type="line"/>
      <point x="116" y="55" type="line"/>
      <point x="31" y="35" type="line"/>
      <point x="31" y="0" type="line"/>
      <point x="374" y="0" type="line"/>
      <point x="374" y="35" type="line"/>
      <point x="271" y="55" type="line"/>
      <point x="271" y="483" type="line"/>
      <point x="496" y="483" type="line"/>
      <point x="496" y="55" type="line"/>
      <point x="411" y="35" type="line"/>
      <point x="411" y="0" type="line"/>
      <point x="754" y="0" type="line"/>
      <point x="754" y="35" type="line"/>
      <point x="651" y="55" type="line"/>
      <point x="651" y="483" type="line"/>
      <point x="876" y="483" type="line"/>
      <point x="876" y="0" type="line"/>
      <point x="905" y="0" type="line"/>
      <point x="991" y="36" type="line"/>
      <point x="997" y="36" type="line"/>
      <point x="1040" y="6"/>
      <point x="1093" y="-10"/>
    </contour>
    <contour>
      <point x="271" y="530" type="line"/>
      <point x="271" y="590"/>
      <point x="273" y="633"/>
      <point x="283" y="661" type="curve" smooth="yes"/>
      <point x="301" y="708"/>
      <point x="344" y="727"/>
      <point x="389" y="727" type="curve" smooth="yes"/>
      <point x="459" y="727"/>
      <point x="496" y="680"/>
      <point x="496" y="607" type="curve" smooth="yes"/>
      <point x="496" y="530" type="line"/>
    </contour>
    <contour>
      <point x="651" y="530" type="line"/>
      <point x="651" y="564" type="line" smooth="yes"/>
      <point x="651" y="658"/>
      <point x="653" y="687"/>
      <point x="663" y="710" type="curve" smooth="yes"/>
      <point x="680" y="751"/>
      <point x="723" y="776"/>
      <point x="778" y="776" type="curve" smooth="yes"/>
      <point x="840" y="776"/>
      <point x="876" y="743"/>
      <point x="876" y="676" type="curve" smooth="yes"/>
      <point x="876" y="530" type="line"/>
    </contour>
    <contour>
      <point x="1127" y="44" type="curve" smooth="yes"/>
      <point x="1069" y="44"/>
      <point x="1031" y="94"/>
      <point x="1031" y="170" type="curve" smooth="yes"/>
      <point x="1031" y="404" type="line"/>
      <point x="1055" y="440"/>
      <point x="1088" y="462"/>
      <point x="1128" y="462" type="curve" smooth="yes"/>
      <point x="1205" y="462"/>
      <point x="1249" y="386"/>
      <point x="1249" y="259" type="curve" smooth="yes"/>
      <point x="1249" y="130"/>
      <point x="1201" y="44"/>
    </contour>
  </outline>
</glyph>
<glyph name="f_f_h" format="1">
  <advance width="1462"/>
  <outline>
    <contour>
      <point x="31" y="0" type="line"/>
      <point x="374" y="0" type="line"/>
      <point x="374" y="35" type="line"/>
      <point x="271" y="55" type="line"/>
      <point x="271" y="483" type="line"/>
      <point x="495" y="483" type="line"/>
      <point x="495" y="55" type="line"/>
      <point x="410" y="35" type="line"/>
      <point x="410" y="0" type="line"/>
      <point x="753" y="0" type="line"/>
      <point x="753" y="35" type="line"/>
      <point x="650" y="55" type="line"/>
      <point x="650" y="483" type="line"/>
      <point x="805" y="483" type="line"/>
      <point x="819" y="530" type="line"/>
      <point x="650" y="530" type="line"/>
      <point x="650" y="564" type="line" smooth="yes"/>
      <point x="650" y="658"/>
      <point x="652" y="687"/>
      <point x="662" y="710" type="curve" smooth="yes"/>
      <point x="679" y="751"/>
      <point x="722" y="776"/>
      <point x="777" y="776" type="curve" smooth="yes"/>
      <point x="839" y="776"/>
      <point x="875" y="743"/>
      <point x="875" y="676" type="curve" smooth="yes"/>
      <point x="875" y="55" type="line"/>
      <point x="800" y="35" type="line"/>
      <point x="800" y="0" type="line"/>
      <point x="1100" y="0" type="line"/>
      <point x="1100" y="35" type="line"/>
      <point x="1030" y="55" type="line"/>
      <point x="1030" y="419" type="line"/>
      <point x="1054" y="443"/>
      <point x="1081" y="454"/>
      <point x="1115" y="454" type="curve" smooth="yes"/>
      <point x="1161" y="454"/>
      <point x="1188" y="434"/>
      <point x="1204" y="399" type="curve" smooth="yes"/>
      <point x="1213" y="379"/>
      <point x="1214" y="350"/>
      <point x="1214" y="279" type="curve" smooth="yes"/>
      <point x="1214" y="55" type="line"/>
      <point x="1144" y="35" type="line"/>
      <point x="1144" y="0" type="line"/>
      <point x="1444" y="0" type="line"/>
      <point x="1444" y="35" type="line"/>
      <point x="1369" y="55" type="line"/>
      <point x="1369" y="318" type="line" smooth="yes"/>
      <point x="1369" y="410"/>
      <point x="1366" y="435"/>
      <point x="1354" y="460" type="curve" smooth="yes"/>
      <point x="1328" y="513"/>
      <point x="1279" y="540"/>
      <point x="1212" y="540" type="curve" smooth="yes"/>
      <point x="1148" y="540"/>
      <point x="1077" y="515"/>
      <point x="1030" y="479" type="curve"/>
      <point x="1030" y="727" type="line" smooth="yes"/>
      <point x="1030" y="788"/>
      <point x="941" y="829"/>
      <point x="811" y="829" type="curve" smooth="yes"/>
      <point x="705" y="829"/>
      <point x="619" y="802"/>
      <point x="564" y="753" type="curve"/>
      <point x="526" y="770"/>
      <point x="472" y="780"/>
      <point x="408" y="780" type="curve" smooth="yes"/>
      <point x="277" y="780"/>
      <point x="170" y="722"/>
      <point x="133" y="633" type="curve" smooth="yes"/>
      <point x="123" y="610"/>
      <point x="118" y="585"/>
      <point x="116" y="530" type="curve"/>
      <point x="28" y="530" type="line"/>
      <point x="14" y="483" type="line"/>
      <point x="116" y="483" type="line"/>
      <point x="116" y="55" type="line"/>
      <point x="31" y="35" type="line"/>
    </contour>
    <contour>
      <point x="271" y="530" type="line"/>
      <point x="271" y="590"/>
      <point x="273" y="633"/>
      <point x="283" y="661" type="curve" smooth="yes"/>
      <point x="301" y="708"/>
      <point x="344" y="727"/>
      <point x="389" y="727" type="curve" smooth="yes"/>
      <point x="457" y="727"/>
      <point x="495" y="682"/>
      <point x="495" y="611" type="curve" smooth="yes"/>
      <point x="495" y="530" type="line"/>
    </contour>
  </outline>
</glyph>
<glyph name="f_f_j" format="1">
  <advance width="1111"/>
  <outline>
    <contour>
      <point x="31" y="0" type="line"/>
      <point x="374" y="0" type="line"/>
      <point x="374" y="35" type="line"/>
      <point x="271" y="55" type="line"/>
      <point x="271" y="483" type="line"/>
      <point x="497" y="483" type="line"/>
      <point x="497" y="55" type="line"/>
      <point x="412" y="35" type="line"/>
      <point x="412" y="0" type="line"/>
      <point x="755" y="0" type="line"/>
      <point x="755" y="35" type="line"/>
      <point x="652" y="55" type="line"/>
      <point x="652" y="483" type="line"/>
      <point x="792" y="483" type="line"/>
      <point x="877" y="441" type="line"/>
      <point x="877" y="-48" type="line" smooth="yes"/>
      <point x="877" y="-156"/>
      <point x="853" y="-208"/>
      <point x="805" y="-208" type="curve" smooth="yes"/>
      <point x="777" y="-208"/>
      <point x="761" y="-192"/>
      <point x="738" y="-144" type="curve" smooth="yes"/>
      <point x="720" y="-108"/>
      <point x="703" y="-96"/>
      <point x="672" y="-96" type="curve" smooth="yes"/>
      <point x="631" y="-96"/>
      <point x="605" y="-120"/>
      <point x="605" y="-158" type="curve" smooth="yes"/>
      <point x="605" y="-219"/>
      <point x="676" y="-260"/>
      <point x="782" y="-260" type="curve" smooth="yes"/>
      <point x="880" y="-260"/>
      <point x="944" y="-225"/>
      <point x="990" y="-146" type="curve" smooth="yes"/>
      <point x="1022" y="-91"/>
      <point x="1032" y="-40"/>
      <point x="1032" y="69" type="curve" smooth="yes"/>
      <point x="1032" y="550" type="line"/>
      <point x="1011" y="550" type="line"/>
      <point x="792" y="530" type="line"/>
      <point x="652" y="530" type="line"/>
      <point x="652" y="564" type="line" smooth="yes"/>
      <point x="652" y="656"/>
      <point x="654" y="686"/>
      <point x="664" y="710" type="curve" smooth="yes"/>
      <point x="680" y="752"/>
      <point x="724" y="776"/>
      <point x="787" y="776" type="curve" smooth="yes"/>
      <point x="835" y="776"/>
      <point x="847" y="766"/>
      <point x="870" y="706" type="curve" smooth="yes"/>
      <point x="888" y="657"/>
      <point x="920" y="632"/>
      <point x="963" y="632" type="curve" smooth="yes"/>
      <point x="1008" y="632"/>
      <point x="1039" y="663"/>
      <point x="1039" y="707" type="curve" smooth="yes"/>
      <point x="1039" y="780"/>
      <point x="946" y="829"/>
      <point x="808" y="829" type="curve" smooth="yes"/>
      <point x="706" y="829"/>
      <point x="620" y="801"/>
      <point x="565" y="752" type="curve"/>
      <point x="528" y="770"/>
      <point x="473" y="780"/>
      <point x="408" y="780" type="curve" smooth="yes"/>
      <point x="278" y="780"/>
      <point x="170" y="722"/>
      <point x="133" y="633" type="curve" smooth="yes"/>
      <point x="123" y="610"/>
      <point x="118" y="585"/>
      <point x="116" y="530" type="curve"/>
      <point x="28" y="530" type="line"/>
      <point x="14" y="483" type="line"/>
      <point x="116" y="483" type="line"/>
      <point x="116" y="55" type="line"/>
      <point x="31" y="35" type="line"/>
    </contour>
    <contour>
      <point x="271" y="530" type="line"/>
      <point x="271" y="589"/>
      <point x="272" y="633"/>
      <point x="283" y="661" type="curve" smooth="yes"/>
      <point x="300" y="708"/>
      <point x="344" y="727"/>
      <point x="389" y="727" type="curve" smooth="yes"/>
      <point x="459" y="727"/>
      <point x="497" y="685"/>
      <point x="497" y="606" type="curve" smooth="yes"/>
      <point x="497" y="530" type="line"/>
    </contour>
  </outline>
</glyph>
<glyph name="f_f_t" format="1">
  <advance width="1187"/>
  <outline>
    <contour>
      <point x="1022" y="-10" type="curve" smooth="yes"/>
      <point x="1086" y="-10"/>
      <point x="1145" y="13"/>
      <point x="1180" y="57" type="curve"/>
      <point x="1157" y="90" type="line"/>
      <point x="1139" y="69"/>
      <point x="1118" y="62"/>
      <point x="1097" y="62" type="curve" smooth="yes"/>
      <point x="1071" y="62"/>
      <point x="1053" y="72"/>
      <point x="1042" y="90" type="curve" smooth="yes"/>
      <point x="1034" y="102"/>
      <point x="1032" y="117"/>
      <point x="1032" y="166" type="curve" smooth="yes"/>
      <point x="1032" y="483" type="line"/>
      <point x="1172" y="483" type="line"/>
      <point x="1187" y="530" type="line"/>
      <point x="1032" y="530" type="line"/>
      <point x="1032" y="659" type="line"/>
      <point x="1001" y="664" type="line"/>
      <point x="826" y="530" type="line"/>
      <point x="652" y="530" type="line"/>
      <point x="652" y="585" type="line" smooth="yes"/>
      <point x="652" y="656"/>
      <point x="653" y="702"/>
      <point x="664" y="732" type="curve" smooth="yes"/>
      <point x="677" y="768"/>
      <point x="702" y="779"/>
      <point x="730" y="779" type="curve" smooth="yes"/>
      <point x="767" y="779"/>
      <point x="775" y="760"/>
      <point x="785" y="727" type="curve" smooth="yes"/>
      <point x="795" y="694"/>
      <point x="813" y="666"/>
      <point x="855" y="666" type="curve" smooth="yes"/>
      <point x="896" y="666"/>
      <point x="924" y="693"/>
      <point x="924" y="731" type="curve" smooth="yes"/>
      <point x="924" y="791"/>
      <point x="854" y="830"/>
      <point x="752" y="830" type="curve" smooth="yes"/>
      <point x="667" y="830"/>
      <point x="596" y="803"/>
      <point x="551" y="758" type="curve"/>
      <point x="516" y="772"/>
      <point x="468" y="780"/>
      <point x="417" y="780" type="curve" smooth="yes"/>
      <point x="276" y="780"/>
      <point x="164" y="718"/>
      <point x="132" y="633" type="curve" smooth="yes"/>
      <point x="123" y="610"/>
      <point x="117" y="574"/>
      <point x="116" y="530" type="curve"/>
      <point x="28" y="530" type="line"/>
      <point x="14" y="483" type="line"/>
      <point x="116" y="483" type="line"/>
      <point x="116" y="55" type="line"/>
      <point x="31" y="35" type="line"/>
      <point x="31" y="0" type="line"/>
      <point x="374" y="0" type="line"/>
      <point x="374" y="35" type="line"/>
      <point x="271" y="55" type="line"/>
      <point x="271" y="483" type="line"/>
      <point x="497" y="483" type="line"/>
      <point x="497" y="55" type="line"/>
      <point x="412" y="35" type="line"/>
      <point x="412" y="0" type="line"/>
      <point x="775" y="0" type="line"/>
      <point x="775" y="35" type="line"/>
      <point x="652" y="55" type="line"/>
      <point x="652" y="483" type="line"/>
      <point x="877" y="483" type="line"/>
      <point x="877" y="132" type="line" smooth="yes"/>
      <point x="877" y="78"/>
      <point x="885" y="40"/>
      <point x="915" y="18" type="curve" smooth="yes"/>
      <point x="940" y="0"/>
      <point x="979" y="-10"/>
    </contour>
    <contour>
      <point x="271" y="530" type="line"/>
      <point x="271" y="609"/>
      <point x="274" y="638"/>
      <point x="283" y="661" type="curve" smooth="yes"/>
      <point x="300" y="704"/>
      <point x="337" y="727"/>
      <point x="390" y="727" type="curve" smooth="yes"/>
      <point x="454" y="727"/>
      <point x="486" y="694"/>
      <point x="498" y="617" type="curve"/>
      <point x="497" y="595"/>
      <point x="497" y="566"/>
      <point x="497" y="530" type="curve"/>
    </contour>
  </outline>
</glyph>
<glyph name="f_j" format="1">
  <advance width="730"/>
  <outline>
    <contour>
      <point x="31" y="0" type="line"/>
      <point x="374" y="0" type="line"/>
      <point x="374" y="35" type="line"/>
      <point x="271" y="55" type="line"/>
      <point x="271" y="483" type="line"/>
      <point x="411" y="483" type="line"/>
      <point x="496" y="441" type="line"/>
      <point x="496" y="-48" type="line" smooth="yes"/>
      <point x="496" y="-156"/>
      <point x="472" y="-208"/>
      <point x="424" y="-208" type="curve" smooth="yes"/>
      <point x="396" y="-208"/>
      <point x="380" y="-192"/>
      <point x="357" y="-144" type="curve" smooth="yes"/>
      <point x="339" y="-108"/>
      <point x="322" y="-96"/>
      <point x="291" y="-96" type="curve" smooth="yes"/>
      <point x="250" y="-96"/>
      <point x="224" y="-120"/>
      <point x="224" y="-158" type="curve" smooth="yes"/>
      <point x="224" y="-219"/>
      <point x="295" y="-260"/>
      <point x="401" y="-260" type="curve" smooth="yes"/>
      <point x="499" y="-260"/>
      <point x="563" y="-225"/>
      <point x="609" y="-146" type="curve" smooth="yes"/>
      <point x="641" y="-91"/>
      <point x="651" y="-40"/>
      <point x="651" y="69" type="curve" smooth="yes"/>
      <point x="651" y="550" type="line"/>
      <point x="630" y="550" type="line"/>
      <point x="411" y="530" type="line"/>
      <point x="271" y="530" type="line"/>
      <point x="271" y="564" type="line" smooth="yes"/>
      <point x="271" y="656"/>
      <point x="273" y="686"/>
      <point x="283" y="710" type="curve" smooth="yes"/>
      <point x="299" y="752"/>
      <point x="343" y="776"/>
      <point x="406" y="776" type="curve" smooth="yes"/>
      <point x="454" y="776"/>
      <point x="466" y="766"/>
      <point x="489" y="706" type="curve" smooth="yes"/>
      <point x="507" y="657"/>
      <point x="539" y="632"/>
      <point x="582" y="632" type="curve" smooth="yes"/>
      <point x="627" y="632"/>
      <point x="658" y="663"/>
      <point x="658" y="707" type="curve" smooth="yes"/>
      <point x="658" y="780"/>
      <point x="565" y="829"/>
      <point x="427" y="829" type="curve" smooth="yes"/>
      <point x="283" y="829"/>
      <point x="172" y="773"/>
      <point x="133" y="682" type="curve" smooth="yes"/>
      <point x="120" y="653"/>
      <point x="116" y="622"/>
      <point x="116" y="530" type="curve"/>
      <point x="28" y="530" type="line"/>
      <point x="14" y="483" type="line"/>
      <point x="116" y="483" type="line"/>
      <point x="116" y="55" type="line"/>
      <point x="31" y="35" type="line"/>
    </contour>
  </outline>
</glyph>
<glyph name="five.oldstyle" format="1">
  <advance width="472"/>
  <outline>
    <contour>
      <point x="194" y="400" type="line"/>
      <point x="379" y="400" type="line"/>
      <point x="425" y="553" type="line"/>
      <point x="388" y="564" type="line"/>
      <point x="358" y="520" type="line"/>
      <point x="147" y="520" type="line"/>
      <point x="84" y="158" type="line"/>
      <point x="219" y="134"/>
      <point x="286" y="75"/>
      <point x="286" y="-20" type="curve" smooth="yes"/>
      <point x="286" y="-97"/>
      <point x="240" y="-151"/>
      <point x="173" y="-151" type="curve" smooth="yes"/>
      <point x="109" y="-151"/>
      <point x="95" y="-94"/>
      <point x="52" y="-94" type="curve" smooth="yes"/>
      <point x="27" y="-94"/>
      <point x="8" y="-113"/>
      <point x="8" y="-140" type="curve" smooth="yes"/>
      <point x="8" y="-184"/>
      <point x="60" y="-211"/>
      <point x="143" y="-211" type="curve" smooth="yes"/>
      <point x="314" y="-211"/>
      <point x="440" y="-102"/>
      <point x="440" y="45" type="curve" smooth="yes"/>
      <point x="440" y="168"/>
      <point x="346" y="273"/>
      <point x="178" y="305" type="curve"/>
    </contour>
  </outline>
</glyph>
<glyph name="five.tnum" format="1">
  <advance width="600"/>
  <outline>
    <contour>
      <point x="220" y="620" type="line" name="hr00"/>
      <point x="468" y="620" type="line"/>
      <point x="512" y="790" type="line"/>
      <point x="476" y="807" type="line"/>
      <point x="461" y="779"/>
      <point x="454" y="767"/>
      <point x="445" y="757" type="curve"/>
      <point x="173" y="757" type="line"/>
      <point x="114" y="328" type="line"/>
      <point x="155" y="328" type="line"/>
      <point x="183" y="347"/>
      <point x="219" y="357"/>
      <point x="255" y="357" type="curve" smooth="yes"/>
      <point x="344" y="357"/>
      <point x="406" y="294"/>
      <point x="406" y="205" type="curve" smooth="yes"/>
      <point x="406" y="117"/>
      <point x="353" y="54"/>
      <point x="278" y="54" type="curve" smooth="yes"/>
      <point x="167" y="54"/>
      <point x="212" y="194"/>
      <point x="122" y="194" type="curve" smooth="yes"/>
      <point x="80" y="194"/>
      <point x="51" y="163"/>
      <point x="51" y="120" type="curve" smooth="yes"/>
      <point x="51" y="45"/>
      <point x="135" y="-10"/>
      <point x="249" y="-10" type="curve" smooth="yes"/>
      <point x="415" y="-10"/>
      <point x="540" y="109"/>
      <point x="540" y="269" type="curve" smooth="yes"/>
      <point x="540" y="408"/>
      <point x="437" y="500"/>
      <point x="282" y="500" type="curve" smooth="yes"/>
      <point x="256" y="500"/>
      <point x="229" y="500"/>
      <point x="203" y="490" type="curve"/>
    </contour>
  </outline>
</glyph>
<glyph name="four.denominator" format="1">
  <advance width="461"/>
  <outline>
    <contour>
      <point x="225" y="42" type="line"/>
      <point x="132" y="26" type="line"/>
      <point x="132" y="0" type="line"/>
      <point x="431" y="0" type="line"/>
      <point x="431" y="26" type="line"/>
      <point x="362" y="42" type="line"/>
      <point x="362" y="123" type="line"/>
      <point x="434" y="123" type="line"/>
      <point x="434" y="189" type="line"/>
      <point x="362" y="189" type="line"/>
      <point x="362" y="503" type="line"/>
      <point x="284" y="509" type="line"/>
      <point x="2" y="166" type="line"/>
      <point x="19" y="123" type="line"/>
      <point x="225" y="123" type="line"/>
    </contour>
    <contour>
      <point x="225" y="189" type="line"/>
      <point x="90" y="189" type="line"/>
      <point x="89" y="193" type="line"/>
      <point x="221" y="356" type="line"/>
      <point x="225" y="356" type="line"/>
    </contour>
  </outline>
</glyph>
<glyph name="four.oldstyle" format="1">
  <advance width="577"/>
  <outline>
    <contour>
      <point x="297" y="-181" type="line"/>
      <point x="452" y="-181" type="line"/>
      <point x="452" y="10" type="line"/>
      <point x="555" y="10" type="line"/>
      <point x="555" y="108" type="line"/>
      <point x="452" y="108" type="line"/>
      <point x="452" y="530" type="line"/>
      <point x="372" y="540" type="line"/>
      <point x="-1" y="68" type="line"/>
      <point x="17" y="10" type="line"/>
      <point x="297" y="10" type="line"/>
    </contour>
    <contour>
      <point x="297" y="108" type="line"/>
      <point x="111" y="108" type="line"/>
      <point x="110" y="112" type="line"/>
      <point x="293" y="341" type="line"/>
      <point x="297" y="341" type="line"/>
    </contour>
  </outline>
</glyph>
<glyph name="four.tnum" format="1">
  <advance width="600"/>
  <outline>
    <contour>
      <point x="327" y="60" type="line" name="hr00"/>
      <point x="207" y="37" type="line"/>
      <point x="207" y="0" type="line"/>
      <point x="571" y="0" type="line"/>
      <point x="571" y="37" type="line"/>
      <point x="482" y="60" type="line"/>
      <point x="482" y="192" type="line"/>
      <point x="575" y="192" type="line"/>
      <point x="575" y="290" type="line"/>
      <point x="482" y="290" type="line"/>
      <point x="482" y="770" type="line"/>
      <point x="402" y="780" type="line"/>
      <point x="29" y="250" type="line"/>
      <point x="47" y="192" type="line"/>
      <point x="327" y="192" type="line"/>
    </contour>
    <contour>
      <point x="327" y="290" type="line"/>
      <point x="137" y="290" type="line"/>
      <point x="136" y="294" type="line"/>
      <point x="323" y="556" type="line"/>
      <point x="327" y="556" type="line"/>
    </contour>
  </outline>
</glyph>
<glyph name="nine.denominator" format="1">
  <advance width="469"/>
  <outline>
    <contour>
      <point x="229" y="507" type="curve"/>
      <point x="103" y="507"/>
      <point x="18" y="442"/>
      <point x="18" y="347" type="curve" smooth="yes"/>
      <point x="18" y="263"/>
      <point x="92" y="199"/>
      <point x="191" y="199" type="curve" smooth="yes"/>
      <point x="232" y="199"/>
      <point x="263" y="212"/>
      <point x="280" y="233" type="curve"/>
      <point x="270" y="162"/>
      <point x="185" y="62"/>
      <point x="101" y="22" type="curve"/>
      <point x="123" y="-7" type="line"/>
      <point x="313" y="48"/>
      <point x="437" y="179"/>
      <point x="437" y="323" type="curve" smooth="yes"/>
      <point x="437" y="437"/>
      <point x="358" y="507"/>
    </contour>
    <contour>
      <point x="222" y="466" type="curve"/>
      <point x="264" y="466"/>
      <point x="291" y="420"/>
      <point x="291" y="347" type="curve" smooth="yes"/>
      <point x="291" y="325"/>
      <point x="288" y="303"/>
      <point x="282" y="286" type="curve"/>
      <point x="270" y="264"/>
      <point x="250" y="251"/>
      <point x="227" y="251" type="curve" smooth="yes"/>
      <point x="185" y="251"/>
      <point x="159" y="292"/>
      <point x="159" y="358" type="curve" smooth="yes"/>
      <point x="159" y="425"/>
      <point x="183" y="466"/>
    </contour>
  </outline>
</glyph>
<glyph name="one.numerator" format="1">
  <advance width="350"/>
  <outline>
    <contour>
      <point x="211" y="783" type="line"/>
      <point x="153" y="739"/>
      <point x="101" y="714"/>
      <point x="25" y="705" type="curve"/>
      <point x="25" y="674" type="line"/>
      <point x="119" y="674" type="line"/>
      <point x="119" y="317" type="line"/>
      <point x="26" y="299" type="line"/>
      <point x="26" y="274" type="line"/>
      <point x="351" y="274" type="line"/>
      <point x="351" y="299" type="line"/>
      <point x="254" y="317" type="line"/>
      <point x="254" y="778" type="line"/>
    </contour>
  </outline>
</glyph>
<glyph name="periodcentered.tnum" format="1">
  <advance width="300"/>
  <outline>
    <contour>
      <point x="60" y="287" type="curve" smooth="yes"/>
      <point x="60" y="236"/>
      <point x="96" y="201"/>
      <point x="149" y="201" type="curve" smooth="yes"/>
      <point x="202" y="201"/>
      <point x="240" y="237"/>
      <point x="240" y="287" type="curve" smooth="yes"/>
      <point x="240" y="338"/>
      <point x="201" y="375"/>
      <point x="148" y="375" type="curve" smooth="yes"/>
      <point x="96" y="375"/>
      <point x="60" y="338"/>
    </contour>
  </outline>
</glyph>
<glyph name="quotedbl.tnum" format="1">
  <advance width="300"/>
  <outline>
    <contour>
      <point x="98" y="505" type="line"/>
      <point x="102" y="621"/>
      <point x="136" y="715"/>
      <point x="136" y="764" type="curve" smooth="yes"/>
      <point x="136" y="802"/>
      <point x="115" y="830"/>
      <point x="73" y="830" type="curve" smooth="yes"/>
      <point x="34" y="830"/>
      <point x="10" y="803"/>
      <point x="10" y="760" type="curve" smooth="yes"/>
      <point x="10" y="714"/>
      <point x="45" y="620"/>
      <point x="48" y="505" type="curve"/>
    </contour>
    <contour>
      <point x="252" y="505" type="line"/>
      <point x="256" y="621"/>
      <point x="290" y="715"/>
      <point x="290" y="764" type="curve" smooth="yes"/>
      <point x="290" y="802"/>
      <point x="269" y="830"/>
      <point x="227" y="830" type="curve" smooth="yes"/>
      <point x="188" y="830"/>
      <point x="164" y="803"/>
      <point x="164" y="760" type="curve" smooth="yes"/>
      <point x="164" y="714"/>
      <point x="199" y="620"/>
      <point x="202" y="505" type="curve"/>
    </contour>
  </outline>
</glyph>
<glyph name="quotesingle.tnum" format="1">
  <advance width="300"/>
  <outline>
    <contour>
      <point x="175" y="505" type="line"/>
      <point x="179" y="621"/>
      <point x="213" y="715"/>
      <point x="213" y="764" type="curve" smooth="yes"/>
      <point x="213" y="802"/>
      <point x="190" y="830"/>
      <point x="150" y="830" type="curve" smooth="yes"/>
      <point x="111" y="830"/>
      <point x="87" y="803"/>
      <point x="87" y="760" type="curve" smooth="yes"/>
      <point x="87" y="714"/>
      <point x="122" y="620"/>
      <point x="125" y="505" type="curve"/>
    </contour>
  </outline>
</glyph>
<glyph name="section.tnum" format="1">
  <advance width="600"/>
  <outline>
    <contour>
      <point x="295" y="829" type="curve" smooth="yes"/>
      <point x="165" y="829"/>
      <point x="91" y="769"/>
      <point x="91" y="665" type="curve" smooth="yes"/>
      <point x="91" y="573"/>
      <point x="149" y="521"/>
      <point x="212" y="479" type="curve"/>
      <point x="133" y="455"/>
      <point x="90" y="401"/>
      <point x="90" y="324" type="curve" smooth="yes"/>
      <point x="90" y="128"/>
      <point x="369" y="120"/>
      <point x="369" y="-24" type="curve" smooth="yes"/>
      <point x="369" y="-73"/>
      <point x="337" y="-107"/>
      <point x="297" y="-107" type="curve" smooth="yes"/>
      <point x="259" y="-107"/>
      <point x="239" y="-94"/>
      <point x="222" y="-42" type="curve" smooth="yes"/>
      <point x="205" y="9"/>
      <point x="187" y="27"/>
      <point x="156" y="27" type="curve" smooth="yes"/>
      <point x="117" y="27"/>
      <point x="89" y="-1"/>
      <point x="89" y="-40" type="curve" smooth="yes"/>
      <point x="89" y="-108"/>
      <point x="174" y="-157"/>
      <point x="291" y="-157" type="curve" smooth="yes"/>
      <point x="425" y="-157"/>
      <point x="503" y="-92"/>
      <point x="503" y="19" type="curve" smooth="yes"/>
      <point x="503" y="108"/>
      <point x="452" y="160"/>
      <point x="394" y="200" type="curve"/>
      <point x="465" y="228"/>
      <point x="504" y="283"/>
      <point x="504" y="360" type="curve" smooth="yes"/>
      <point x="504" y="563"/>
      <point x="227" y="564"/>
      <point x="227" y="706" type="curve" smooth="yes"/>
      <point x="227" y="751"/>
      <point x="255" y="780"/>
      <point x="299" y="780" type="curve" smooth="yes"/>
      <point x="333" y="780"/>
      <point x="347" y="766"/>
      <point x="365" y="715" type="curve" smooth="yes"/>
      <point x="381" y="666"/>
      <point x="400" y="646"/>
      <point x="432" y="646" type="curve" smooth="yes"/>
      <point x="470" y="646"/>
      <point x="498" y="674"/>
      <point x="498" y="713" type="curve" smooth="yes"/>
      <point x="498" y="780"/>
      <point x="413" y="829"/>
    </contour>
    <contour>
      <point x="370" y="317" type="curve" smooth="yes"/>
      <point x="370" y="283"/>
      <point x="354" y="257"/>
      <point x="327" y="243" type="curve"/>
      <point x="272" y="277"/>
      <point x="226" y="310"/>
      <point x="226" y="366" type="curve" smooth="yes"/>
      <point x="226" y="401"/>
      <point x="244" y="424"/>
      <point x="282" y="435" type="curve"/>
      <point x="331" y="402"/>
      <point x="370" y="368"/>
    </contour>
  </outline>
</glyph>
<glyph name="semicolon.tnum" format="1">
  <advance width="300"/>
  <outline>
    <contour>
      <point x="63" y="388" type="curve" smooth="yes"/>
      <point x="63" y="347"/>
      <point x="92" y="306"/>
      <point x="148" y="306" type="curve" smooth="yes"/>
      <point x="207" y="306"/>
      <point x="237" y="347"/>
      <point x="237" y="388" type="curve" smooth="yes"/>
      <point x="237" y="432"/>
      <point x="203" y="471"/>
      <point x="148" y="471" type="curve" smooth="yes"/>
      <point x="94" y="471"/>
      <point x="63" y="432"/>
    </contour>
    <contour>
      <point x="105" y="-169" type="line"/>
      <point x="188" y="-125"/>
      <point x="237" y="-49"/>
      <point x="237" y="37" type="curve" smooth="yes"/>
      <point x="237" y="110"/>
      <point x="203" y="155"/>
      <point x="148" y="155" type="curve" smooth="yes"/>
      <point x="99" y="155"/>
      <point x="63" y="122"/>
      <point x="63" y="77" type="curve" smooth="yes"/>
      <point x="63" y="5"/>
      <point x="157" y="12"/>
      <point x="157" y="-35" type="curve" smooth="yes"/>
      <point x="157" y="-62"/>
      <point x="125" y="-104"/>
      <point x="81" y="-136" type="curve"/>
    </contour>
  </outline>
</glyph>
<glyph name="seven.denominator" format="1">
  <advance width="421"/>
  <outline>
    <contour>
      <point x="119" y="494" type="line"/>
      <point x="114" y="520" type="line"/>
      <point x="81" y="526" type="line"/>
      <point x="9" y="356" type="line"/>
      <point x="43" y="344" type="line"/>
      <point x="85" y="398" type="line"/>
      <point x="298" y="398" type="line"/>
      <point x="110" y="108" type="line" smooth="yes"/>
      <point x="90" y="77"/>
      <point x="79" y="52"/>
      <point x="79" y="35" type="curve" smooth="yes"/>
      <point x="79" y="9"/>
      <point x="104" y="-7"/>
      <point x="143" y="-7" type="curve" smooth="yes"/>
      <point x="174" y="-7"/>
      <point x="196" y="9"/>
      <point x="209" y="39" type="curve" smooth="yes"/>
      <point x="304" y="262"/>
      <point x="316" y="289"/>
      <point x="417" y="474" type="curve"/>
      <point x="403" y="494" type="line"/>
    </contour>
  </outline>
</glyph>
<glyph name="seven.oldstyle" format="1">
  <advance width="501"/>
  <outline>
    <contour>
      <point x="140" y="520" type="line"/>
      <point x="136" y="548" type="line"/>
      <point x="98" y="555" type="line"/>
      <point x="13" y="345" type="line"/>
      <point x="53" y="326" type="line"/>
      <point x="70" y="360"/>
      <point x="82" y="379"/>
      <point x="101" y="400" type="curve"/>
      <point x="377" y="400" type="line"/>
      <point x="105" y="-8" type="line" smooth="yes"/>
      <point x="78" y="-49"/>
      <point x="65" y="-84"/>
      <point x="65" y="-119" type="curve" smooth="yes"/>
      <point x="65" y="-168"/>
      <point x="90" y="-197"/>
      <point x="133" y="-197" type="curve" smooth="yes"/>
      <point x="173" y="-197"/>
      <point x="200" y="-172"/>
      <point x="222" y="-114" type="curve" smooth="yes"/>
      <point x="346" y="211"/>
      <point x="357" y="234"/>
      <point x="504" y="488" type="curve"/>
      <point x="486" y="520" type="line"/>
    </contour>
  </outline>
</glyph>
<glyph name="seven.tnum" format="1">
  <advance width="600"/>
  <outline>
    <contour>
      <point x="176" y="757" type="line" name="hr00"/>
      <point x="172" y="766"/>
      <point x="170" y="784"/>
      <point x="170" y="795" type="curve"/>
      <point x="133" y="803" type="line"/>
      <point x="45" y="555" type="line"/>
      <point x="83" y="538" type="line"/>
      <point x="103" y="577"/>
      <point x="120" y="600"/>
      <point x="140" y="620" type="curve"/>
      <point x="419" y="620" type="line"/>
      <point x="176" y="164" type="line" smooth="yes"/>
      <point x="150" y="115"/>
      <point x="136" y="78"/>
      <point x="136" y="51" type="curve" smooth="yes"/>
      <point x="136" y="13"/>
      <point x="164" y="-10"/>
      <point x="209" y="-10" type="curve" smooth="yes"/>
      <point x="246" y="-10"/>
      <point x="272" y="13"/>
      <point x="288" y="58" type="curve" smooth="yes"/>
      <point x="407" y="402"/>
      <point x="422" y="440"/>
      <point x="553" y="729" type="curve"/>
      <point x="537" y="757" type="line"/>
    </contour>
  </outline>
</glyph>
<glyph name="six.tnum" format="1">
  <advance width="600"/>
  <outline>
    <contour>
      <point x="298" y="-10" type="curve" smooth="yes" name="hr00"/>
      <point x="456" y="-10"/>
      <point x="564" y="90"/>
      <point x="564" y="236" type="curve" smooth="yes"/>
      <point x="564" y="372"/>
      <point x="471" y="472"/>
      <point x="343" y="472" type="curve" smooth="yes"/>
      <point x="288" y="472"/>
      <point x="243" y="453"/>
      <point x="219" y="420" type="curve"/>
      <point x="233" y="528"/>
      <point x="345" y="677"/>
      <point x="456" y="737" type="curve"/>
      <point x="433" y="777" type="line"/>
      <point x="193" y="693"/>
      <point x="36" y="493"/>
      <point x="36" y="272" type="curve" smooth="yes"/>
      <point x="36" y="97"/>
      <point x="135" y="-10"/>
    </contour>
    <contour>
      <point x="306" y="50" type="curve" smooth="yes"/>
      <point x="244" y="50"/>
      <point x="205" y="122"/>
      <point x="205" y="237" type="curve" smooth="yes"/>
      <point x="205" y="275"/>
      <point x="209" y="313"/>
      <point x="217" y="343" type="curve"/>
      <point x="234" y="377"/>
      <point x="265" y="397"/>
      <point x="299" y="397" type="curve" smooth="yes"/>
      <point x="361" y="397"/>
      <point x="400" y="328"/>
      <point x="400" y="219" type="curve" smooth="yes"/>
      <point x="400" y="115"/>
      <point x="364" y="50"/>
    </contour>
  </outline>
</glyph>
<glyph name="slash.tnum" format="1">
  <advance width="300"/>
  <outline>
    <contour>
      <point x="99" y="-169" type="line"/>
      <point x="300" y="819" type="line"/>
      <point x="200" y="819" type="line"/>
      <point x="0" y="-169" type="line"/>
    </contour>
  </outline>
</glyph>
<glyph name="three.denominator" format="1">
  <advance width="445"/>
  <outline>
    <contour>
      <point x="122" y="237" type="line"/>
      <point x="130" y="239"/>
      <point x="150" y="240"/>
      <point x="163" y="240" type="curve" smooth="yes"/>
      <point x="231" y="240"/>
      <point x="268" y="198"/>
      <point x="268" y="127" type="curve" smooth="yes"/>
      <point x="268" y="70"/>
      <point x="247" y="38"/>
      <point x="204" y="38" type="curve" smooth="yes"/>
      <point x="126" y="38"/>
      <point x="154" y="134"/>
      <point x="80" y="134" type="curve" smooth="yes"/>
      <point x="44" y="134"/>
      <point x="20" y="113"/>
      <point x="20" y="84" type="curve" smooth="yes"/>
      <point x="20" y="33"/>
      <point x="92" y="-7"/>
      <point x="184" y="-7" type="curve" smooth="yes"/>
      <point x="313" y="-7"/>
      <point x="414" y="71"/>
      <point x="414" y="166" type="curve" smooth="yes"/>
      <point x="414" y="241"/>
      <point x="354" y="290"/>
      <point x="264" y="297" type="curve"/>
      <point x="264" y="301" type="line"/>
      <point x="322" y="310"/>
      <point x="378" y="353"/>
      <point x="378" y="406" type="curve" smooth="yes"/>
      <point x="378" y="468"/>
      <point x="318" y="509"/>
      <point x="227" y="509" type="curve" smooth="yes"/>
      <point x="136" y="509"/>
      <point x="66" y="464"/>
      <point x="48" y="396" type="curve"/>
      <point x="79" y="386" type="line"/>
      <point x="99" y="421"/>
      <point x="142" y="445"/>
      <point x="181" y="445" type="curve" smooth="yes"/>
      <point x="221" y="445"/>
      <point x="244" y="424"/>
      <point x="244" y="391" type="curve" smooth="yes"/>
      <point x="244" y="343"/>
      <point x="190" y="294"/>
      <point x="107" y="268" type="curve"/>
    </contour>
  </outline>
</glyph>
<glyph name="three.tnum" format="1">
  <advance width="600"/>
  <outline>
    <contour>
      <point x="186" y="364" type="line" name="hr00"/>
      <point x="200" y="367"/>
      <point x="224" y="369"/>
      <point x="240" y="369" type="curve" smooth="yes"/>
      <point x="329" y="369"/>
      <point x="385" y="303"/>
      <point x="385" y="196" type="curve" smooth="yes"/>
      <point x="385" y="108"/>
      <point x="347" y="54"/>
      <point x="285" y="54" type="curve" smooth="yes"/>
      <point x="181" y="54"/>
      <point x="219" y="202"/>
      <point x="126" y="202" type="curve" smooth="yes"/>
      <point x="83" y="202"/>
      <point x="55" y="172"/>
      <point x="55" y="128" type="curve" smooth="yes"/>
      <point x="55" y="51"/>
      <point x="145" y="-10"/>
      <point x="260" y="-10" type="curve" smooth="yes"/>
      <point x="420" y="-10"/>
      <point x="547" y="108"/>
      <point x="547" y="255" type="curve" smooth="yes"/>
      <point x="547" y="369"/>
      <point x="472" y="449"/>
      <point x="359" y="459" type="curve"/>
      <point x="359" y="463" type="line"/>
      <point x="435" y="482"/>
      <point x="500" y="545"/>
      <point x="500" y="624" type="curve" smooth="yes"/>
      <point x="500" y="717"/>
      <point x="425" y="780"/>
      <point x="315" y="780" type="curve" smooth="yes"/>
      <point x="200" y="780"/>
      <point x="110" y="710"/>
      <point x="87" y="605" type="curve"/>
      <point x="123" y="591" type="line"/>
      <point x="150" y="648"/>
      <point x="206" y="686"/>
      <point x="261" y="686" type="curve" smooth="yes"/>
      <point x="312" y="686"/>
      <point x="344" y="653"/>
      <point x="344" y="600" type="curve" smooth="yes"/>
      <point x="344" y="524"/>
      <point x="277" y="450"/>
      <point x="170" y="408" type="curve"/>
    </contour>
  </outline>
</glyph>
<glyph name="tilde.cap" format="1">
  <advance width="347"/>
  <outline>
    <contour>
      <point x="10" y="821" type="line"/>
      <point x="10" y="915"/>
      <point x="55" y="963"/>
      <point x="117" y="963" type="curve" smooth="yes"/>
      <point x="169" y="963"/>
      <point x="192" y="927"/>
      <point x="238" y="927" type="curve" smooth="yes"/>
      <point x="270" y="927"/>
      <point x="292" y="941"/>
      <point x="298" y="965" type="curve"/>
      <point x="337" y="965" type="line"/>
      <point x="337" y="873"/>
      <point x="303" y="820"/>
      <point x="235" y="820" type="curve" smooth="yes"/>
      <point x="179" y="820"/>
      <point x="160" y="859"/>
      <point x="110" y="859" type="curve" smooth="yes"/>
      <point x="75" y="859"/>
      <point x="53" y="844"/>
      <point x="49" y="821" type="curve"/>
    </contour>
    <contour>
      <point x="174" y="829" type="move" name="_topcap"/>
    </contour>
  </outline>
</glyph>
<glyph name="two.tnum" format="1">
  <advance width="600"/>
  <outline>
    <contour>
      <point x="411" y="0" type="line" name="hr00"/>
      <point x="432" y="-33" type="line"/>
      <point x="464" y="-33" type="line"/>
      <point x="547" y="225" type="line"/>
      <point x="502" y="233" type="line"/>
      <point x="477" y="188"/>
      <point x="454" y="153"/>
      <point x="432" y="131" type="curve"/>
      <point x="195" y="131" type="line"/>
      <point x="446" y="326"/>
      <point x="529" y="440"/>
      <point x="529" y="563" type="curve" smooth="yes"/>
      <point x="529" y="686"/>
      <point x="428" y="780"/>
      <point x="296" y="780" type="curve" smooth="yes"/>
      <point x="182" y="780"/>
      <point x="85" y="708"/>
      <point x="39" y="589" type="curve"/>
      <point x="80" y="568" type="line"/>
      <point x="115" y="636"/>
      <point x="182" y="684"/>
      <point x="243" y="684" type="curve" smooth="yes"/>
      <point x="313" y="684"/>
      <point x="359" y="628"/>
      <point x="359" y="543" type="curve" smooth="yes"/>
      <point x="359" y="425"/>
      <point x="268" y="293"/>
      <point x="23" y="58" type="curve"/>
      <point x="32" y="0" type="line"/>
    </contour>
  </outline>
</glyph>
<glyph name="yen.tnum" format="1">
  <advance width="600"/>
  <outline>
    <contour>
      <point x="264" y="243" type="line"/>
      <point x="335" y="243" type="line"/>
      <point x="517" y="636" type="line" smooth="yes"/>
      <point x="553" y="715"/>
      <point x="558" y="722"/>
      <point x="612" y="733" type="curve"/>
      <point x="612" y="770" type="line"/>
      <point x="390" y="770" type="line"/>
      <point x="390" y="733" type="line"/>
      <point x="452" y="728"/>
      <point x="471" y="715"/>
      <point x="471" y="692" type="curve" smooth="yes"/>
      <point x="471" y="686"/>
      <point x="470" y="679"/>
      <point x="466" y="671" type="curve" smooth="yes"/>
      <point x="350" y="431" type="line"/>
      <point x="346" y="431" type="line"/>
      <point x="234" y="670" type="line" smooth="yes"/>
      <point x="230" y="678"/>
      <point x="228" y="685"/>
      <point x="228" y="691" type="curve" smooth="yes"/>
      <point x="228" y="709"/>
      <point x="243" y="723"/>
      <point x="306" y="733" type="curve"/>
      <point x="306" y="770" type="line"/>
      <point x="-20" y="770" type="line"/>
      <point x="-20" y="733" type="line"/>
      <point x="18" y="729"/>
      <point x="27" y="719"/>
      <point x="43" y="686" type="curve" smooth="yes"/>
    </contour>
    <contour>
      <point x="121" y="0" type="line"/>
      <point x="472" y="0" type="line"/>
      <point x="472" y="37" type="line"/>
      <point x="383" y="58" type="line"/>
      <point x="383" y="344" type="line"/>
      <point x="211" y="344" type="line"/>
      <point x="211" y="58" type="line"/>
      <point x="121" y="37" type="line"/>
    </contour>
    <contour>
      <point x="79" y="210" type="line"/>
      <point x="510" y="210" type="line"/>
      <point x="510" y="270" type="line"/>
      <point x="79" y="270" type="line"/>
    </contour>
    <contour>
      <point x="79" y="320" type="line"/>
      <point x="510" y="320" type="line"/>
      <point x="510" y="381" type="line"/>
      <point x="79" y="381" type="line"/>
    </contour>
  </outline>
</glyph>
<glyph name="zero.denominator" format="1">
  <advance width="498"/>
  <outline>
    <contour>
      <point x="248" y="509" type="curve" smooth="yes"/>
      <point x="128" y="509"/>
      <point x="34" y="395"/>
      <point x="34" y="249" type="curve" smooth="yes"/>
      <point x="34" y="104"/>
      <point x="127" y="-7"/>
      <point x="248" y="-7" type="curve" smooth="yes"/>
      <point x="369" y="-7"/>
      <point x="463" y="104"/>
      <point x="463" y="249" type="curve" smooth="yes"/>
      <point x="463" y="394"/>
      <point x="368" y="509"/>
    </contour>
    <contour>
      <point x="248" y="468" type="curve" smooth="yes"/>
      <point x="288" y="468"/>
      <point x="303" y="426"/>
      <point x="303" y="249" type="curve" smooth="yes"/>
      <point x="303" y="72"/>
      <point x="288" y="35"/>
      <point x="248" y="35" type="curve" smooth="yes"/>
      <point x="209" y="35"/>
      <point x="194" y="72"/>
      <point x="194" y="249" type="curve" smooth="yes"/>
      <point x="194" y="426"/>
      <point x="209" y="468"/>
    </contour>
  </outline>
</glyph>
<glyph name="zero.numerator" format="1">
  <advance width="498"/>
  <outline>
    <contour>
      <point x="248" y="783" type="curve" smooth="yes"/>
      <point x="128" y="783"/>
      <point x="34" y="669"/>
      <point x="34" y="523" type="curve" smooth="yes"/>
      <point x="34" y="378"/>
      <point x="127" y="267"/>
      <point x="248" y="267" type="curve" smooth="yes"/>
      <point x="369" y="267"/>
      <point x="463" y="378"/>
      <point x="463" y="523" type="curve" smooth="yes"/>
      <point x="463" y="668"/>
      <point x="368" y="783"/>
    </contour>
    <contour>
      <point x="248" y="742" type="curve" smooth="yes"/>
      <point x="288" y="742"/>
      <point x="303" y="700"/>
      <point x="303" y="523" type="curve" smooth="yes"/>
      <point x="303" y="346"/>
      <point x="288" y="309"/>
      <point x="248" y="309" type="curve" smooth="yes"/>
      <point x="209" y="309"/>
      <point x="194" y="346"/>
      <point x="194" y="523" type="curve" smooth="yes"/>
      <point x="194" y="700"/>
      <point x="209" y="742"/>
    </contour>
  </outline>
</glyph>
